<svg xmlns="http://www.w3.org/2000/svg" xmlns:xlink="http://www.w3.org/1999/xlink" version="1.1" viewBox="9.98 0.143 9.85 9.85">
<rect id="icon-home-max-clickable" x="8.995000000000001" y="-0.8419999999999994" width="11.819999999999999" height="11.819999999999999" fill="#788356" fill-opacity="1" stroke-dasharray="0.0452804, 0.18112" stroke-width=".028" style="mix-blend-mode:normal" class="bg-item bg" xmlns="http://www.w3.org/2000/svg"/>
<path d="m14.6 1.06-4.27 2.56c-0.21 0.126-0.253 0.442-0.0948 0.708l0.0299 0.0504c0.158 0.266 0.454 0.379 0.664 0.253l0.27-0.162h0.0311c-0.0088 0.0455-0.0157 0.0923-0.0157 0.141v3.99c0 0.319 0.198 0.577 0.443 0.577h2.27v-2.79h2.03v2.79h2.31c0.246 0 0.443-0.257 0.443-0.577v-3.99c0-0.0416-0.0042-0.082-0.0107-0.121l0.236 0.141c0.21 0.126 0.506 0.0135 0.664-0.253l0.0299-0.0504c0.158-0.266 0.116-0.582-0.0941-0.708l-4.27-2.56c-0.178-0.0886-0.178-0.086-0.34-0.103-0.162 0.0163-0.163 0.0158-0.327 0.103z" fill="white" stroke-linejoin="round" stroke-width="1.61" fill-opacity="1" class="fg" xmlns="http://www.w3.org/2000/svg"/>
</svg>