<svg xmlns="http://www.w3.org/2000/svg" xmlns:xlink="http://www.w3.org/1999/xlink" version="1.1" viewBox="25.1 49.3 9.85 9.85">
<rect id="icon-teammanager-clickable" x="24.115000000000002" y="48.315" width="11.819999999999999" height="11.819999999999999" fill="#788356" fill-opacity="1" stroke-dasharray="0.0452804, 0.18112" stroke-miterlimit="4.1" stroke-width=".028" style="mix-blend-mode:normal" class="bg-item bg" xmlns="http://www.w3.org/2000/svg"/>
<text id="txt-team-manager" transform="scale(1.02 .976)" x="29.269943" y="58.286358" fill="white" font-family="'Devanagari Sangam MN'" font-size=".95px" font-weight="bold" letter-spacing=".147px" stroke-linecap="round" stroke-miterlimit="4.1" stroke-width=".256" text-align="center" text-anchor="middle" word-spacing=".00835px" style="line-height:1.2;mix-blend-mode:normal" xml:space="preserve" fill-opacity="1" class="fg" xmlns="http://www.w3.org/2000/svg"><tspan x="29.301289" y="58.286358" fill="white" fill-opacity="1" class="fg"><tspan x="29.301289" y="58.286358" fill="white" font-size=".95px" stroke-width=".256" fill-opacity="1" class="fg">TEAM</tspan></tspan><tspan x="29.332636" y="59.426212" fill="white" fill-opacity="1" class="fg">MANAGER</tspan></text>
<path d="m28 55.6c-0.079-0.0477-0.029-1.58 0.057-1.75 0.0878-0.17 0.232-0.327 0.388-0.421 0.0934-0.0563 0.109-0.0767 0.0984-0.129-0.0158-0.0774 0.21-0.304 0.289-0.29 0.0835 0.0152 0.0738 0.115-0.0204 0.21-0.0824 0.0829-0.0832 0.0855-0.0214 0.0708 0.0353-0.0084 0.205-0.0154 0.378-0.0156 0.297-2.65e-4 0.314-0.0027 0.314-0.0492 0-0.0396-0.0171-0.0488-0.0908-0.0488-0.277 0-0.459-0.26-0.349-0.499 0.0878-0.189 0.154-0.211 0.606-0.204 0.385 0.0063 0.385 0.0063 0.392 0.192 0.0084 0.211 0.0056 0.215-0.193 0.277-0.22 0.0682-0.12 0.136 0.202 0.136 0.564 0 0.825-0.308 0.839-0.986 0.0109-0.553-0.0282-0.626-0.337-0.626-0.18 0-0.223-0.0163-0.223-0.0851 0-0.194 0.509-0.125 0.664 0.0892 0.16 0.222 0.252-0.0707 0.13-0.415-0.0622-0.175-0.054-0.224 0.0378-0.224 0.118 0 0.238 0.353 0.209 0.619-0.0128 0.12-0.0069 0.153 0.036 0.205 0.139 0.168-0.0099 0.527-0.242 0.582-0.0495 0.0118-0.0629 0.0386-0.086 0.171-0.0404 0.232-0.135 0.406-0.312 0.575-0.212 0.202-0.218 0.284-0.0201 0.295 0.185 0.0101 0.185 0.0473-0.0052 0.408-0.176 0.335-0.168 0.33-0.417 0.234-0.0868-0.0336-0.161-0.061-0.165-0.061s-0.0107 0.0785-0.0148 0.174c-0.0135 0.312-0.181 0.312-0.195 0-0.0041-0.096-0.0108-0.174-0.0148-0.174s-0.0783 0.0274-0.165 0.061c-0.231 0.0892-0.248 0.0848-0.339-0.0859-0.0632-0.119-0.0726-0.156-0.0499-0.197 0.0422-0.0751 0.132-0.0505 0.185 0.0508 0.0507 0.0968 0.0487 0.0962 0.181 0.0522 0.119-0.0397 0.118-0.0435-0.0672-0.186-0.149-0.115-0.149-0.115-0.513-0.106-0.724 0.019-0.993 0.266-1.01 0.93-0.0102 0.336-0.0102 0.336 0.275 0.336 0.285 0 0.285 0 0.285-0.105 0-0.153 0.116-0.228 0.179-0.116 0.0847 0.151 0.0225 1.12-0.0718 1.12-0.0938 0-0.107-0.0484-0.107-0.396 0-0.337 0-0.337-0.282-0.337s-0.282 0-0.282 0.337c0 0.377-0.0279 0.448-0.149 0.375zm2.56-1.96c0.126-0.238 0.0825-0.262-0.149-0.0834-0.179 0.138-0.165 0.2 0.0526 0.227 0.0104 0.0013 0.0536-0.0632 0.0962-0.143zm-0.295-0.2c0.165-0.126 0.244-0.275 0.122-0.229-0.0247 0.0092-0.111 0.0281-0.192 0.0419-0.14 0.0239-0.363 0.0047-0.487-0.0419-0.13-0.0487-0.0414 0.105 0.14 0.242 0.209 0.158 0.194 0.158 0.418-0.0127zm-0.737-0.527c0.0519-0.0524 0.14-0.107 0.208-0.128 0.252-0.0796 0.183-0.147-0.149-0.147-0.326 0-0.386 0.0283-0.386 0.181 0 0.182 0.188 0.235 0.328 0.0941zm1.71-0.959c0.0701-0.129 0.0362-0.22-0.0818-0.22-0.056 0-0.059 0.0088-0.059 0.172 0 0.19 0.0537 0.209 0.141 0.0485zm-0.0373 3.61c-0.0847-0.151-0.0225-1.12 0.0718-1.12 0.0732 0 0.107 0.0515 0.107 0.164 0 0.105 0 0.105 0.285 0.105s0.285 0 0.275-0.324c-0.0157-0.55-0.226-0.832-0.691-0.923-0.209-0.041-0.27-0.194-0.0783-0.194 0.32 0 0.699 0.254 0.869 0.583 0.0998 0.193 0.128 1.72 0.0324 1.75-0.111 0.0335-0.128-0.0179-0.128-0.381 0-0.339 0-0.339-0.282-0.339s-0.282 0-0.282 0.337c0 0.347-0.0131 0.396-0.107 0.396-0.0249 0-0.0572-0.0213-0.0718-0.0472zm-1.04-0.702c-0.0442-0.0421-0.015-0.13 0.0482-0.145 0.0485-0.0116 0.088-0.0584 0.153-0.182 0.116-0.219 0.112-0.218 0.375-0.095 0.231 0.108 0.277 0.155 0.23 0.238-0.0176 0.0313-0.0172 0.0542 0.0011 0.0717 0.0148 0.0141 0.0193 0.0488 0.0099 0.077-0.0172 0.0516-0.766 0.0836-0.817 0.035zm0.598-0.187c0-0.026-0.149-0.114-0.193-0.114-0.0062 0-0.0292 0.033-0.0511 0.0732-0.0398 0.0732-0.0398 0.0732 0.102 0.0732 0.1 0 0.142-0.0094 0.142-0.0321zm-2.48-1.8c-0.0189-0.0114-0.0304-0.0469-0.0256-0.079 0.0117-0.079 0.437-0.0925 0.453-0.0144 0.0203 0.1-0.3 0.17-0.427 0.0934zm0.371-0.366c-0.127-0.123-0.143-0.183-0.0612-0.232 0.0368-0.0221 0.0664-6e-3 0.173 0.0941 0.131 0.123 0.165 0.214 0.0882 0.242-0.0649 0.0237-0.0706 0.0208-0.2-0.104zm1.81 0.0887c-0.0141-0.0168-0.0336-0.0552-0.0433-0.0854s-0.0461-0.0617-0.0808-0.07c-0.0878-0.021-0.125-0.0927-0.0727-0.142 0.103-0.0984 0.344 0.046 0.344 0.206 0 0.103-0.0907 0.159-0.148 0.091zm-1.43-0.276c-0.0222-0.0211-0.0403-0.0474-0.0403-0.0584s-0.028-0.0267-0.0621-0.0349c-0.236-0.0564-0.386-0.413-0.245-0.584 0.0434-0.0525 0.0491-0.0842 0.0353-0.196-0.0894-0.724 0.741-1.39 1.55-1.24 0.356 0.0637 0.754 0.287 0.739 0.415-0.0112 0.0924-0.084 0.097-0.196 0.0123-0.751-0.566-1.85-0.17-1.9 0.682-0.011 0.206 0.0492 0.343 0.0933 0.212 0.0344-0.102 0.223-0.236 0.356-0.254 0.163-0.0213 0.31-0.15 0.264-0.232-0.0903-0.161 0.077-0.506 0.235-0.485 0.0807 0.0109 0.0984 0.128 0.025 0.165-0.161 0.082-0.116 0.285 0.0926 0.416 0.233 0.146 0.163 0.288-0.0808 0.164-0.129-0.0656-0.129-0.0656-0.187 0.0051-0.0624 0.0759-0.225 0.15-0.33 0.15-0.157 0-0.191 0.0834-0.191 0.473 0 0.352-0.0187 0.43-0.103 0.43-0.0121 0-0.0401-0.0173-0.0623-0.0384zm-0.0403-0.427c0-0.172-9.5e-5 -0.173-0.0679-0.165-0.134 0.0152-0.145 0.161-0.0219 0.278 0.087 0.0828 0.0899 0.0792 0.0899-0.114zm0.411 0.0638c-0.0414-0.0474-0.0093-0.135 0.0494-0.135 0.0362 0 0.0461-0.0173 0.0432-0.076-0.0025-0.0493 0.0123-0.0857 0.0422-0.104 0.0708-0.0428 0.342 0.228 0.301 0.301-0.0356 0.0633-0.383 0.0746-0.435 0.0142zm0.845-0.0142c-0.0409-0.0727 0.23-0.344 0.301-0.301 0.0298 0.018 0.0446 0.0544 0.0422 0.104-0.0029 0.0587 0.0069 0.076 0.0432 0.076 0.0586 0 0.0907 0.088 0.0494 0.135-0.0527 0.0604-0.4 0.0491-0.435-0.0142zm0.0932-0.865c-0.126-0.0428-0.302-0.204-0.292-0.267 0.0153-0.0965 0.0889-0.105 0.18-0.0217 0.122 0.112 0.253 0.158 0.4 0.139 0.0931-0.0117 0.13-0.0065 0.155 0.0222 0.108 0.124-0.194 0.211-0.442 0.127z" fill="white" stroke-width=".774" fill-opacity="1" class="fg" xmlns="http://www.w3.org/2000/svg"/>
</svg>