<svg xmlns="http://www.w3.org/2000/svg" xmlns:xlink="http://www.w3.org/1999/xlink" version="1.1" viewBox="87.7 498 17 17">
<rect id="icon-score-clickable" x="86" y="496.3" width="20.4" height="20.4" fill="#788356" fill-opacity="1" stroke-dasharray="0.0452804, 0.18112" stroke-miterlimit="4.1" stroke-width=".0483" style="mix-blend-mode:normal" class="bg-item bg" xmlns="http://www.w3.org/2000/svg"/>
<text id="txt-score" x="96.120003" y="512.82971" fill="white" font-family="'Devanagari Sangam MN'" font-size="1.81px" font-weight="bold" letter-spacing=".12px" stroke-linecap="round" stroke-miterlimit="4.1" stroke-width=".432" text-align="center" text-anchor="middle" word-spacing=".0068px" style="line-height:1.2" xml:space="preserve" fill-opacity="1" class="fg" xmlns="http://www.w3.org/2000/svg"><tspan x="96.179878" y="512.82971" fill="white" font-size="1.81px" stroke-width=".432" fill-opacity="1" class="fg">SCORE</tspan></text>
<g id="icon-score-graphics" transform="matrix(.938 0 0 .938 -.911 17)" stroke-width="1.18" xmlns="http://www.w3.org/2000/svg">
    <path transform="scale(.265)" d="m406 1945c-0.135-0.0017-0.277 0.0087-0.325 0.0322-0.716 0.354-0.592 0.564-0.682 0.618-0.0262 0.0162-0.0393 4.14-0.0393 12.3 0 10.2-0.00877 12.2-0.0536 12.3-0.0394 0.034-3.23 0.0422-12.1 0.0322l-12-0.0072-0.0107-2.12c-5e-3 -0.927 0.00286-1.67-0.00714-2.09-0.179 0.0383-0.817 0.186-1.14 0.282-0.426 0.127-0.352 0.105-0.525 0.161-0.131 0.0424-0.24 0.0757-0.446 0.161l0.0536 7.23c0.0345 4.8 0.0132 7.28 0.0393 7.29 0.0217 0.013 0.0393 0.0558 0.0393 0.0928 0 0.103 0.31 0.41 0.532 0.525 1e-4 0.033 0.556 0.205 0.75 0.0571 0.0422-0.032 0.107-0.0571 0.146-0.0571 0.102 0 0.0481-0.0822 0.121-0.0822 0.0274 0 0.103-0.0612 0.168-0.139 0.065-0.0783 0.151-0.177 0.189-0.218 0.0381-0.0413 0.0678-0.125 0.0678-0.186s0.0177-0.128 0.0393-0.15c0.0255-0.0255 0.043-1.54 0.05-4.31l0.0107-4.27h12.1 12.1l0.0107 4.31c0.0065 2.79 0.0209 4.32 0.0464 4.35 0.0217 0.0216 0.0393 0.0786 0.0393 0.129s0.019 0.0928 0.0393 0.0928 0.0474 0.033 0.0607 0.075c0.0308 0.0971 0.257 0.318 0.325 0.318 0.0285 0 0.05 0.0209 0.05 0.0429 0 0.021 0.0321 0.0393 0.0714 0.0393 0.0393 0 0.108 0.0251 0.15 0.0571 0.131 0.0991 0.479 0.0742 0.728-0.05 0.313-0.156 0.4-0.251 0.596-0.65 0.0492-0.1 0.046-35.2-0.00358-35.3-0.0217-0.0134-0.0393-0.0694-0.0393-0.121 0-0.133-0.478-0.611-0.611-0.611-0.0533 0-0.108-0.0173-0.121-0.0393-0.0149-0.0265-0.143-0.0411-0.279-0.0429zm-26.3 0.0107c-0.133 5e-3 -0.288 0.0225-0.393 0.05-0.171 0.0446-0.536 0.373-0.536 0.482 0 0.027-0.0163 0.05-0.0357 0.05-0.0193 0-0.0511 0.0644-0.0678 0.146-0.0167 0.0815-0.0349 3.19-0.0429 6.9 0 5.82-0.0263 6.13-0.0464 6.75 0.483-0.124 0.886-0.244 1.73-0.407 0.138-0.0386 0.237-0.057 0.489-0.1l-0.05-6.55c-0.0479-6.19-0.00275-6.59-0.0678-6.71-0.038-0.0729-0.0837-0.136-0.1-0.146-0.0163-7e-3 -0.0286-0.028-0.0286-0.05 0-0.0796-0.359-0.35-0.464-0.35-0.0406 0-0.0941-0.0189-0.118-0.0429-0.0226-0.0225-0.134-0.03-0.268-0.025zm3.48 15.2c-0.0283 2e-4 -0.0544 0.0066-0.0786 0.0142-0.0865 0.0276-0.597 0.0474-1.21 0.122-0.418 0.0635-0.728 0.137-1.19 0.196-0.308 0.031-0.5 0.111-0.996 0.2-0.214 0.0386-0.416 0.101-0.628 0.154-0.446 0.111-0.897 0.216-1.35 0.321-0.568 0.16-0.623 0.185-0.928 0.289-0.0451 0.0152-0.138 0.0305-0.2 0.0607-0.0623 0.0326-0.164 0.0572-0.225 0.0572-0.0614 0-0.122 0.0166-0.136 0.0393-0.0134 0.0211-0.0654 0.0392-0.114 0.0392s-0.126 0.0305-0.168 0.0608c-0.0422 0.0325-0.113 0.0564-0.161 0.0571-0.0477 0.0011-0.0975 0.0202-0.111 0.0428-0.0134 0.022-0.0736 0.0386-0.132 0.0393-0.0585 0-0.14 0.0305-0.182 0.0607-0.0422 0.0318-0.119 0.0572-0.168 0.0572-0.0488 0-0.0975 0.0166-0.111 0.0392-0.0134 0.0201-0.0666 0.0393-0.118 0.0393-0.0513 0-0.153 0.0301-0.225 0.0679-0.24 0.12-0.271 0.128-0.332 0.128-0.0608 0-0.0884 0.012-0.329 0.132-0.0724 0.0359-0.163 0.0678-0.204 0.0678-0.0404 0-0.0868 0.0166-0.1 0.0393-0.0135 0.0212-0.056 0.0393-0.0964 0.0393-0.0404 0-0.135 0.03-0.207 0.0678-0.243 0.12-0.268 0.129-0.343 0.129-0.0412 0-0.0978 0.0267-0.125 0.0607-0.0271 0.0325-0.0783 0.0571-0.118 0.0571s-0.0832 0.0202-0.0964 0.0429c-0.0134 0.0211-0.0566 0.0393-0.0928 0.0393-0.0364 0-0.155 0.0406-0.264 0.0928s-0.27 0.123-0.357 0.161c-0.087 0.0359-0.187 0.0809-0.225 0.104-0.0378 0.0192-0.0957 0.0392-0.129 0.0392-0.033 0-0.0607 0.0166-0.0607 0.0393 0 0.0212-0.0265 0.0393-0.0571 0.0393-0.0309 0-0.113 0.0301-0.186 0.0679-0.24 0.12-0.268 0.128-0.329 0.128-0.033 0-0.0607 0.017-0.0607 0.0321 0 0.0174-0.0754 0.0619-0.168 0.1-0.0924 0.0386-0.196 0.0883-0.229 0.107-0.0326 0.02-0.115 0.0624-0.186 0.0964l-0.257 0.121c-0.0706 0.034-0.157 0.0739-0.189 0.0928-0.178 0.0972-0.242 0.125-0.296 0.125-0.033 0-0.0571 0.0131-0.0571 0.0357 0 0.022-0.0457 0.0492-0.1 0.0643-0.0543 0.014-0.1 0.0418-0.1 0.0607s-0.0328 0.0357-0.075 0.0357c-0.0422 0-0.0875 0.0168-0.1 0.0357-0.0293 0.0477-0.256 0.161-0.321 0.161-0.0276 0-0.0571 0.0133-0.0643 0.0322-0.00722 0.0174-0.102 0.0773-0.211 0.132-0.33 0.167-0.472 0.248-0.486 0.278-0.00718 0.0189-0.0476 0.0322-0.0893 0.0322-0.0418 0-0.075 0.0166-0.075 0.0393 0 0.0219-0.0457 0.0491-0.1 0.0642-0.0543 0.0129-0.1 0.0347-0.1 0.0536 0 0.0151-0.0299 0.0422-0.0678 0.0536-0.0823 0.0271-0.41 0.21-0.861 0.486-0.0434 0.0272-0.103 0.0635-0.136 0.0786-0.0326 0.017-0.0676 0.0387-0.0786 0.05-0.034 0.0389-0.178 0.127-0.25 0.15-0.0382 0.0128-0.0678 0.0382-0.0678 0.0571s-0.0331 0.0322-0.0714 0.0322c-0.0382 0-0.116 0.0459-0.175 0.0999-0.0587 0.0541-0.127 0.1-0.15 0.1-0.0237 0-0.0914 0.0424-0.15 0.0964-0.0586 0.0552-0.123 0.1-0.143 0.1-0.0199 0-0.093 0.046-0.164 0.1-0.0712 0.0552-0.148 0.1-0.171 0.1-0.0233 0-0.0428 0.0166-0.0428 0.0393 0 0.02-0.0174 0.0393-0.0393 0.0393-0.0221 0-0.161 0.0875-0.311 0.196-0.149 0.108-0.288 0.196-0.307 0.196-0.0189 0-0.0843 0.0459-0.143 0.1-0.0586 0.0552-0.115 0.1-0.129 0.1-0.0328 0-0.312 0.209-0.329 0.246-0.0073 0.0189-0.0328 0.0285-0.0536 0.0285-0.0487 0-0.466 0.309-0.557 0.411-0.0382 0.0423-0.0678 0.102-0.0678 0.132 0 0.0295-0.0232 0.0891-0.05 0.132-0.039 0.0623-0.039 0.0951 0 0.157 0.0271 0.0431 0.05 0.102 0.05 0.132 0 0.0646 0.1 0.18 0.236 0.271v-0.0036c0.135 0.0881 0.523 0.09 0.675 0 0.0631-0.037 0.118-0.0775 0.118-0.0964 0-0.0151 0.0162-0.0321 0.0393-0.0321 0.0372 0 0.301-0.178 0.354-0.239 0.0109-0.0128 0.0793-0.0552 0.15-0.0964 0.0707-0.0408 0.129-0.0882 0.129-0.107 0-0.0151 0.0181-0.0322 0.0393-0.0322 0.0453 0 0.409-0.243 0.429-0.286 0.0073-0.0188 0.0369-0.0285 0.0678-0.0285 0.0307 0 0.0571-0.0166 0.0571-0.0393 0-0.0212 0.0198-0.0429 0.0428-0.0429 0.0232 0 0.1-0.0423 0.171-0.0964 0.0712-0.0552 0.15-0.1 0.175-0.1 0.0253 0 0.0464-0.0132 0.0464-0.0321 0-0.0174 0.0649-0.064 0.146-0.107 0.0815-0.0431 0.157-0.0887 0.168-0.1 0.0326-0.0389 0.487-0.326 0.614-0.389 0.0652-0.0321 0.125-0.0743 0.136-0.0857 0.0108-0.0136 0.0846-0.058 0.161-0.1 0.0761-0.0423 0.146-0.0848 0.157-0.0999 0.0257-0.0325 0.514-0.306 0.604-0.336 0.0382-0.0129 0.0678-0.0418 0.0678-0.0607s0.0267-0.0322 0.0607-0.0322c0.034 0 0.122-0.0459 0.193-0.1 0.0712-0.0551 0.142-0.0999 0.157-0.0999 0.0147 0 0.096-0.0424 0.182-0.0965 0.0861-0.0551 0.185-0.0999 0.218-0.0999 0.0333 0 0.0607-0.0204 0.0607-0.0393 0-0.0208 0.0404-0.0492 0.0893-0.0643 0.0489-0.0151 0.0962-0.0385 0.107-0.0536 0.0109-0.0143 0.172-0.103 0.357-0.196 0.185-0.093 0.388-0.199 0.454-0.239 0.0652-0.0382 0.149-0.0786 0.186-0.0786 0.0363-0.0038 0.0714-0.017 0.0786-0.0321 0.0186-0.0416 0.265-0.168 0.329-0.168 0.029 0 0.0571-0.017 0.0643-0.0321 0.00726-0.0159 0.0775-0.0588 0.154-0.0929 0.0761-0.0351 0.237-0.111 0.357-0.168 0.12-0.0574 0.237-0.104 0.264-0.104 0.0269 0 0.05-0.0166 0.05-0.0392 0-0.0212 0.0342-0.0393 0.075-0.0393 0.0408 0 0.0942-0.0267 0.121-0.0607 0.0271-0.0325 0.0819-0.0572 0.121-0.0572 0.0395 0 0.0832-0.0166 0.0964-0.0392 0.0134-0.0212 0.0683-0.0429 0.121-0.0429s0.0964-0.0097 0.0964-0.0286c0-0.0396 0.279-0.164 0.368-0.164 0.0363 0 0.0678-0.0202 0.0678-0.0429 0-0.0211 0.019-0.0393 0.0428-0.0393 0.0444 0 0.121-0.0292 0.521-0.211 0.126-0.0566 0.252-0.104 0.282-0.104 0.0307 0 0.0689-0.0166 0.0821-0.0393 0.0134-0.0212 0.0656-0.0393 0.114-0.0393 0.0488 0 0.107-0.0199 0.132-0.0464 0.0548-0.0548 0.316-0.153 0.414-0.154 0.0382 0 0.0714-0.013 0.0714-0.0357 0-0.0208 0.063-0.0491 0.139-0.0642 0.0764-0.014 0.145-0.0419 0.157-0.0607 0.012-0.0189 0.0649-0.0358 0.114-0.0358 0.0495 0 0.102-0.0098 0.118-0.025 0.0437-0.0434 0.39-0.171 0.468-0.171 0.0382 0 0.0714-0.0166 0.0714-0.0392 0-0.0212 0.0299-0.0392 0.0678-0.0393 0.0381 0 0.12-0.0269 0.182-0.0572 0.0623-0.0325 0.153-0.0607 0.204-0.0607s0.105-0.0166 0.118-0.0393c0.0134-0.0219 0.0736-0.0386 0.132-0.0392 0.0585 0 0.14-0.0305 0.182-0.0607 0.0422-0.0318 0.115-0.0572 0.164-0.0572 0.0489 0 0.101-0.0166 0.114-0.0393 0.0135-0.0223 0.0736-0.0421 0.132-0.0428 0.0585 0 0.14-0.0269 0.182-0.0571 0.0422-0.0314 0.126-0.0572 0.186-0.0572 0.0598 0 0.119-0.0166 0.132-0.0393 0.0134-0.0211 0.0743-0.0428 0.136-0.0428 0.0615 0 0.163-0.0269 0.225-0.0572 0.0623-0.0325 0.152-0.0605 0.2-0.0607 0.0476 0 0.0956-0.0166 0.111-0.0392 0.0132-0.0201 0.0681-0.0393 0.121-0.0393s0.13-0.0133 0.168-0.0322c0.0976-0.0499 0.396-0.131 0.582-0.154 0.0869-0.0121 0.178-0.0347 0.196-0.0536 0.0204-0.0189 0.0843-0.0357 0.143-0.0357 0.0582 0 0.155-0.0231 0.218-0.0571 0.0624-0.0325 0.181-0.0607 0.261-0.0607 0.0805 0 0.156-0.0166 0.171-0.0393 0.0136-0.0212 0.109-0.0393 0.214-0.0393 0.11 0 0.2-0.02 0.207-0.0464 0.00832-0.025 0.118-0.053 0.243-0.0643 0.124-0.0098 0.235-0.0347 0.246-0.0536 0.0117-0.0189 0.115-0.0321 0.229-0.0321 0.114 0 0.228-0.0166 0.246-0.0393 0.0427-0.0427 0.501-0.116 0.886-0.143 0.141-0.0099 0.292-0.0347 0.336-0.0536 0.0435-0.0189 0.243-0.0458 0.443-0.0571 0.357-0.0219 0.667-0.0782 0.825-0.15 0.119-0.0539 0.293-0.369 0.293-0.528 0-0.0749-0.0168-0.136-0.0357-0.136-0.02 0-0.0492-0.0389-0.0643-0.0857-0.0554-0.175-0.334-0.344-0.532-0.343zm-0.2 2.46c-0.213 0-0.399 0.0099-0.414 0.025-0.0291 0.0295-0.52 0.105-0.861 0.139-0.118 0.0098-0.231 0.0384-0.25 0.0536-0.0185 0.0226-0.115 0.0349-0.214 0.0357-0.0994 7e-4 -0.219 0.0271-0.268 0.0535-0.0491 0.0299-0.157 0.0529-0.239 0.0536-0.0824 0-0.16 0.0168-0.171 0.0357-0.0125 0.0227-0.0935 0.0393-0.179 0.0393s-0.201 0.0271-0.257 0.0535c-0.0563 0.0307-0.152 0.0535-0.214 0.0536-0.0627 0-0.128 0.0168-0.139 0.0357-0.0121 0.0227-0.0912 0.0393-0.179 0.0393s-0.161 0.0168-0.161 0.0357c0 0.0178-0.0799 0.0494-0.179 0.0607-0.0986 0.0136-0.185 0.0385-0.196 0.0536-0.0102 0.0227-0.0763 0.0357-0.143 0.0357s-0.132 0.0168-0.143 0.0357c-0.0125 0.0227-0.0569 0.0391-0.1 0.0393-0.0431 0-0.122 0.0271-0.179 0.0536-0.0563 0.0306-0.156 0.0535-0.221 0.0535-0.0654 0-0.132 0.0168-0.143 0.0357-0.0121 0.0227-0.0649 0.0387-0.118 0.0393-0.0529 0-0.126 0.0271-0.164 0.0536-0.0382 0.0298-0.106 0.0535-0.15 0.0535s-0.0922 0.0169-0.104 0.0358c-0.0121 0.0226-0.0693 0.0392-0.129 0.0392-0.0592 0-0.131 0.0271-0.161 0.0536-0.0294 0.0306-0.101 0.0536-0.157 0.0536-0.0564 0-0.113 0.0168-0.125 0.0357-0.0121 0.0227-0.0608 0.0393-0.107 0.0393-0.0464 0-0.138 0.0231-0.204 0.0571-0.223 0.112-0.242 0.121-0.332 0.121-0.0494 0-0.0893 0.0168-0.0893 0.0357 0 0.0227-0.0299 0.0392-0.0643 0.0393-0.0344 0-0.108 0.0271-0.164 0.0536-0.0563 0.0306-0.13 0.0535-0.168 0.0535-0.0681 0-0.0906 0.0075-0.311 0.118-0.0655 0.0332-0.151 0.0607-0.189 0.0607-0.0376 0-0.0678 0.0168-0.0678 0.0357 0 0.0227-0.0471 0.0393-0.104 0.0393-0.0565 0-0.122 0.0271-0.146 0.0535-0.0245 0.0307-0.0748 0.0536-0.111 0.0536-0.0357 0-0.0736 0.0168-0.0857 0.0357-0.0122 0.0227-0.0502 0.0393-0.0857 0.0393-0.0352 0-0.14 0.0405-0.232 0.0893-0.0924 0.0495-0.201 0.0892-0.239 0.0892-0.0382 0-0.0678 0.0204-0.0678 0.0393 0 0.0227-0.0258 0.0357-0.0571 0.0357-0.0313 0-0.101 0.0236-0.154 0.05-0.0522 0.0269-0.133 0.0668-0.182 0.0857-0.0491 0.0204-0.178 0.0755-0.286 0.125-0.108 0.0492-0.22 0.0994-0.25 0.111-0.0294 0.011-0.0776 0.0385-0.107 0.0536-0.142 0.079-0.221 0.111-0.268 0.111-0.0279 0-0.0543 0.0134-0.0607 0.0286-0.00658 0.0147-0.0704 0.0516-0.139 0.0857-0.412 0.192-0.911 0.445-0.921 0.468-0.00662 0.0151-0.0359 0.025-0.0643 0.025-0.0282 0-0.115 0.0405-0.193 0.0892-0.0778 0.0492-0.167 0.0929-0.196 0.0929-0.0298 0-0.0536 0.0099-0.0536 0.025 0 0.0317-0.248 0.15-0.314 0.15-0.023 0-0.0428 0.0098-0.0428 0.025 0 0.0158-0.0905 0.0775-0.204 0.136s-0.228 0.127-0.254 0.15c-0.026 0.0254-0.0716 0.0429-0.1 0.0429-0.028 0-0.05 0.0204-0.05 0.0393 0 0.0227-0.0296 0.0393-0.0678 0.0393-0.0381 0-0.0783 0.017-0.0893 0.0321-0.0178 0.0287-0.149 0.109-0.557 0.336-0.0688 0.0385-0.151 0.0914-0.182 0.118-0.031 0.0268-0.0694 0.05-0.0857 0.05-0.0163 0-0.082 0.0405-0.146 0.0893-0.0644 0.0491-0.133 0.0893-0.154 0.0893-0.0209 0-0.0393 0.0203-0.0393 0.0392 0 0.0227-0.0319 0.0358-0.0714 0.0358-0.0393 0-0.0714 0.0203-0.0714 0.0392 0 0.0186-0.062 0.0587-0.136 0.0965-0.0736 0.0332-0.14 0.0707-0.15 0.0821-0.0335 0.0404-0.475 0.321-0.504 0.321-0.0156 0-0.0328 0.0134-0.0393 0.0285-0.00652 0.0144-0.18 0.137-0.386 0.275-0.206 0.137-0.408 0.276-0.446 0.314-0.0386 0.0359-0.08 0.0607-0.0928 0.0607-0.0129 0-0.0679 0.0405-0.125 0.0892-0.0571 0.0492-0.117 0.0893-0.132 0.0893-0.0144 0-0.025 0.0271-0.025 0.0536 0 0.0306-0.0161 0.0536-0.0357 0.0536-0.0516 0-0.0467 0.407 0.00714 0.511 0.0502 0.0971 0.118 0.163 0.225 0.229v-0.0108c0.138 0.0843 0.518 0.0474 0.625-0.0607 0.0273-0.0272 0.443-0.303 0.482-0.318 0.0189-0.0079 0.0717-0.0507 0.121-0.0964 0.0498-0.0465 0.111-0.0857 0.136-0.0857 0.025 0 0.0464-0.0168 0.0464-0.0357 0-0.0227 0.0241-0.0393 0.0536-0.0393 0.0296 0 0.0533-0.0099 0.0536-0.025 3e-4 -0.0151 0.0969-0.0848 0.214-0.154 0.117-0.0687 0.214-0.138 0.214-0.154 2.6e-4 -0.0151 0.0202-0.025 0.0428-0.025 0.0227 0 0.0927-0.0405 0.157-0.0893 0.0644-0.0487 0.129-0.0893 0.143-0.0893 0.0142 0 0.0784-0.0405 0.143-0.0892 0.0644-0.0492 0.128-0.0893 0.139-0.0893 0.0322 0 0.322-0.191 0.336-0.225 0.0065-0.0151 0.0407-0.025 0.0786-0.025 0.0375 0 0.0678-0.0206 0.0678-0.0357 0-0.0155 0.0299-0.0422 0.0643-0.0536 0.0714-0.0245 0.373-0.198 0.4-0.232 0.00982-0.0117 0.0661-0.0485 0.125-0.075 0.059-0.0294 0.17-0.0879 0.243-0.132 0.0733-0.0435 0.154-0.0821 0.182-0.0821 0.0282 0 0.0579-0.0206 0.0643-0.0357 0.015-0.0385 0.357-0.226 0.889-0.493 0.226-0.113 0.415-0.221 0.421-0.236 0.00661-0.0151 0.0359-0.025 0.0643-0.025 0.0282 0 0.115-0.0405 0.193-0.0893 0.0778-0.0491 0.153-0.0893 0.171-0.0893 0.029 0 0.388-0.168 0.653-0.307 0.0522-0.0268 0.122-0.05 0.154-0.05 0.0313 0 0.0571-0.0204 0.0571-0.0393 0-0.0226 0.0402-0.0357 0.0893-0.0357 0.049 0 0.0893-0.0134 0.0893-0.0285s0.0664-0.0551 0.15-0.0929c0.0835-0.0355 0.202-0.0807 0.261-0.107 0.0589-0.0265 0.155-0.0702 0.214-0.0929 0.059-0.0241 0.155-0.0666 0.214-0.0892 0.059-0.0242 0.147-0.0597 0.196-0.0786 0.168-0.065 0.305-0.126 0.4-0.175 0.0522-0.0268 0.127-0.05 0.168-0.05 0.0408 0 0.075-0.0168 0.075-0.0357 0-0.0227 0.03-0.0393 0.0678-0.0393 0.0377 0 0.124-0.0266 0.189-0.0607 0.22-0.111 0.241-0.118 0.311-0.118 0.0379 0 0.124-0.0267 0.189-0.0607 0.22-0.112 0.241-0.118 0.311-0.118 0.038 0 0.124-0.0266 0.189-0.0607 0.223-0.112 0.244-0.118 0.332-0.118 0.0482 0 0.095-0.0204 0.107-0.0393 0.0122-0.0227 0.0594-0.0357 0.104-0.0357 0.0442 0 0.112-0.0271 0.15-0.0536 0.0382-0.0306 0.111-0.0529 0.164-0.0535 0.0529 0 0.106-0.0168 0.118-0.0357 0.0121-0.0227 0.0778-0.0393 0.143-0.0393s0.134-0.0271 0.161-0.0536c0.0246-0.0306 0.0908-0.0536 0.146-0.0536s0.11-0.0168 0.121-0.0357c0.0121-0.0226 0.0754-0.0392 0.139-0.0392 0.0635 0 0.134-0.0204 0.157-0.0393 0.037-0.0374 0.194-0.0825 0.457-0.129 0.059-0.0106 0.156-0.0414 0.218-0.0678 0.062-0.028 0.154-0.05 0.204-0.05 0.0503 0 0.103-0.0204 0.114-0.0393 0.0121-0.0227 0.0844-0.0357 0.161-0.0357 0.076 0 0.149-0.0204 0.161-0.0393 0.0125-0.0227 0.0704-0.0393 0.129-0.0393 0.0582 0 0.161-0.0271 0.232-0.0535 0.0707-0.0307 0.181-0.05 0.246-0.05 0.065 0 0.132-0.0204 0.143-0.0393 0.0121-0.0227 0.0899-0.0393 0.175-0.0393s0.201-0.0271 0.257-0.0536c0.0563-0.0306 0.179-0.0499 0.271-0.05 0.0922 0 0.178-0.0203 0.189-0.0392 0.0121-0.0227 0.12-0.0393 0.243-0.0393 0.123 0 0.242-0.0168 0.261-0.0357 0.0416-0.0416 0.429-0.102 0.828-0.129 0.35-0.0242 0.528-0.12 0.643-0.343l0.0857-0.168-0.0643-0.164c-0.0669-0.164-0.118-0.229-0.261-0.346-0.0622-0.051-0.145-0.0643-0.461-0.0643z" fill="white" fill-opacity="1" class="fg" xmlns="http://www.w3.org/2000/svg"/>
    <g id="icon-score-ball" transform="matrix(1.23 0 0 1.23 -23.9 -119)" xmlns="http://www.w3.org/2000/svg">
     <path d="m104 516c-0.154 4e-5 -0.327 0.012-0.434 0.0353-0.227 0.0496-0.519 0.16-0.561 0.211-0.0156 0.019-0.0162 0.0422-0.00385 0.152 8e-3 0.0711 0.0272 0.174 0.0423 0.229 0.015 0.0541 0.0323 0.0983 0.0392 0.0983 7e-3 0 0.0344-0.0173 0.0607-0.0384 0.0674-0.0534 0.282-0.179 0.446-0.26 0.164-0.0821 0.411-0.153 0.615-0.175 0.165-0.018 0.531-0.00702 0.663 0.02 0.0521 0.0106 0.097 0.0171 0.0999 0.0138 7e-3 -8e-3 -0.093-0.0639-0.207-0.116-0.122-0.0554-0.363-0.126-0.523-0.154-0.0589-0.0103-0.143-0.015-0.235-0.0154h-7.6e-4zm-1.2 0.373c-0.00173-0.00171-0.0671 0.0585-0.146 0.134l-0.144 0.137 7.6e-4 0.115c0.00131 0.344 0.12 0.716 0.329 1.03 0.118 0.18 0.324 0.386 0.507 0.508 0.0842 0.056 0.182 0.115 0.217 0.131 0.0351 0.0166 0.0688 0.0307 0.0738 0.0307 0.0156 2.3e-4 0.0547-0.0894 0.096-0.217 0.0388-0.12 0.0791-0.259 0.0791-0.272 0-0.0037-0.05-0.0429-0.111-0.0868-0.173-0.123-0.399-0.351-0.501-0.505-0.0864-0.13-0.223-0.386-0.287-0.539-0.0186-0.0445-0.0513-0.167-0.0722-0.274-0.0209-0.106-0.0395-0.193-0.0415-0.197zm1.69 0.0576c-0.108 0-0.216 0.00427-0.291 0.0154-0.25 0.0369-0.436 0.102-0.665 0.231-0.139 0.0784-0.356 0.227-0.375 0.257-7e-3 0.0113 0.0171 0.0642 0.0753 0.163 0.0474 0.0804 0.0946 0.157 0.105 0.169 0.0106 0.0123 0.0253 0.0223 0.033 0.0223 8e-3 -2e-5 0.0919-0.0468 0.187-0.104 0.322-0.194 0.496-0.269 0.732-0.317 0.453-0.0934 0.859-0.0536 1.3 0.128 0.051 0.021 0.095 0.0363 0.0976 0.033 0.0145-0.0145-0.12-0.204-0.214-0.3-0.102-0.105-0.407-0.226-0.695-0.276-0.0734-0.0126-0.181-0.0197-0.288-0.0207zm-2.18 0.498c-0.0326-0.00321-0.2 0.373-0.217 0.487-0.0163 0.112 0.0702 0.423 0.177 0.635 0.199 0.396 0.553 0.741 0.933 0.907 0.0356 0.0155 0.0674 0.0281 0.0714 0.0284 0.0195 0.00141 0.212-0.236 0.249-0.307 0.0174-0.0336 0.0174-0.034-0.0599-0.0745-0.263-0.138-0.552-0.387-0.715-0.615-0.22-0.308-0.353-0.62-0.409-0.96-9e-3 -0.0547-0.0224-0.101-0.0284-0.101zm2.4 0.0822c-0.192 4e-3 -0.392 0.0354-0.6 0.0991-0.131 0.0401-0.314 0.134-0.517 0.264l-0.106 0.0691 0.0684 0.0699c0.0845 0.0864 0.227 0.204 0.312 0.259 0.0421 0.0268 0.0741 0.0391 0.0953 0.0353 0.0175-4e-3 0.112-0.0355 0.211-0.0722 0.0983-0.0367 0.213-0.0778 0.255-0.0906 0.215-0.0673 0.598-0.087 0.843-0.0438 0.156 0.0274 0.412 0.097 0.525 0.142 0.0458 0.0184 0.0872 0.0296 0.0914 0.0254 0.0112-0.0113-0.0211-0.218-0.0492-0.317-0.0134-0.0469-0.04-0.103-0.0584-0.125-0.0614-0.073-0.358-0.198-0.636-0.267-0.139-0.0348-0.284-0.0506-0.433-0.0484zm0.328 0.757c-0.0313-6.3e-4 -0.0743 5.7e-4 -0.125 0.00307l-0.165 0.00922-0.0154 0.193c-0.0175 0.227-0.0409 0.356-0.102 0.548-0.112 0.348-0.313 0.667-0.569 0.905-0.105 0.0976-0.219 0.179-0.453 0.32-0.146 0.0879-0.15 0.0818 0.086 0.114 0.0732 0.0104 0.183 0.0192 0.244 0.0192 0.128 0.00151 0.164-0.0133 0.387-0.161 0.22-0.146 0.473-0.438 0.594-0.686 0.0806-0.165 0.158-0.392 0.192-0.565 0.043-0.217 0.032-0.65-0.0177-0.691-0.00457-4e-3 -0.0248-0.00629-0.0561-0.00691zm0.268 0.0438 0.0115 0.0607c0.0215 0.111 0.0173 0.445-0.00768 0.584-0.058 0.323-0.16 0.594-0.312 0.83-0.0883 0.137-0.245 0.325-0.335 0.402-0.0447 0.038-0.09 0.0776-0.101 0.0876-0.079 0.0758 0.387-0.158 0.541-0.271 0.162-0.119 0.201-0.155 0.307-0.279 0.159-0.186 0.28-0.387 0.359-0.593 0.0772-0.203 0.151-0.605 0.118-0.636-0.0466-0.0432-0.454-0.184-0.532-0.184h-0.0484zm-0.782 0.0154c-0.0689-0.0073-0.432 0.127-0.496 0.187-0.0265 0.0247-0.0462 0.0667-0.0707 0.149-0.174 0.587-0.437 0.941-0.952 1.28l-0.14 0.0937 0.0668 0.0422c0.0366 0.0236 0.106 0.0629 0.155 0.0868 0.0489 0.024 0.0955 0.043 0.104 0.043 0.0401 0 0.242-0.0779 0.326-0.126 0.133-0.0764 0.307-0.203 0.42-0.307 0.283-0.259 0.518-0.704 0.579-1.1 0.0219-0.144 0.0317-0.335 0.0169-0.35-0.0018-0.00181-0.00539-0.00336-0.00999-0.00385zm-2.5 0.159v0.0691c3e-4 0.099 0.0439 0.361 0.0761 0.459 0.0882 0.268 0.376 0.727 0.53 0.844l0.0638 0.0484 0.0799-0.0438c0.128-0.0705 0.337-0.21 0.331-0.22-0.0033-0.0053-0.0731-0.0492-0.154-0.0976-0.375-0.223-0.665-0.53-0.844-0.892l-0.0822-0.167z" fill="white" fill-opacity="1" class="fg" xmlns="http://www.w3.org/2000/svg"/>
    </g>
   </g>
</svg>