<svg xmlns="http://www.w3.org/2000/svg" xmlns:xlink="http://www.w3.org/1999/xlink" version="1.1" viewBox="40.1 0.143 9.85 9.85">
<rect id="icon-notplayed-clickable" x="39.115" y="-0.8419999999999994" width="11.819999999999999" height="11.819999999999999" fill="#788356" fill-opacity="1" stroke-dasharray="0.0452804, 0.18112" stroke-miterlimit="4.1" stroke-width=".028" style="mix-blend-mode:normal" class="bg-item bg" xmlns="http://www.w3.org/2000/svg"/>
<path d="m45.271 1.0893c-1.5473 0-2.8086 1.2613-2.8086 2.8086 0 1.5473 1.2613 2.8055 2.8086 2.8055 1.5473 2e-7 2.8091-1.2582 2.8091-2.8055 0-1.5473-1.2619-2.8086-2.8091-2.8086zm0 0.5917c0.05172 0 0.10316 0.00218 0.154 0.00568 0.01052 7.193e-4 0.02101 0.00171 0.03153 0.00259 0.04242 0.00352 0.08437 0.00807 0.12609 0.013957 0.0085 0.00118 0.01692 0.00182 0.02532 0.00309 1.68e-4 2.57e-5 3.47e-4 -2.59e-5 5.16e-4 0 0.04583 0.00702 0.09105 0.016052 0.13592 0.025839 0.01507 0.00327 0.03002 0.00677 0.04497 0.010331 0.02725 0.00655 0.05427 0.013643 0.08114 0.021187 0.04416 0.012324 0.08775 0.025897 0.13075 0.040825 0.01225 0.00425 0.02455 0.00846 0.03669 0.012921 0.02754 0.010111 0.05464 0.020883 0.08164 0.032039 0.01146 0.00477 0.02273 0.010032 0.0341 0.014994 0.11816 0.051157 0.23165 0.11085 0.33796 0.18087l-0.0016 0.00155c0.27016 0.17842 0.49901 0.4145 0.66921 0.6904l0.0015-0.00103c0.03858 0.062742 0.0731 0.12814 0.10543 0.19482 1e-3 0.00209 2e-3 0.00411 0.0031 0.0062 0.0013 0.00272 0.0024 0.00556 0.0036 0.00827 0.01319 0.027809 0.02614 0.055796 0.03824 0.084232 8.18e-4 0.00192 0.0017 0.00377 0.0025 0.00568 0.0044 0.010582 0.0086 0.021369 0.01287 0.032039 0.01729 0.042808 0.03341 0.086129 0.04806 0.13023 6e-3 0.017871 0.01209 0.035675 0.01757 0.053744 8e-3 0.026469 0.01507 0.053215 0.02222 0.080098 0.0035 0.013204 0.0066 0.026499 0.0099 0.03979 0.0063 0.025757 0.01272 0.05141 0.01809 0.077514 1.79e-4 8.644e-4 3.41e-4 0.00171 5.18e-4 0.00259 8e-3 0.039233 0.01476 0.078902 0.02068 0.11886 0.0024 0.016427 0.0041 0.033064 0.0061 0.049609 0.0036 0.028957 0.0068 0.058043 0.0093 0.087333 0.0015 0.017708 3e-3 0.035399 0.0041 0.053226 0.0028 0.045455 0.0052 0.091311 0.0052 0.13746 0 0.038217-0.0012 0.075947-0.0031 0.11369-9e-6 1.713e-4 8e-6 3.456e-4 0 5.169e-4 -0.05159 1.0223-0.79119 1.8564-1.7668 2.0547-0.0749 0.015355-0.15097 0.026519-0.22841 0.034107-0.07197 0.00705-0.1453 0.010849-0.21911 0.010849-0.05872 0-0.11657-0.00275-0.17415-0.00724-0.0068-5.172e-4 -0.0135-9.739e-4 -0.02016-0.00155-0.05208-0.00454-0.10354-0.010535-0.1545-0.018603-0.01703-0.00267-0.03375-0.00625-0.05065-0.00929-0.03512-0.00641-0.06987-0.013659-0.10439-0.021704-0.01636-0.00378-0.03288-0.00724-0.04909-0.011367-0.0041-0.00103-0.0078-0.00256-0.01193-0.00361-0.03925-0.010331-0.07842-0.021187-0.11679-0.03359-0.02278-0.00732-0.04525-0.015229-0.0677-0.023255-0.01815-0.00653-0.03581-0.01369-0.05374-0.020671-0.04925-0.019068-0.09776-0.039605-0.14521-0.062012-0.0061-0.00287-0.01209-0.00586-0.01809-0.00879-0.09455-0.04572-0.18491-0.097871-0.2713-0.15606-0.02941-0.01981-0.05947-0.038777-0.08786-0.059944l0.0016-0.00155c-0.25807-0.19305-0.47283-0.44129-0.62659-0.7271l-1e-3 0.00103c-0.03236-0.060384-0.06107-0.12295-0.08786-0.18655-0.01382-0.032738-0.02703-0.065694-0.03928-0.099219-6.94e-4 -0.00188-0.0014-0.0038-2e-3 -0.00568-0.01178-0.032587-0.02278-0.065414-0.03308-0.098703-0.01758-0.056837-0.03294-0.1149-0.04599-0.17363-0.0036-0.015843-0.0071-0.031573-0.01036-0.047543-0.0044-0.022384-0.0082-0.04507-0.01193-0.067697-0.0031-0.019025-0.0061-0.038175-0.0088-0.057361-0.0025-0.017892-0.0052-0.035713-0.0072-0.053744-0.0035-0.030398-6e-3 -0.061222-0.0083-0.091985-9.17e-4 -0.012434-0.0024-0.024713-0.0031-0.037207-0.0025-0.042853-0.0041-0.085717-0.0041-0.12919 0-0.038357 0.0012-0.076337 0.0031-0.1142 0.0019-0.038091 0.0044-0.075606 0.0083-0.11317 0.0075-0.074329 0.019-0.14717 0.03358-0.21911 6.7e-5 -3.305e-4 -6.8e-5 -7.031e-4 0-0.00103 0.17632-0.86764 0.85555-1.5482 1.7229-1.7244 0.03611-0.00733 0.0723-0.014067 0.10904-0.019638 0.03631-0.00556 0.07267-0.010174 0.10955-0.013957 0.0055-5.511e-4 0.01115-5.219e-4 0.01653-0.00103 0.06946-0.00658 0.13967-0.010331 0.21084-0.010331zm1.0955 0.47852-2.9244 2.6743c0.14841 0.28975 0.36353 0.53911 0.62529 0.72864l2.9704-2.714c-0.16618-0.27929-0.39677-0.51564-0.67128-0.68885z" fill="white" fill-opacity="1" class="fg" xmlns="http://www.w3.org/2000/svg"/>
<text transform="scale(.95119 1.0513)" x="47.165749" y="8.4275408" fill="white" font-family="'Devanagari Sangam MN'" font-size="1.0087px" font-weight="bold" letter-spacing=".147px" stroke-linecap="round" stroke-miterlimit="4.1" stroke-width=".27066" text-align="center" text-anchor="middle" word-spacing=".00835px" style="line-height:1.2;mix-blend-mode:normal" xml:space="preserve" fill-opacity="1" class="fg" xmlns="http://www.w3.org/2000/svg"><tspan x="47.198875" y="8.4275408" fill="white" font-size="1.0087px" stroke-width=".27066" fill-opacity="1" class="fg">NOT PLAYED</tspan></text>
</svg>