<svg xmlns="http://www.w3.org/2000/svg" xmlns:xlink="http://www.w3.org/1999/xlink" version="1.1" viewBox="67.2 498 17 17">
<rect id="icon-card-clickable" x="65.5" y="496.3" width="20.4" height="20.4" fill="#788356" fill-opacity="1" stroke-dasharray="0.0452804, 0.18112" stroke-miterlimit="4.1" stroke-width=".0483" style="mix-blend-mode:normal" class="bg-item bg" xmlns="http://www.w3.org/2000/svg"/>
<g xmlns="http://www.w3.org/2000/svg">
    <text id="txt-card" transform="matrix(.614 0 0 .614 12.3 377)" x="103.1516" y="220.18022" fill="white" font-family="'Devanagari Sangam MN'" font-size="2.97px" font-weight="bold" letter-spacing=".196px" opacity=".994" stroke-linecap="round" stroke-miterlimit="4.1" stroke-width=".708" text-align="center" text-anchor="middle" word-spacing=".0111px" style="inline-size:15.443;line-height:1.2;white-space:pre" xml:space="preserve" fill-opacity="1" class="fg" xmlns="http://www.w3.org/2000/svg"><tspan x="103.1516" y="220.18022" fill="white" fill-opacity="1" class="fg">CARD</tspan></text>
    <path d="m76.6 499-3.51 0.0146v1e-3c-0.537 1.2e-4 -0.622 0.604-0.622 0.604v5.24c0 0.564 0.61 0.636 0.61 0.636s1.65-0.0117 1.93 0c0.278 0.0114 0.281-0.0415 0.38-0.137 0.152-0.147 0.152-0.141 0.322-0.339 0.143-0.166 0.0732-0.324 0.0732-0.324l-0.516-0.77c-0.388-0.579 0.476-1.06 0.82-0.607 0.2 0.264 0.514 0.684 0.743 0.956 0.262 0.312 0.454-0.0711 0.454-0.0711s-0.0146-4.09-0.0146-4.59-0.672-0.61-0.672-0.61zm-2.69 0.68c0.116 0 0.232 0.0449 0.321 0.134l0.644 0.643 0.643-0.643c0.178-0.178 0.465-0.178 0.644 0 0.178 0.178 0.178 0.464 0 0.643l-0.644 0.644 0.644 0.644c0.178 0.178 0.178 0.464 0 0.643-0.178 0.178-0.464 0.178-0.643 0l-0.644-0.644-0.644 0.643c-0.178 0.178-0.464 0.179-0.643 1e-3 -0.178-0.178-0.178-0.465 0-0.644l0.643-0.644-0.643-0.643c-0.178-0.178-0.179-0.464-1e-3 -0.643 0.0891-0.0891 0.206-0.134 0.322-0.134zm1.91 0.338c-0.0343 0-0.068 0.0126-0.0942 0.0387l-0.854 0.854-0.821-0.821c-0.0525-0.0525-0.138-0.0526-0.19 0-0.0526 0.0525-0.0515 0.137 1e-3 0.189l0.821 0.821-0.854 0.854c-0.0524 0.0524-0.0524 0.137 0 0.189 0.0524 0.0524 0.137 0.0523 0.189 0l0.854-0.854 0.82 0.821c0.0525 0.0526 0.138 0.0526 0.19 0 0.0525-0.0525 0.0525-0.137 0-0.189l-0.821-0.821 0.854-0.854c0.0524-0.0524 0.0524-0.137 0-0.189-0.0262-0.0262-0.061-0.0387-0.0952-0.0387z" fill="white" fill-opacity="1" class="fg" xmlns="http://www.w3.org/2000/svg"/>
    <path d="m75.1 508h2.83c0.205 0 0.325 0.17 0.37 0.37l0.153 0.68c0.0448 0.2-0.165 0.37-0.37 0.37h-3.15c-0.205 0-0.419-0.171-0.37-0.37l0.168-0.68c0.049-0.199 0.165-0.37 0.37-0.37z" fill="white" fill-opacity="1" class="fg" xmlns="http://www.w3.org/2000/svg"/>
   </g>
<path d="m75.3 508s-0.194-0.335-0.275-0.611c-0.0889-0.302-0.115-0.733-0.115-0.733" stroke="white" stroke-linecap="round" stroke-linejoin="round" stroke-width=".32" stroke-opacity="1" fill-opacity="0" class="fg" xmlns="http://www.w3.org/2000/svg"/>
<path d="m77.7 508s1.2-2.37 1.11-3.12c-0.0563-0.47-0.39-1.01-0.542-1.26-0.178-0.298-0.542-0.886-0.542-0.886" stroke="white" stroke-linecap="round" stroke-linejoin="round" stroke-width=".32" stroke-opacity="1" fill-opacity="0" class="fg" xmlns="http://www.w3.org/2000/svg"/>
</svg>