<?xml version="1.0" encoding="UTF-8" standalone="no"?>
<svg
   width="94.5"
   height="81.4"
   preserveAspectRatio="xMidYMin"
   version="1.1"
   viewBox="0 0 94.5 81.4"
   id="svg60"
   sodipodi:docname="menu_inkscape.svg"
   inkscape:version="1.4 (e7c3feb100, 2024-10-09)"
   xmlns:inkscape="http://www.inkscape.org/namespaces/inkscape"
   xmlns:sodipodi="http://sodipodi.sourceforge.net/DTD/sodipodi-0.dtd"
   xmlns:xlink="http://www.w3.org/1999/xlink"
   xmlns="http://www.w3.org/2000/svg"
   xmlns:svg="http://www.w3.org/2000/svg">
  <sodipodi:namedview
     id="namedview60"
     pagecolor="#ffffff"
     bordercolor="#000000"
     borderopacity="0.25"
     inkscape:showpageshadow="2"
     inkscape:pageopacity="0.0"
     inkscape:pagecheckerboard="0"
     inkscape:deskcolor="#d1d1d1"
     inkscape:zoom="6.0651538"
     inkscape:cx="47.319493"
     inkscape:cy="40.80688"
     inkscape:window-width="1247"
     inkscape:window-height="1011"
     inkscape:window-x="336"
     inkscape:window-y="32"
     inkscape:window-maximized="0"
     inkscape:current-layer="clickables-finished" />
  <defs
     id="defs3">
    <linearGradient
       id="linearGradient41">
      <stop
         stop-color="#fff"
         stop-opacity=".8281"
         offset="0"
         id="stop1" />
      <stop
         stop-color="#fff"
         offset="1"
         id="stop2" />
    </linearGradient>
    <linearGradient
       id="linearGradient42"
       x1="47.904"
       x2="47.676"
       y1="15.34"
       y2="20.605"
       gradientTransform="matrix(.61569 0 0 2.593 12.963 -32.584)"
       gradientUnits="userSpaceOnUse"
       xlink:href="#linearGradient41" />
    <linearGradient
       id="linearGradient63"
       x1="47.904"
       x2="47.676"
       y1="15.34"
       y2="20.605"
       gradientUnits="userSpaceOnUse"
       xlink:href="#linearGradient41" />
    <linearGradient
       id="linearGradient65"
       x1=".10393"
       x2="94.5"
       y1="28.492"
       y2="28.492"
       gradientUnits="userSpaceOnUse"
       gradientTransform="translate(0,0.57103499)">
      <stop
         stop-color="#eed7f4"
         stop-opacity=".18763"
         offset="0"
         id="stop3" />
    </linearGradient>
  </defs>
  <g
     id="shared-menu"
     transform="matrix(1 0 0 1.0504 0 37.705)">
    <rect
       x="0.10393"
       y="28.492001"
       width="94.646004"
       height="13.351"
       fill="#757967"
       stroke-width="0.85527"
       id="shared-menu-background"
       style="display:inline" />
    <g
       id="view-status"
       transform="matrix(0.77761,0,0,0.77761,14.051,6.1929998)">
      <text
         id="txt-status"
         x="77.486847"
         y="43.800529"
         fill="#ffffff"
         font-family="'Devanagari Sangam MN'"
         font-size="2.5192px"
         font-weight="bold"
         letter-spacing=".16627px"
         stroke-linecap="round"
         stroke-miterlimit="4.1"
         stroke-width=".6"
         text-align="center"
         text-anchor="middle"
         word-spacing=".0094471px"
         style="line-height:1.2;mix-blend-mode:normal"
         xml:space="preserve"><tspan
           x="77.569984"
           y="43.800529"
           fill="#ffffff"
           font-size="2.5192px"
           stroke-width=".6"
           id="tspan13">STATUS</tspan></text>
      <g
         id="view-status-icon"
         transform="translate(-.011661)">
        <g
           fill="none"
           stroke="#fff"
           stroke-linecap="round"
           stroke-linejoin="round"
           stroke-miterlimit="4.1"
           stroke-width=".23"
           id="g15">
          <path
             d="m74.519 35.646v-0.3494h1.7828v0.32913"
             id="path13" />
          <path
             d="m78.668 35.646v-0.3494h1.7828v0.32913"
             id="path14" />
          <path
             d="m75.408 35.163v-0.3494h4.1475v0.32913"
             id="path15" />
        </g>
        <g
           fill="#fff"
           id="g18">
          <rect
             x="73.899"
             y="35.673"
             width="1.2383"
             height="3.2112"
             rx="0"
             ry="0"
             id="rect15" />
          <rect
             x="75.669"
             y="35.673"
             width="1.2383"
             height="3.2112"
             rx="0"
             ry="0"
             id="rect16" />
          <rect
             x="78.062"
             y="35.673"
             width="1.2383"
             height="3.2112"
             rx="0"
             ry="0"
             id="rect17" />
          <rect
             x="79.832"
             y="35.673"
             width="1.2383"
             height="3.2112"
             rx="0"
             ry="0"
             id="rect18" />
        </g>
        <path
           d="m77.491 33.852v0.91525"
           fill="none"
           stroke="#fff"
           stroke-linejoin="round"
           stroke-miterlimit="4.1"
           stroke-width=".23"
           id="path18" />
        <path
           transform="matrix(.86369 -.21822 .21822 .86369 3.6449 21.753)"
           d="m78.613 32.883-0.83549 0.48357-0.0753 0.9624-0.71808-0.64516-0.93856 0.22579 0.39169-0.8823-0.50477-0.82285 0.96016 0.09987 0.6266-0.73434 0.20172 0.94403z"
           fill="#fff"
           id="path19" />
      </g>
      <rect
         id="view-status-clickable"
         x="69.164"
         y="30.035"
         width="16.733"
         height="14.431"
         fill="#eed7f4"
         fill-opacity=".18763"
         stroke="#d40055"
         stroke-dasharray="0.0441597, 0.176638"
         stroke-width=".04416" />
    </g>
    <g
       id="view-home-text"
       transform="matrix(0.77761,0,0,0.77761,10.757,6.1929998)"
       stroke-miterlimit="4.1"
       inkscape:label="view-home">
      <text
         x="47.12582"
         y="43.800529"
         fill="#ffffff"
         font-family="'Devanagari Sangam MN'"
         font-size="2.5192px"
         font-weight="bold"
         letter-spacing=".16627px"
         stroke-linecap="round"
         stroke-width=".6"
         text-align="center"
         text-anchor="middle"
         word-spacing=".0094471px"
         style="line-height:1.2;mix-blend-mode:normal"
         xml:space="preserve"
         id="txt-home"><tspan
           x="47.208954"
           y="43.800529"
           fill="#ffffff"
           font-size="2.5192px"
           stroke-width=".6"
           id="tspan3">HOME</tspan></text>
      <path
         id="view-home-icon"
         d="m47.026 32.27c-0.04958 0.0024-0.09751 0.01542-0.14108 0.04031l-3.5388 2.0216c-0.17426 0.09956-0.20948 0.34903-0.07855 0.55914l0.02481 0.03979c0.13093 0.21011 0.37661 0.29903 0.55087 0.19947l0.22376-0.12764h0.02584c-0.0073 0.0359-0.01292 0.07283-0.01292 0.11162v3.1517c0 0.25209 0.16381 0.45527 0.36742 0.45527h1.8827v-2.2018h1.6801v2.2018h1.9139c0.20361 0 0.36742-0.20318 0.36742-0.45527v-3.1517c0-0.03286-0.0035-0.06475-0.0088-0.0956l0.19585 0.11162c0.17426 0.09956 0.41994 0.01064 0.55087-0.19947l0.02481-0.03979c0.13093-0.21011 0.09623-0.45958-0.07803-0.55914l-3.5388-2.0216c-0.08267-0.04723-0.18152-0.05163-0.27647-0.02119-0.04491-0.0144-0.09036-0.02125-0.13488-0.01912z"
         fill="#fff"
         stroke-linejoin="round"
         stroke-width="1.3" />
      <rect
         id="view-home-clickable"
         x="38.52"
         y="30.193"
         width="17.545"
         height="14.471"
         fill="#f6d5ff"
         fill-opacity=".15052"
         stroke="#d40055"
         stroke-dasharray="0.0452804, 0.18112"
         stroke-width=".04528"
         style="mix-blend-mode:normal" />
    </g>
    <g
       id="view-schedule"
       transform="matrix(0.77761,0,0,0.77761,6.6823,6.1929998)">
      <text
         x="18.343159"
         y="43.800529"
         fill="#ffffff"
         font-family="'Devanagari Sangam MN'"
         font-size="2.5192px"
         font-weight="bold"
         letter-spacing=".16627px"
         stroke-linecap="round"
         stroke-miterlimit="4.1"
         stroke-width=".6"
         text-align="center"
         text-anchor="middle"
         word-spacing=".0094471px"
         style="line-height:1.2;mix-blend-mode:normal"
         xml:space="preserve"
         id="txt-schedule"><tspan
           x="18.426294"
           y="43.800529"
           fill="#ffffff"
           font-size="2.5192px"
           stroke-width=".6"
           id="tspan4">SCHEDULE</tspan></text>
      <g
         id="view-schedule-icon"
         transform="matrix(1.077,0,0,1.0769,-11.165,-2.7506)"
         stroke-width=".92856">
        <rect
           x="24.176"
           y="32.848"
           width="5.5033"
           height="4.77"
           rx=".47384"
           ry=".51898"
           fill="#fff"
           id="rect4" />
        <circle
           cx="29.33"
           cy="37.867"
           r="1.5022"
           fill="#fff"
           stroke="#50614d"
           stroke-linejoin="round"
           stroke-miterlimit="4.1"
           stroke-width=".27857"
           id="circle4" />
        <g
           stroke-width=".92856"
           id="g11">
          <g
             id="sched-darkarea">
            <g
               fill="#53614f"
               id="g9">
              <rect
                 x="24.861"
                 y="34.842"
                 width=".96228"
                 height=".81106"
                 rx=".19266"
                 ry=".1562"
                 id="rect5" />
              <rect
                 x="26.453"
                 y="34.842"
                 width=".96228"
                 height=".81106"
                 rx=".19266"
                 ry=".1562"
                 id="rect6" />
              <rect
                 x="28.008"
                 y="34.842"
                 width=".96228"
                 height=".81106"
                 rx=".19266"
                 ry=".1562"
                 id="rect7" />
              <rect
                 x="24.861"
                 y="36.175"
                 width=".96228"
                 height=".81106"
                 rx=".19266"
                 ry=".1562"
                 id="rect8" />
              <rect
                 x="26.453"
                 y="36.175"
                 width=".96228"
                 height=".81106"
                 rx=".19266"
                 ry=".1562"
                 id="rect9" />
            </g>
            <path
               d="m23.928 34.123h5.9779"
               fill="#fff"
               stroke="#50614d"
               stroke-linecap="round"
               stroke-linejoin="round"
               stroke-miterlimit="4.1"
               stroke-width=".27857"
               id="path9" />
            <path
               d="m29.351 36.986v0.8656h0.65668"
               fill="none"
               stroke="#50614d"
               stroke-linecap="round"
               stroke-linejoin="round"
               stroke-miterlimit="4.1"
               stroke-width=".27857"
               id="path10" />
            <rect
               x="25.118"
               y="32.025"
               width="1.1634"
               height="1.5015"
               rx=".40959"
               ry=".33855"
               fill="#53614f"
               id="rect10" />
            <rect
               x="27.601"
               y="32.025"
               width="1.1634"
               height="1.5015"
               rx=".40959"
               ry=".33855"
               fill="#53614f"
               id="rect11" />
          </g>
        </g>
        <rect
           x="25.393"
           y="32.298"
           width=".61422"
           height=".95576"
           rx=".19266"
           ry=".1562"
           fill="#fff"
           id="rect12" />
        <rect
           x="27.875"
           y="32.298"
           width=".61422"
           height=".95576"
           rx=".19266"
           ry=".1562"
           fill="#fff"
           id="rect13" />
      </g>
      <rect
         id="view-schedule-clickable"
         x="9.286"
         y="30.236"
         width="17.545"
         height="14.471"
         fill="#f6d5ff"
         fill-opacity=".15052"
         stroke="#d40055"
         stroke-dasharray="0.0452804, 0.181119"
         stroke-width=".04528"
         style="mix-blend-mode:normal" />
    </g>
    <path
       d="m 0.10393,29.063035 h 94.396"
       fill="url(#linearGradient65)"
       fill-opacity="0.18763"
       stroke="#ffffff"
       stroke-opacity="0.25773"
       stroke-width="0.22051"
       id="share-divider"
       inkscape:label="shared-divder"
       style="fill:url(#linearGradient65)" />
  </g>
  <g
     id="view-panel-schedule"
     inkscape:label="view-panel-schedule"
     style="display:inline">
    <g
       id="options-schedule"
       transform="translate(0,39.091)"
       style="display:none">
      <g
         id="option-nextup"
         style="display:inline">
        <rect
           x="5.6209998"
           y="0.3529"
           width="83.612"
           height="16.049"
           rx="1.5203"
           ry="1.6666"
           fill="#ffffff"
           stroke="#50614d"
           stroke-linecap="round"
           stroke-miterlimit="4.1"
           stroke-width="0.5"
           id="option-nextup-background"
           style="display:inline;fill:#deaa87" />
        <g
           id="clickables-nextup"
           style="display:inline">
          <g
             id="sn-clickable-officials"
             style="display:inline">
            <path
               id="icon-official"
               d="M 76.922,9.8474 C 76.82245,9.78425 76.88549,7.7538 76.99386,7.5327 77.1045,7.30703 77.28617,7.09995 77.48246,6.97577 77.60021,6.901273 77.6199,6.87419 77.60644,6.80518 77.58646,6.70277 77.87134,6.40242 77.97051,6.42134 78.0758,6.441422 78.06355,6.57348 77.94474,6.69903 77.8409,6.80876 77.83991,6.8122 77.91776,6.792734 77.96221,6.781617 78.17679,6.772323 78.39459,6.77208 78.76891,6.7716628 78.7906,6.7681 78.7906,6.706983 c 0,-0.052479 -0.02155,-0.064655 -0.11444,-0.064655 -0.34962,0 -0.57912,-0.34474 -0.43955,-0.66026 0.11063,-0.25009 0.19376,-0.27941 0.76412,-0.2695 0.48492,0.00842 0.48492,0.00842 0.49427,0.25395 0.01065,0.27973 0.007,0.28522 -0.24373,0.36702 -0.27689,0.090328 -0.15064,0.17948 0.25415,0.17948 0.71042,0 1.0404,-0.40743 1.0573,-1.3054 0.01377,-0.732 -0.03559,-0.82823 -0.42478,-0.82823 -0.22682,0 -0.28052,-0.021565 -0.28052,-0.11265 0,-0.25658 0.64204,-0.16599 0.83686,0.11807 0.20196,0.29446 0.3181,-0.093573 0.16429,-0.54891 -0.07842,-0.23218 -0.06802,-0.29703 0.04765,-0.29703 0.14885,0 0.29948,0.46789 0.26381,0.81946 -0.01608,0.15845 -0.0087,0.20235 0.04531,0.27106 0.17544,0.22303 -0.01245,0.69721 -0.30539,0.77073 -0.06238,0.015657 -0.07934,0.05109 -0.10842,0.22657 -0.05086,0.30693 -0.17026,0.53789 -0.39344,0.76107 -0.26736,0.26736 -0.27442,0.37593 -0.02536,0.39027 0.23338,0.013437 0.23279,0.062664 -0.0065,0.54002 -0.22226,0.44339 -0.21215,0.43741 -0.52504,0.31027 -0.10939,-0.044451 -0.20302,-0.080819 -0.20807,-0.080819 -0.005,0 -0.01345,0.10394 -0.01867,0.23099 -0.01699,0.41319 -0.2283,0.41319 -0.24529,0 -0.0052,-0.12704 -0.01363,-0.23099 -0.01867,-0.23099 -0.005,0 -0.09868,0.036369 -0.20807,0.080819 -0.29077,0.11815 -0.31266,0.11232 -0.4268,-0.11379 -0.07969,-0.15786 -0.09157,-0.20707 -0.06293,-0.26058 0.05321,-0.099423 0.16594,-0.066861 0.23287,0.067263 0.06394,0.12814 0.06143,0.12738 0.22808,0.069149 0.15044,-0.052561 0.14873,-0.057535 -0.08466,-0.24692 -0.18805,-0.15259 -0.18805,-0.15259 -0.64655,-0.13993 -0.91258,0.025199 -1.252,0.35229 -1.2774,1.231 -0.01283,0.44451 -0.01283,0.44451 0.34644,0.44451 0.35927,0 0.35927,0 0.35927,-0.13901 0,-0.20262 0.14578,-0.30238 0.22516,-0.15407 0.10677,0.19951 0.02838,1.4892 -0.09052,1.4892 -0.11817,0 -0.13464,-0.06406 -0.13464,-0.52371 0,-0.44612 0,-0.44612 -0.3556,-0.44612 -0.3556,0 -0.3556,0 -0.3556,0.44612 0,0.49954 -0.03521,0.59266 -0.18757,0.49602 z m 3.2259,-2.5899 c 0.15889,-0.31476 0.104,-0.34709 -0.1876,-0.11049 -0.22535,0.18284 -0.20736,0.26423 0.06637,0.3004 0.01308,0.00173 0.06763,-0.083728 0.12123,-0.1899 z M 79.77644,6.99323 C 79.98472,6.82633 80.08456,6.62935 79.93016,6.68997 79.89905,6.702186 79.78994,6.727118 79.6877,6.745374 79.51082,6.77696 79.23069,6.751694 79.07347,6.68997 78.90908,6.625429 79.02129,6.82964 79.24939,7.01012 79.51301,7.2187 79.49432,7.2193 79.77643,6.99323 Z M 78.84786,6.29584 c 0.06537,-0.069311 0.1765,-0.14118 0.26244,-0.16972 0.31734,-0.10539 0.23089,-0.19498 -0.18813,-0.19498 -0.41104,0 -0.48716,0.037521 -0.48716,0.24011 0,0.24041 0.23635,0.31174 0.41286,0.12459 z m 2.1569,-1.2692 c 0.08831,-0.17077 0.04558,-0.2916 -0.10311,-0.2916 -0.07054,0 -0.07435,0.011664 -0.07435,0.22743 0,0.2521 0.06764,0.27655 0.17747,0.064165 z m -0.04702,4.786 c -0.10677,-0.19951 -0.02838,-1.4892 0.09052,-1.4892 0.09223,0 0.13464,0.068227 0.13464,0.2166 0,0.13901 0,0.13901 0.35878,0.13901 0.35878,0 0.35878,0 0.34712,-0.42834 -0.01983,-0.72863 -0.28544,-1.1017 -0.87053,-1.2227 -0.26285,-0.054361 -0.34063,-0.2563 -0.09871,-0.2563 0.40395,0 0.88148,0.3365 1.0954,0.77186 0.12582,0.2561 0.16152,2.2771 0.0409,2.3154 -0.1399,0.0444 -0.16171,-0.02372 -0.16171,-0.50501 0,-0.44863 0,-0.44863 -0.3556,-0.44863 -0.3556,0 -0.3556,0 -0.3556,0.44612 0,0.45965 -0.01647,0.52371 -0.13464,0.52371 -0.03138,0 -0.07211,-0.02814 -0.09052,-0.06253 z m -1.305,-0.92885 C 79.59697,8.828024 79.63377,8.71196 79.71356,8.69193 79.77474,8.676574 79.82443,8.614661 79.90672,8.45126 80.0525,8.16179 80.04759,8.16309 80.37892,8.3255 c 0.29077,0.14252 0.34871,0.20545 0.29005,0.31505 -0.02219,0.041471 -0.02174,0.071789 0.0014,0.09495 0.01871,0.018714 0.02433,0.064585 0.01247,0.10194 -0.02167,0.068264 -0.96574,0.11075 -1.0301,0.046358 z m 0.75431,-0.24725 c 0,-0.034367 -0.18765,-0.15146 -0.24272,-0.15146 -0.0078,0 -0.03681,0.043642 -0.06439,0.096983 -0.05015,0.096983 -0.05015,0.096983 0.12848,0.096983 0.12605,0 0.17863,-0.012512 0.17863,-0.042504 z m -3.1305,-2.3781 C 77.25277,6.243366 77.23822,6.19631 77.24422,6.15387 c 0.01479,-0.1046 0.55087,-0.12247 0.57079,-0.019037 0.02558,0.13284 -0.37781,0.22544 -0.53846,0.12361 z M 77.74381,5.77341 C 77.58342,5.61057 77.56353,5.53146 77.66666,5.46652 c 0.04637,-0.0292 0.08365,-0.0079 0.21821,0.12463 0.16568,0.16318 0.20741,0.28352 0.11115,0.32046 -0.08185,0.031407 -0.08905,0.02746 -0.25222,-0.1382 z m 2.2833,0.11741 C 80.00933,5.868595 79.98476,5.817712 79.97251,5.77775 79.96026,5.737786 79.91445,5.696107 79.87072,5.68513 79.75999,5.657339 79.71376,5.56241 79.77912,5.49705 c 0.1303,-0.1303 0.43405,0.06093 0.43405,0.27327 0,0.136 -0.11438,0.21008 -0.18605,0.1205 z m -1.7998,-0.366 c -0.02794,-0.02794 -0.0508,-0.062732 -0.0508,-0.077315 0,-0.014583 -0.03525,-0.035361 -0.07833,-0.046173 -0.29779,-0.074742 -0.48665,-0.54695 -0.30905,-0.77274 0.05466,-0.069495 0.06185,-0.11144 0.04446,-0.25943 -0.11269,-0.95883 0.93384,-1.8373 1.9593,-1.6446 0.44874,0.084304 0.95095,0.38024 0.93143,0.54886 -0.01416,0.12233 -0.10592,0.12838 -0.24752,0.01632 -0.94642,-0.74899 -2.3336,-0.22483 -2.3908,0.90339 -0.01384,0.27294 0.06204,0.45422 0.11766,0.2811 0.04338,-0.13501 0.28128,-0.31311 0.44892,-0.33606 0.20608,-0.028213 0.39062,-0.19895 0.33247,-0.3076 -0.11385,-0.21273 0.09705,-0.66987 0.29603,-0.64169 0.10175,0.014411 0.12398,0.16886 0.03144,0.21839 -0.2028,0.10854 -0.1457,0.3779 0.1167,0.55047 0.29351,0.19303 0.20534,0.38095 -0.10188,0.21713 -0.16279,-0.086803 -0.16279,-0.086803 -0.23596,0.00669 -0.07865,0.1005 -0.28342,0.19797 -0.41591,0.19797 -0.198,0 -0.24033,0.11037 -0.24033,0.62661 0,0.46567 -0.02358,0.56951 -0.12931,0.56951 -0.01524,0 -0.05057,-0.02286 -0.07851,-0.050801 z m -0.0508,-0.56557 c 0,-0.22812 -1.2e-4,-0.22843 -0.08564,-0.21821 -0.16838,0.020112 -0.18288,0.2134 -0.02766,0.36862 0.10967,0.10967 0.1133,0.10485 0.1133,-0.15041 z m 0.51853,0.084518 c -0.05214,-0.06282 -0.0117,-0.17935 0.06223,-0.17935 0.04568,0 0.05808,-0.02293 0.05439,-0.10061 -0.0031,-0.065303 0.01555,-0.11352 0.05313,-0.13739 0.08918,-0.05665 0.43061,0.30233 0.3791,0.39858 -0.04486,0.083815 -0.48245,0.098789 -0.54885,0.018781 z m 1.065,-0.018781 c -0.05151,-0.096252 0.28992,-0.45523 0.3791,-0.39858 0.03758,0.023871 0.05622,0.07209 0.05313,0.13739 -0.0037,0.077684 0.0087,0.10061 0.05439,0.10061 0.07393,0 0.11437,0.11653 0.06223,0.17935 -0.0664,0.080008 -0.504,0.065034 -0.54885,-0.018781 z m 0.11745,-1.1457 c -0.15877,-0.056588 -0.38124,-0.26954 -0.36865,-0.35288 0.01929,-0.12776 0.11206,-0.13952 0.22654,-0.028718 0.15367,0.14873 0.3188,0.20907 0.5047,0.18441 0.11736,-0.015568 0.16348,-0.00863 0.19498,0.029311 0.13668,0.16469 -0.2445,0.27946 -0.55756,0.16788 z" />
            <text
               id="text-officials"
               x="79.467072"
               y="13.94292"
               fill="#000000"
               font-family="'Devanagari Sangam MN'"
               font-size="2.2255px"
               font-weight="bold"
               letter-spacing="0.14689px"
               stroke-linecap="round"
               stroke-miterlimit="4.1"
               stroke-width="0.6"
               text-align="center"
               text-anchor="middle"
               word-spacing="0.0083458px"
               style="line-height:1.2;mix-blend-mode:darken"
               xml:space="preserve"><tspan
                 x="79.540512"
                 y="13.94292"
                 fill="#000000"
                 font-size="2.2255px"
                 stroke-width="0.6"
                 id="tspan20">OFFICIALS</tspan></text>
            <rect
               id="icon-official-text-clickable"
               x="70.099998"
               y="1.4134001"
               width="17.66"
               height="13.78"
               fill="#ffaaee"
               fill-opacity="0.25773" />
          </g>
          <g
             id="sn-clickable-start"
             style="display:inline">
            <text
               id="text-start"
               x="15.551921"
               y="13.94292"
               fill="#87ac00"
               font-family="'Devanagari Sangam MN'"
               font-size="2.2255px"
               font-weight="bold"
               letter-spacing="0.14689px"
               stroke-linecap="round"
               stroke-miterlimit="4.1"
               stroke-width="0.6"
               text-align="center"
               text-anchor="middle"
               word-spacing="0.0083458px"
               style="line-height:1.2"
               xml:space="preserve"><tspan
                 x="15.625364"
                 y="13.94292"
                 fill="#87ac00"
                 font-size="2.2255px"
                 stroke-width="0.6"
                 id="tspan21">START</tspan></text>
            <g
               id="icon-start">
              <g
                 fill="#87ac00"
                 stroke-miterlimit="4.1"
                 stroke-width="0.5"
                 id="g21">
                <circle
                   cx="15.632"
                   cy="6.2793002"
                   r="3.5669999"
                   id="circle21" />
                <path
                   d="M 14.498,4.4591 17.5021,6.2792 14.498,8.0993 Z"
                   stroke="#ffffff"
                   stroke-linecap="round"
                   stroke-linejoin="round"
                   id="path21" />
              </g>
            </g>
            <rect
               id="icon-start-text-clickable"
               x="9.3156004"
               y="1.3573999"
               width="12.793"
               height="13.78"
               fill="#ffaaee"
               fill-opacity="0.25773" />
          </g>
          <g
             id="sn-clickable-move"
             style="display:inline">
            <g
               id="text-move"
               transform="translate(0.47614,-0.44321)">
              <text
                 x="36.322109"
                 y="14.386132"
                 fill="#000000"
                 font-family="'Devanagari Sangam MN'"
                 font-size="2.2255px"
                 font-weight="bold"
                 letter-spacing="0.14689px"
                 stroke-linecap="round"
                 stroke-miterlimit="4.1"
                 stroke-width="0.6"
                 text-align="center"
                 text-anchor="middle"
                 word-spacing="0.0083458px"
                 style="line-height:1.2;mix-blend-mode:darken"
                 xml:space="preserve"
                 id="text22"><tspan
                   x="36.395554"
                   y="14.386132"
                   fill="#000000"
                   font-size="2.2255px"
                   stroke-width="0.6"
                   id="tspan22">MOVE</tspan></text>
            </g>
            <g
               id="icon-move"
               transform="translate(-7.9119)"
               fill="none"
               stroke="#000000"
               stroke-linecap="round"
               stroke-miterlimit="4.1"
               stroke-width="0.8">
              <path
                 d="M 42.761,8.5187 C 42.18788,7.94558 41.8334,7.1538 41.8334,6.2793 c 0,-1.7491 1.4179,-3.167 3.167,-3.167 1.7491,1e-7 3.167,1.4179 3.167,3.167 0,1.7491 -1.4179,3.167 -3.167,3.167"
                 id="path22" />
              <g
                 stroke-linejoin="round"
                 id="g25">
                <path
                   d="m 45.861,7.1041 -1,-0.7307 V 4.4227"
                   id="path23" />
                <path
                   d="M 42.732,8.6749 43.17713,7.3415"
                   id="path24" />
                <path
                   d="M 42.699,8.6898 41.3225,8.40466"
                   id="path25" />
              </g>
            </g>
            <rect
               x="30.593"
               y="1.5757"
               width="12.793"
               height="13.78"
               fill="#ffaaee"
               fill-opacity="0.25773"
               id="rect25" />
          </g>
          <g
             id="sn-clickable-notplayed"
             style="display:inline">
            <g
               id="icon-notplayed"
               fill="none"
               stroke="#000000">
              <g
                 transform="matrix(0.95136,0,0,0.95136,42.957,0.30543)"
                 stroke-width="0.8409"
                 id="g26">
                <circle
                   cx="15.632"
                   cy="6.2793002"
                   r="3.5669999"
                   fill="none"
                   stroke="#000000"
                   stroke-miterlimit="4.1"
                   stroke-width="0.8409"
                   id="circle25" />
              </g>
              <path
                 d="M 60.276,4.0227 55.3484,8.5473"
                 stroke-linejoin="round"
                 stroke-miterlimit="4.1"
                 stroke-width="1.3"
                 id="path26" />
            </g>
            <g
               id="text-notplayed"
               transform="translate(21.458,-0.44321)">
              <text
                 x="36.322109"
                 y="14.386132"
                 fill="#000000"
                 font-family="'Devanagari Sangam MN'"
                 font-size="2.2255px"
                 font-weight="bold"
                 letter-spacing="0.14689px"
                 stroke-linecap="round"
                 stroke-miterlimit="4.1"
                 stroke-width="0.6"
                 text-align="center"
                 text-anchor="middle"
                 word-spacing="0.0083458px"
                 style="line-height:1.2;mix-blend-mode:darken"
                 xml:space="preserve"
                 id="text26"><tspan
                   x="36.395554"
                   y="14.386132"
                   fill="#000000"
                   font-size="2.2255px"
                   stroke-width="0.6"
                   id="tspan26">NOT PLAYED</tspan></text>
            </g>
            <rect
               x="49.575001"
               y="1.2512"
               width="17.66"
               height="13.78"
               fill="#ffaaee"
               fill-opacity="0.25773"
               id="rect26" />
          </g>
        </g>
        <g
           id="tab-buttons-connect"
           inkscape:label="separator">
          <rect
             x="45.879002"
             y="15.955"
             width="3.2825999"
             height="4.7098999"
             rx="0.022328001"
             ry="0.022328001"
             fill="#ffffff"
             id="rect30" />
          <path
             d="M 31.701,20.678 H 45.622 V 16.1673"
             fill="none"
             stroke="#50614d"
             stroke-miterlimit="4.1"
             stroke-width="0.5"
             id="path30" />
          <path
             d="M 63.163,20.678 H 49.424 v -4.5107"
             fill="none"
             stroke="#50614d"
             stroke-miterlimit="4.1"
             stroke-width="0.5"
             id="path31" />
        </g>
      </g>
      <g
         id="option-finished"
         style="display:none"
         transform="translate(0,-0.0369)">
        <rect
           x="5.6209998"
           y="0.3529"
           width="83.612"
           height="16.049"
           rx="1.5203"
           ry="1.6666"
           fill="#ffffff"
           fill-opacity="0.82658"
           stroke="#50614d"
           stroke-linecap="round"
           stroke-miterlimit="4.1"
           stroke-width="0.5"
           id="option-finished-background"
           style="display:inline;opacity:1;fill:#f4e3d7;fill-opacity:0.680412" />
        <g
           id="clickables-finished"
           style="display:inline">
          <g
             id="sf-clickable-officials">
            <path
               d="M 76.922,9.8474 C 76.82245,9.78425 76.88549,7.7538 76.99386,7.5327 77.1045,7.30703 77.28617,7.09995 77.48246,6.97577 77.60021,6.901273 77.6199,6.87419 77.60644,6.80518 77.58646,6.70277 77.87134,6.40242 77.97051,6.42134 78.0758,6.441422 78.06355,6.57348 77.94474,6.69903 77.8409,6.80876 77.83991,6.8122 77.91776,6.792734 77.96221,6.781617 78.17679,6.772323 78.39459,6.77208 78.76891,6.7716628 78.7906,6.7681 78.7906,6.706983 c 0,-0.052479 -0.02155,-0.064655 -0.11444,-0.064655 -0.34962,0 -0.57912,-0.34474 -0.43955,-0.66026 0.11063,-0.25009 0.19376,-0.27941 0.76412,-0.2695 0.48492,0.00842 0.48492,0.00842 0.49427,0.25395 0.01065,0.27973 0.007,0.28522 -0.24373,0.36702 -0.27689,0.090328 -0.15064,0.17948 0.25415,0.17948 0.71042,0 1.0404,-0.40743 1.0573,-1.3054 0.01377,-0.732 -0.03559,-0.82823 -0.42478,-0.82823 -0.22682,0 -0.28052,-0.021565 -0.28052,-0.11265 0,-0.25658 0.64204,-0.16599 0.83686,0.11807 0.20196,0.29446 0.3181,-0.093573 0.16429,-0.54891 -0.07842,-0.23218 -0.06802,-0.29703 0.04765,-0.29703 0.14885,0 0.29948,0.46789 0.26381,0.81946 -0.01608,0.15845 -0.0087,0.20235 0.04531,0.27106 0.17544,0.22303 -0.01245,0.69721 -0.30539,0.77073 -0.06238,0.015657 -0.07934,0.05109 -0.10842,0.22657 -0.05086,0.30693 -0.17026,0.53789 -0.39344,0.76107 -0.26736,0.26736 -0.27442,0.37593 -0.02536,0.39027 0.23338,0.013437 0.23279,0.062664 -0.0065,0.54002 -0.22226,0.44339 -0.21215,0.43741 -0.52504,0.31027 -0.10939,-0.044451 -0.20302,-0.080819 -0.20807,-0.080819 -0.005,0 -0.01345,0.10394 -0.01867,0.23099 -0.01699,0.41319 -0.2283,0.41319 -0.24529,0 -0.0052,-0.12704 -0.01363,-0.23099 -0.01867,-0.23099 -0.005,0 -0.09868,0.036369 -0.20807,0.080819 -0.29077,0.11815 -0.31266,0.11232 -0.4268,-0.11379 -0.07969,-0.15786 -0.09157,-0.20707 -0.06293,-0.26058 0.05321,-0.099423 0.16594,-0.066861 0.23287,0.067263 0.06394,0.12814 0.06143,0.12738 0.22808,0.069149 0.15044,-0.052561 0.14873,-0.057535 -0.08466,-0.24692 -0.18805,-0.15259 -0.18805,-0.15259 -0.64655,-0.13993 -0.91258,0.025199 -1.252,0.35229 -1.2774,1.231 -0.01283,0.44451 -0.01283,0.44451 0.34644,0.44451 0.35927,0 0.35927,0 0.35927,-0.13901 0,-0.20262 0.14578,-0.30238 0.22516,-0.15407 0.10677,0.19951 0.02838,1.4892 -0.09052,1.4892 -0.11817,0 -0.13464,-0.06406 -0.13464,-0.52371 0,-0.44612 0,-0.44612 -0.3556,-0.44612 -0.3556,0 -0.3556,0 -0.3556,0.44612 0,0.49954 -0.03521,0.59266 -0.18757,0.49602 z m 3.2259,-2.5899 c 0.15889,-0.31476 0.104,-0.34709 -0.1876,-0.11049 -0.22535,0.18284 -0.20736,0.26423 0.06637,0.3004 0.01308,0.00173 0.06763,-0.083728 0.12123,-0.1899 z M 79.77644,6.99323 C 79.98472,6.82633 80.08456,6.62935 79.93016,6.68997 79.89905,6.702186 79.78994,6.727118 79.6877,6.745374 79.51082,6.77696 79.23069,6.751694 79.07347,6.68997 78.90908,6.625429 79.02129,6.82964 79.24939,7.01012 79.51301,7.2187 79.49432,7.2193 79.77643,6.99323 Z M 78.84786,6.29584 c 0.06537,-0.069311 0.1765,-0.14118 0.26244,-0.16972 0.31734,-0.10539 0.23089,-0.19498 -0.18813,-0.19498 -0.41104,0 -0.48716,0.037521 -0.48716,0.24011 0,0.24041 0.23635,0.31174 0.41286,0.12459 z m 2.1569,-1.2692 c 0.08831,-0.17077 0.04558,-0.2916 -0.10311,-0.2916 -0.07054,0 -0.07435,0.011664 -0.07435,0.22743 0,0.2521 0.06764,0.27655 0.17747,0.064165 z m -0.04702,4.786 c -0.10677,-0.19951 -0.02838,-1.4892 0.09052,-1.4892 0.09223,0 0.13464,0.068227 0.13464,0.2166 0,0.13901 0,0.13901 0.35878,0.13901 0.35878,0 0.35878,0 0.34712,-0.42834 -0.01983,-0.72863 -0.28544,-1.1017 -0.87053,-1.2227 -0.26285,-0.054361 -0.34063,-0.2563 -0.09871,-0.2563 0.40395,0 0.88148,0.3365 1.0954,0.77186 0.12582,0.2561 0.16152,2.2771 0.0409,2.3154 -0.1399,0.0444 -0.16171,-0.02372 -0.16171,-0.50501 0,-0.44863 0,-0.44863 -0.3556,-0.44863 -0.3556,0 -0.3556,0 -0.3556,0.44612 0,0.45965 -0.01647,0.52371 -0.13464,0.52371 -0.03138,0 -0.07211,-0.02814 -0.09052,-0.06253 z m -1.305,-0.92885 C 79.59697,8.828024 79.63377,8.71196 79.71356,8.69193 79.77474,8.676574 79.82443,8.614661 79.90672,8.45126 80.0525,8.16179 80.04759,8.16309 80.37892,8.3255 c 0.29077,0.14252 0.34871,0.20545 0.29005,0.31505 -0.02219,0.041471 -0.02174,0.071789 0.0014,0.09495 0.01871,0.018714 0.02433,0.064585 0.01247,0.10194 -0.02167,0.068264 -0.96574,0.11075 -1.0301,0.046358 z m 0.75431,-0.24725 c 0,-0.034367 -0.18765,-0.15146 -0.24272,-0.15146 -0.0078,0 -0.03681,0.043642 -0.06439,0.096983 -0.05015,0.096983 -0.05015,0.096983 0.12848,0.096983 0.12605,0 0.17863,-0.012512 0.17863,-0.042504 z m -3.1305,-2.3781 C 77.25277,6.243366 77.23822,6.19631 77.24422,6.15387 c 0.01479,-0.1046 0.55087,-0.12247 0.57079,-0.019037 0.02558,0.13284 -0.37781,0.22544 -0.53846,0.12361 z M 77.74381,5.77341 C 77.58342,5.61057 77.56353,5.53146 77.66666,5.46652 c 0.04637,-0.0292 0.08365,-0.0079 0.21821,0.12463 0.16568,0.16318 0.20741,0.28352 0.11115,0.32046 -0.08185,0.031407 -0.08905,0.02746 -0.25222,-0.1382 z m 2.2833,0.11741 C 80.00933,5.868595 79.98476,5.817712 79.97251,5.77775 79.96026,5.737786 79.91445,5.696107 79.87072,5.68513 79.75999,5.657339 79.71376,5.56241 79.77912,5.49705 c 0.1303,-0.1303 0.43405,0.06093 0.43405,0.27327 0,0.136 -0.11438,0.21008 -0.18605,0.1205 z m -1.7998,-0.366 c -0.02794,-0.02794 -0.0508,-0.062732 -0.0508,-0.077315 0,-0.014583 -0.03525,-0.035361 -0.07833,-0.046173 -0.29779,-0.074742 -0.48665,-0.54695 -0.30905,-0.77274 0.05466,-0.069495 0.06185,-0.11144 0.04446,-0.25943 -0.11269,-0.95883 0.93384,-1.8373 1.9593,-1.6446 0.44874,0.084304 0.95095,0.38024 0.93143,0.54886 -0.01416,0.12233 -0.10592,0.12838 -0.24752,0.01632 -0.94642,-0.74899 -2.3336,-0.22483 -2.3908,0.90339 -0.01384,0.27294 0.06204,0.45422 0.11766,0.2811 0.04338,-0.13501 0.28128,-0.31311 0.44892,-0.33606 0.20608,-0.028213 0.39062,-0.19895 0.33247,-0.3076 -0.11385,-0.21273 0.09705,-0.66987 0.29603,-0.64169 0.10175,0.014411 0.12398,0.16886 0.03144,0.21839 -0.2028,0.10854 -0.1457,0.3779 0.1167,0.55047 0.29351,0.19303 0.20534,0.38095 -0.10188,0.21713 -0.16279,-0.086803 -0.16279,-0.086803 -0.23596,0.00669 -0.07865,0.1005 -0.28342,0.19797 -0.41591,0.19797 -0.198,0 -0.24033,0.11037 -0.24033,0.62661 0,0.46567 -0.02358,0.56951 -0.12931,0.56951 -0.01524,0 -0.05057,-0.02286 -0.07851,-0.050801 z m -0.0508,-0.56557 c 0,-0.22812 -1.2e-4,-0.22843 -0.08564,-0.21821 -0.16838,0.020112 -0.18288,0.2134 -0.02766,0.36862 0.10967,0.10967 0.1133,0.10485 0.1133,-0.15041 z m 0.51853,0.084518 c -0.05214,-0.06282 -0.0117,-0.17935 0.06223,-0.17935 0.04568,0 0.05808,-0.02293 0.05439,-0.10061 -0.0031,-0.065303 0.01555,-0.11352 0.05313,-0.13739 0.08918,-0.05665 0.43061,0.30233 0.3791,0.39858 -0.04486,0.083815 -0.48245,0.098789 -0.54885,0.018781 z m 1.065,-0.018781 c -0.05151,-0.096252 0.28992,-0.45523 0.3791,-0.39858 0.03758,0.023871 0.05622,0.07209 0.05313,0.13739 -0.0037,0.077684 0.0087,0.10061 0.05439,0.10061 0.07393,0 0.11437,0.11653 0.06223,0.17935 -0.0664,0.080008 -0.504,0.065034 -0.54885,-0.018781 z m 0.11745,-1.1457 c -0.15877,-0.056588 -0.38124,-0.26954 -0.36865,-0.35288 0.01929,-0.12776 0.11206,-0.13952 0.22654,-0.028718 0.15367,0.14873 0.3188,0.20907 0.5047,0.18441 0.11736,-0.015568 0.16348,-0.00863 0.19498,0.029311 0.13668,0.16469 -0.2445,0.27946 -0.55756,0.16788 z"
               id="path32" />
            <text
               x="79.467072"
               y="13.94292"
               fill="#000000"
               stroke-width="0.6"
               text-align="center"
               style="font-weight:bold;font-size:2.2255px;line-height:1.2;font-family:'Devanagari Sangam MN';letter-spacing:0.14689px;word-spacing:0.0083458px;text-anchor:middle;mix-blend-mode:darken;stroke-linecap:round;stroke-miterlimit:4.1"
               xml:space="preserve"
               id="text32"><tspan
                 x="79.540512"
                 y="13.94292"
                 fill="#000000"
                 font-size="2.2255px"
                 stroke-width="0.6"
                 id="tspan32">OFFICIALS</tspan></text>
          </g>
          <g
             id="sf-clickable-start"
             style="display:inline">
            <g
               id="g61">
              <text
                 x="15.551921"
                 y="13.94292"
                 fill="#216e0f"
                 stroke="#ffffff"
                 stroke-width="0.22299"
                 text-align="center"
                 style="font-weight:bold;font-size:2.2255px;line-height:1.2;font-family:'Devanagari Sangam MN';letter-spacing:0.14689px;word-spacing:0.0083458px;text-anchor:middle;stroke-linecap:round;stroke-miterlimit:4.1"
                 xml:space="preserve"
                 id="text33"><tspan
                   x="15.625364"
                   y="13.94292"
                   fill="#216e0f"
                   font-size="2.2255px"
                   stroke="#ffffff"
                   stroke-width="0.22299"
                   id="tspan33">START</tspan></text>
              <text
                 x="15.551921"
                 y="13.94292"
                 fill="#000000"
                 stroke="#000000"
                 stroke-width="0.071811"
                 text-align="center"
                 style="font-weight:bold;font-size:2.2255px;line-height:1.2;font-family:'Devanagari Sangam MN';letter-spacing:0.14689px;word-spacing:0.0083458px;text-anchor:middle;fill:#35af18;fill-opacity:1;stroke:#35af18;stroke-linecap:round;stroke-miterlimit:4.1;stroke-opacity:1"
                 xml:space="preserve"
                 id="text34"><tspan
                   x="15.625364"
                   y="13.94292"
                   fill="#000000"
                   font-size="2.2255px"
                   stroke="#000000"
                   stroke-width="0.071811"
                   id="tspan34"
                   style="fill:#35af18;fill-opacity:1;stroke:#35af18;stroke-opacity:1">START</tspan></text>
            </g>
            <g
               fill="#35af18"
               stroke-miterlimit="4.1"
               stroke-width="0.5"
               id="g35">
              <circle
                 cx="15.632"
                 cy="6.2793002"
                 r="3.5669999"
                 id="circle34" />
              <path
                 d="M 14.498,4.4591 17.5021,6.2792 14.498,8.0993 Z"
                 stroke="#ffffff"
                 stroke-linecap="round"
                 stroke-linejoin="round"
                 id="path34" />
            </g>
          </g>
          <g
             id="sf-clickable-move"
             style="display:inline">
            <g
               transform="translate(0.47614,-0.44321)"
               id="g36">
              <text
                 x="36.322109"
                 y="14.386132"
                 fill="#000000"
                 font-family="'Devanagari Sangam MN'"
                 font-size="2.2255px"
                 font-weight="bold"
                 letter-spacing="0.14689px"
                 stroke-linecap="round"
                 stroke-miterlimit="4.1"
                 stroke-width="0.6"
                 text-align="center"
                 text-anchor="middle"
                 word-spacing="0.0083458px"
                 style="line-height:1.2;mix-blend-mode:darken"
                 xml:space="preserve"
                 id="text35"><tspan
                   x="36.395554"
                   y="14.386132"
                   fill="#000000"
                   font-size="2.2255px"
                   stroke-width="0.6"
                   id="tspan35">MOVE</tspan></text>
            </g>
            <g
               transform="translate(-7.9119)"
               fill="none"
               stroke="#000000"
               stroke-linecap="round"
               stroke-miterlimit="4.1"
               stroke-width="0.8"
               id="g40">
              <path
                 d="M 42.761,8.5187 C 42.18788,7.94558 41.8334,7.1538 41.8334,6.2793 c 0,-1.7491 1.4179,-3.167 3.167,-3.167 1.7491,1e-7 3.167,1.4179 3.167,3.167 0,1.7491 -1.4179,3.167 -3.167,3.167"
                 id="path36" />
              <g
                 stroke-linejoin="round"
                 id="g39">
                <path
                   d="m 45.861,7.1041 -1,-0.7307 V 4.4227"
                   id="path37" />
                <path
                   d="M 42.732,8.6749 43.17713,7.3415"
                   id="path38" />
                <path
                   d="M 42.699,8.6898 41.3225,8.40466"
                   id="path39" />
              </g>
            </g>
          </g>
          <g
             id="sf-clickable-notplayed">
            <g
               fill="none"
               stroke="#000000"
               id="g42">
              <g
                 transform="matrix(0.95136,0,0,0.95136,42.957,0.30543)"
                 stroke-width="0.8409"
                 id="g41">
                <circle
                   cx="15.632"
                   cy="6.2793002"
                   r="3.5669999"
                   fill="none"
                   stroke="#000000"
                   stroke-miterlimit="4.1"
                   stroke-width="0.8409"
                   id="circle40" />
              </g>
              <path
                 d="M 60.276,4.0227 55.3484,8.5473"
                 stroke-linejoin="round"
                 stroke-miterlimit="4.1"
                 stroke-width="1.3"
                 id="path41" />
            </g>
            <g
               transform="translate(21.458,-0.44321)"
               id="g43">
              <text
                 x="36.322109"
                 y="14.386132"
                 fill="#000000"
                 font-family="'Devanagari Sangam MN'"
                 font-size="2.2255px"
                 font-weight="bold"
                 letter-spacing="0.14689px"
                 stroke-linecap="round"
                 stroke-miterlimit="4.1"
                 stroke-width="0.6"
                 text-align="center"
                 text-anchor="middle"
                 word-spacing="0.0083458px"
                 style="line-height:1.2;mix-blend-mode:darken"
                 xml:space="preserve"
                 id="text42"><tspan
                   x="36.395554"
                   y="14.386132"
                   fill="#000000"
                   font-size="2.2255px"
                   stroke-width="0.6"
                   id="tspan42">NOT PLAYED</tspan></text>
            </g>
          </g>
        </g>
        <g
           transform="translate(-31.59)"
           id="g47"
           inkscape:label="separator"
           style="display:inline">
          <rect
             x="45.879002"
             y="15.955"
             width="3.2825999"
             height="4.7098999"
             rx="0.022328001"
             ry="0.022328001"
             fill="url(#linearGradient63)"
             id="rect46"
             style="fill:url(#linearGradient63)" />
          <path
             d="M 31.701,20.678 H 45.622 V 16.1673"
             fill="none"
             stroke="#50614d"
             stroke-miterlimit="4.1"
             stroke-width="0.5"
             id="path46" />
          <path
             d="M 63.163,20.678 H 49.424 v -4.5107"
             fill="none"
             stroke="#50614d"
             stroke-miterlimit="4.1"
             stroke-width="0.5"
             id="path47" />
        </g>
      </g>
    </g>
    <g
       id="tabs-schedule"
       style="display:none"
       transform="translate(0,39.091)">
      <g
         id="option-schedule-nextup">
        <rect
           id="tab-nextup"
           x="31.697001"
           y="20.440001"
           width="31.462"
           height="8.1012001"
           fill="#ffffff" />
        <text
           id="text-nextup"
           x="47.838947"
           y="25.404963"
           fill="#000000"
           font-family="'Devanagari Sangam MN'"
           font-size="2.666px"
           font-weight="bold"
           letter-spacing="0.17596px"
           stroke-linecap="round"
           stroke-miterlimit="4.1"
           stroke-width="0.6"
           text-align="center"
           text-anchor="middle"
           word-spacing="0.0099975px"
           style="line-height:1.2;mix-blend-mode:darken"
           xml:space="preserve"><tspan
             x="47.926926"
             y="25.404963"
             fill="#000000"
             font-size="2.666px"
             stroke-width="0.6"
             id="tspan27">NEXT UP</tspan></text>
        <rect
           id="option-schedule-nextup-clickable"
           x="34.300999"
           y="21.150999"
           width="26.421"
           height="6.8032999"
           fill="#ffaaee"
           fill-opacity="0.25773" />
      </g>
      <g
         id="option-schedule-finished">
        <rect
           id="tab-finished"
           x="0.10393"
           y="20.440001"
           width="31.462"
           height="8.1012001"
           fill="#484848" />
        <text
           id="text-finished"
           x="15.628773"
           y="25.427729"
           fill="#ffffff"
           font-family="'Devanagari Sangam MN'"
           font-size="2.666px"
           font-weight="bold"
           letter-spacing="0.17596px"
           stroke-linecap="round"
           stroke-miterlimit="4.1"
           stroke-width="0.6"
           text-align="center"
           text-anchor="middle"
           word-spacing="0.0099975px"
           style="line-height:1.2;mix-blend-mode:normal"
           xml:space="preserve"><tspan
             x="15.716751"
             y="25.427729"
             fill="#ffffff"
             font-size="2.666px"
             stroke-width="0.6"
             id="tspan28">FINISHED</tspan></text>
        <rect
           id="option-schedule-finished-clickable"
           x="3.3127"
           y="20.989"
           width="26.421"
           height="6.8032999"
           fill="#ffaaee"
           fill-opacity="0.25773" />
      </g>
      <g
         id="option-schedule-unplayed">
        <rect
           id="tab-unplayed"
           x="63.223999"
           y="20.440001"
           width="31.462"
           height="8.1012001"
           fill="#484848" />
        <text
           id="text-unplayed"
           x="78.372406"
           y="25.404963"
           fill="#ffffff"
           font-family="'Devanagari Sangam MN'"
           font-size="2.666px"
           font-weight="bold"
           letter-spacing="0.17596px"
           stroke-linecap="round"
           stroke-miterlimit="4.1"
           stroke-width="0.6"
           text-align="center"
           text-anchor="middle"
           word-spacing="0.0099975px"
           style="line-height:1.2;mix-blend-mode:normal"
           xml:space="preserve"><tspan
             x="78.460388"
             y="25.404963"
             fill="#ffffff"
             font-size="2.666px"
             stroke-width="0.6"
             id="tspan29">UNPLAYED</tspan></text>
        <rect
           x="65.744003"
           y="21.089001"
           width="26.421"
           height="6.8032999"
           fill="#ffaaee"
           fill-opacity="0.25773"
           id="rect29" />
      </g>
    </g>
  </g>
  <g
     id="view-panel-home"
     style="display:none">
    <g
       id="options-home"
       transform="translate(141.97,29.916)"
       style="display:inline">
      <g
         id="option-personalize"
         transform="translate(-142.07,9.5905)"
         display="inline">
        <g
           id="option-personalize-background"
           display="inline">
          <rect
             x="5.7269001"
             y="-39.073002"
             width="83.400002"
             height="48.303001"
             rx="1.5164"
             ry="1.5959001"
             display="inline"
             fill="#ffffff"
             fill-opacity="0.82658"
             stroke="#50614d"
             stroke-linecap="round"
             stroke-miterlimit="4.1"
             stroke-width="0.86634"
             id="rect48" />
          <text
             x="47.241562"
             y="-31.632795"
             display="inline"
             fill="#484848"
             font-family="'Devanagari Sangam MN'"
             font-size="3.2891px"
             font-weight="bold"
             letter-spacing="0.21708px"
             stroke-linecap="round"
             stroke-miterlimit="4.1"
             stroke-width="0.74023"
             text-align="center"
             text-anchor="middle"
             word-spacing="0.012334px"
             style="line-height:1.2;mix-blend-mode:normal"
             xml:space="preserve"
             id="text48"><tspan
               x="47.350101"
               y="-31.632795"
               fill="#484848"
               font-size="3.2891px"
               stroke-width="0.74023"
               id="tspan48">WHICH ROLE DESCRIBES YOU BEST?</tspan></text>
        </g>
        <g
           transform="translate(0,-2.3056)"
           display="inline"
           id="clickables-personalize"
           style="display:inline">
          <g
             transform="matrix(1.1531,0,0,1.1531,-7.96,9.817)"
             id="hp-clickable-referee">
            <path
               d="m 20.231,-9.2137 c -0.25405,-0.16116 -0.09317,-5.3429 0.18338,-5.907 0.28234,-0.57589 0.74596,-1.1043 1.2469,-1.4213 0.3005,-0.19012 0.35074,-0.25923 0.31638,-0.43534 -0.05099,-0.26134 0.676,-1.0278 0.92908,-0.97954 0.2687,0.05124 0.23743,0.38825 -0.06576,0.70865 -0.26499,0.28002 -0.26752,0.28881 -0.06885,0.23912 0.11343,-0.02838 0.66102,-0.05208 1.2169,-0.0527 0.95523,-0.0011 1.0106,-0.01021 1.0106,-0.16613 0,-0.13393 -0.05499,-0.16498 -0.29203,-0.16498 -0.8922,0 -1.4779,-0.87977 -1.1217,-1.6849 0.28231,-0.63821 0.49445,-0.71303 1.95,-0.68775 1.2375,0.02144 1.2375,0.02144 1.2613,0.64806 0.02718,0.71386 0.01786,0.72788 -0.62198,0.93661 -0.7066,0.23052 -0.38444,0.45803 0.64858,0.45803 1.8129,0 2.6551,-1.0397 2.6982,-3.3313 0.03514,-1.868 -0.09082,-2.1136 -1.084,-2.1136 -0.57883,0 -0.71588,-0.05502 -0.71588,-0.28747 0,-0.65477 1.6384,-0.4236 2.1356,0.30132 0.51538,0.75146 0.81177,-0.23878 0.41927,-1.4008 -0.20012,-0.5925 -0.17358,-0.75801 0.1216,-0.75801 0.37987,0 0.76426,1.194 0.67323,2.0912 -0.04104,0.40437 -0.0222,0.51639 0.11563,0.69174 0.4477,0.56916 -0.03177,1.7792 -0.77933,1.9669 -0.15919,0.03996 -0.20247,0.13038 -0.27667,0.57819 -0.12979,0.78326 -0.43448,1.3727 -1.004,1.9422 -0.68229,0.68229 -0.7003,0.95935 -0.06472,0.99594 0.59558,0.0343 0.59407,0.1599 -0.01659,1.3781 -0.56721,1.1315 -0.5414,1.1163 -1.3399,0.7918 -0.27916,-0.11343 -0.51811,-0.20625 -0.53098,-0.20625 -0.01276,0 -0.03432,0.26526 -0.04764,0.58947 -0.04336,1.0544 -0.58261,1.0544 -0.62597,0 -0.01327,-0.32421 -0.03478,-0.58947 -0.04764,-0.58947 -0.01276,0 -0.25183,0.09281 -0.53098,0.20625 -0.74204,0.30152 -0.7979,0.28663 -1.0892,-0.29039 -0.20336,-0.40284 -0.23368,-0.52843 -0.16059,-0.66499 0.13579,-0.25372 0.42346,-0.17062 0.59426,0.17164 0.16317,0.327 0.15677,0.32505 0.58205,0.17647 0.38391,-0.13413 0.37956,-0.14684 -0.21605,-0.63011 -0.47989,-0.3894 -0.47989,-0.3894 -1.65,-0.35709 -2.3288,0.06431 -3.195,0.89903 -3.2598,3.1413 -0.03274,1.1344 -0.03274,1.1344 0.8841,1.1344 0.91684,0 0.91684,0 0.91684,-0.35474 0,-0.51709 0.37203,-0.77165 0.57459,-0.39317 0.27248,0.50914 0.07242,3.8003 -0.231,3.8003 -0.30156,0 -0.34359,-0.16348 -0.34359,-1.3365 0,-1.1385 0,-1.1385 -0.90748,-1.1385 -0.90748,0 -0.90748,0 -0.90748,1.1385 0,1.2748 -0.08985,1.5124 -0.47866,1.2658 z m 8.2323,-6.6094 c 0.40548,-0.80325 0.26541,-0.88575 -0.47874,-0.28197 -0.57507,0.46659 -0.52918,0.67431 0.16937,0.76659 0.03338,0.0043 0.17259,-0.21367 0.30937,-0.48462 z m -0.94795,-0.6744 c 0.53151,-0.42593 0.7863,-0.9286 0.39227,-0.7739 -0.07939,0.03119 -0.35784,0.09481 -0.61874,0.14138 -0.4514,0.08062 -1.1663,0.01608 -1.5675,-0.14138 -0.41952,-0.1647 -0.13316,0.35642 0.44895,0.817 0.67274,0.53229 0.62505,0.53382 1.345,-0.0431 z m -2.3697,-1.7797 c 0.16682,-0.17688 0.45042,-0.36028 0.66973,-0.43312 0.80982,-0.26894 0.58922,-0.49757 -0.48011,-0.49757 -1.0489,0 -1.2432,0.09575 -1.2432,0.61275 0,0.61352 0.60316,0.79554 1.0536,0.31793 z m 5.5042,-3.239 c 0.22536,-0.4358 0.11632,-0.74414 -0.26314,-0.74414 -0.18001,0 -0.18974,0.02975 -0.18974,0.58039 0,0.64334 0.17261,0.70574 0.45289,0.16376 z m -0.11999,12.214 c -0.27248,-0.50913 -0.07242,-3.8003 0.231,-3.8003 0.23537,0 0.34359,0.17412 0.34359,0.55274 0,0.35474 0,0.35474 0.91558,0.35474 0.91558,0 0.91558,0 0.88583,-1.0931 -0.05061,-1.8594 -0.72842,-2.8115 -2.2216,-3.1203 -0.67078,-0.13872 -0.86926,-0.65405 -0.2519,-0.65405 1.0308,0 2.2495,0.85872 2.7953,1.9697 0.32108,0.65355 0.4122,5.8111 0.10437,5.9088 -0.35701,0.11331 -0.41268,-0.06053 -0.41268,-1.2888 0,-1.1449 0,-1.1449 -0.90748,-1.1449 -0.90748,0 -0.90748,0 -0.90748,1.1385 0,1.173 -0.04203,1.3365 -0.34359,1.3365 -0.08008,0 -0.18402,-0.07181 -0.231,-0.15957 z m -3.3303,-2.3704 c -0.14232,-0.14232 -0.04841,-0.4385 0.15521,-0.48961 0.15613,-0.0392 0.28294,-0.19719 0.49294,-0.61417 0.37201,-0.73872 0.35949,-0.73539 1.205,-0.32094 0.74203,0.36371 0.88988,0.5243 0.7402,0.80398 -0.05663,0.10583 -0.05548,0.1832 0.0036,0.24231 0.04775,0.04775 0.06209,0.1648 0.03182,0.26013 -0.0553,0.1742 -2.4645,0.28262 -2.6288,0.11831 z m 1.925,-0.63096 c 0,-0.08771 -0.47887,-0.38652 -0.61942,-0.38652 -0.01991,0 -0.09394,0.11137 -0.16432,0.24749 -0.12798,0.24749 -0.12798,0.24749 0.32787,0.24749 0.32167,0 0.45586,-0.03192 0.45586,-0.10846 z m -7.9889,-6.0689 c -0.06068,-0.03846 -0.09782,-0.15855 -0.0825,-0.26686 0.03774,-0.26692 1.4058,-0.31255 1.4566,-0.04859 0.06528,0.33899 -0.96415,0.5753 -1.3741,0.31544 z m 1.1924,-1.2378 c -0.4093,-0.41555 -0.46005,-0.61744 -0.19688,-0.78317 0.11833,-0.07452 0.21347,-0.02016 0.55686,0.31805 0.4228,0.41644 0.52931,0.72352 0.28365,0.81779 -0.20888,0.08016 -0.22725,0.07008 -0.64364,-0.35267 z m 5.8267,0.29963 c -0.04537,-0.0567 -0.10808,-0.18657 -0.13934,-0.28855 -0.03126,-0.10198 -0.14817,-0.20834 -0.25977,-0.23636 -0.28257,-0.07092 -0.40056,-0.31317 -0.23376,-0.47996 0.33253,-0.33253 1.1077,0.15549 1.1077,0.69736 0,0.34705 -0.2919,0.53611 -0.47479,0.30751 z m -4.593,-0.934 c -0.0713,-0.0713 -0.12964,-0.16008 -0.12964,-0.19732 0,-0.03721 -0.08996,-0.09024 -0.19989,-0.11782 -0.75995,-0.19073 -1.2419,-1.3958 -0.78868,-1.972 0.13949,-0.17734 0.15784,-0.28438 0.11346,-0.66206 -0.28758,-2.4469 2.3831,-4.6886 5,-4.197 1.1451,0.21513 2.4268,0.97035 2.377,1.4007 -0.03613,0.31217 -0.27031,0.32761 -0.63166,0.04165 -2.4152,-1.9114 -5.9552,-0.57376 -6.1012,2.3054 -0.03532,0.69654 0.15832,1.1592 0.30026,0.71734 0.1107,-0.34455 0.71782,-0.79905 1.1456,-0.85762 0.52591,-0.07199 0.99684,-0.50771 0.84845,-0.78498 -0.29053,-0.54287 0.24767,-1.7095 0.75546,-1.6376 0.25966,0.03677 0.31639,0.43092 0.08023,0.55731 -0.51754,0.27698 -0.37181,0.96437 0.29782,1.4048 0.74902,0.4926 0.52401,0.97216 -0.25998,0.5541 -0.41542,-0.22151 -0.41542,-0.22151 -0.60215,0.0171 -0.20071,0.25648 -0.72327,0.5052 -1.0614,0.5052 -0.50529,0 -0.61332,0.28165 -0.61332,1.5991 0,1.1884 -0.06018,1.4534 -0.32999,1.4534 -0.03889,0 -0.12905,-0.05834 -0.20035,-0.12964 z m -0.12964,-1.4433 c 0,-0.58216 -3.06e-4,-0.58293 -0.21855,-0.55686 -0.42969,0.05132 -0.4667,0.54458 -0.07059,0.94069 0.27987,0.27987 0.28914,0.26757 0.28914,-0.38383 z m 1.3233,0.21569 c -0.13306,-0.16031 -0.02986,-0.4577 0.15881,-0.4577 0.11657,0 0.14822,-0.05852 0.1388,-0.25676 -0.0079,-0.16664 0.03968,-0.2897 0.13558,-0.35062 0.22758,-0.14457 1.0989,0.77152 0.96744,1.0172 -0.11448,0.2139 -1.2312,0.25211 -1.4006,0.04793 z m 2.7177,-0.04792 c -0.13145,-0.24562 0.73985,-1.1617 0.96743,-1.0172 0.0959,0.06091 0.14347,0.18397 0.13558,0.35062 -0.0094,0.19823 0.0222,0.25676 0.1388,0.25676 0.18866,0 0.29186,0.29738 0.15881,0.4577 -0.16945,0.20418 -1.2862,0.16595 -1.4006,-0.04793 z m 0.29973,-2.9237 c -0.40516,-0.14442 -0.97289,-0.68785 -0.94078,-0.90053 0.04923,-0.32603 0.28597,-0.35604 0.57812,-0.07329 0.39216,0.37956 0.81356,0.53353 1.288,0.4706 0.2995,-0.03973 0.4172,-0.02195 0.49756,0.0748 0.3488,0.42028 -0.62396,0.71316 -1.4229,0.42842 z"
               fill="#ff55dd"
               stroke-width="2.5519"
               id="path48" />
            <text
               x="26.765028"
               y="-2.765023"
               fill="#000000"
               font-family="'Devanagari Sangam MN'"
               font-size="2.2255px"
               font-weight="bold"
               letter-spacing="0.14689px"
               stroke-linecap="round"
               stroke-miterlimit="4.1"
               stroke-width="0.6"
               text-align="center"
               text-anchor="middle"
               word-spacing="0.0083458px"
               style="line-height:1.2;mix-blend-mode:darken"
               xml:space="preserve"
               id="text49"><tspan
                 x="26.838469"
                 y="-2.765023"
                 fill="#000000"
                 font-size="2.2255px"
                 stroke-width="0.6"
                 id="tspan49">REFEREE</tspan></text>
          </g>
          <g
             transform="matrix(1.1531,0,0,1.1531,15.996,9.817)"
             id="hp-clickable-pitchcoordinator">
            <path
               d="m 20.231,-9.2137 c -0.25405,-0.16116 -0.09317,-5.3429 0.18338,-5.907 0.28234,-0.57589 0.74596,-1.1043 1.2469,-1.4213 0.3005,-0.19012 0.35074,-0.25923 0.31638,-0.43534 -0.05099,-0.26134 0.676,-1.0278 0.92908,-0.97954 0.2687,0.05124 0.23743,0.38825 -0.06576,0.70865 -0.26499,0.28002 -0.26752,0.28881 -0.06885,0.23912 0.11343,-0.02838 0.66102,-0.05208 1.2169,-0.0527 0.95523,-0.0011 1.0106,-0.01021 1.0106,-0.16613 0,-0.13393 -0.05499,-0.16498 -0.29203,-0.16498 -0.8922,0 -1.4779,-0.87977 -1.1217,-1.6849 0.28231,-0.63821 0.49445,-0.71303 1.95,-0.68775 1.2375,0.02144 1.2375,0.02144 1.2613,0.64806 0.02718,0.71386 0.01786,0.72788 -0.62198,0.93661 -0.7066,0.23052 -0.38444,0.45803 0.64858,0.45803 1.8129,0 2.6551,-1.0397 2.6982,-3.3313 0.03514,-1.868 -0.09082,-2.1136 -1.084,-2.1136 -0.57883,0 -0.71588,-0.05502 -0.71588,-0.28747 0,-0.65477 1.6384,-0.4236 2.1356,0.30132 0.51538,0.75146 0.81177,-0.23878 0.41927,-1.4008 -0.20012,-0.5925 -0.17358,-0.75801 0.1216,-0.75801 0.37987,0 0.76426,1.194 0.67323,2.0912 -0.04104,0.40437 -0.0222,0.51639 0.11563,0.69174 0.4477,0.56916 -0.03177,1.7792 -0.77933,1.9669 -0.15919,0.03996 -0.20247,0.13038 -0.27667,0.57819 -0.12979,0.78326 -0.43448,1.3727 -1.004,1.9422 -0.68229,0.68229 -0.7003,0.95935 -0.06472,0.99594 0.59558,0.0343 0.59407,0.1599 -0.01659,1.3781 -0.56721,1.1315 -0.5414,1.1163 -1.3399,0.7918 -0.27916,-0.11343 -0.51811,-0.20625 -0.53098,-0.20625 -0.01276,0 -0.03432,0.26526 -0.04764,0.58947 -0.04336,1.0544 -0.58261,1.0544 -0.62597,0 -0.01327,-0.32421 -0.03478,-0.58947 -0.04764,-0.58947 -0.01276,0 -0.25183,0.09281 -0.53098,0.20625 -0.74204,0.30152 -0.7979,0.28663 -1.0892,-0.29039 -0.20336,-0.40284 -0.23368,-0.52843 -0.16059,-0.66499 0.13579,-0.25372 0.42346,-0.17062 0.59426,0.17164 0.16317,0.327 0.15677,0.32505 0.58205,0.17647 0.38391,-0.13413 0.37956,-0.14684 -0.21605,-0.63011 -0.47989,-0.3894 -0.47989,-0.3894 -1.65,-0.35709 -2.3288,0.06431 -3.195,0.89903 -3.2598,3.1413 -0.03274,1.1344 -0.03274,1.1344 0.8841,1.1344 0.91684,0 0.91684,0 0.91684,-0.35474 0,-0.51709 0.37203,-0.77165 0.57459,-0.39317 0.27248,0.50914 0.07242,3.8003 -0.231,3.8003 -0.30156,0 -0.34359,-0.16348 -0.34359,-1.3365 0,-1.1385 0,-1.1385 -0.90748,-1.1385 -0.90748,0 -0.90748,0 -0.90748,1.1385 0,1.2748 -0.08985,1.5124 -0.47866,1.2658 z m 8.2323,-6.6094 c 0.40548,-0.80325 0.26541,-0.88575 -0.47874,-0.28197 -0.57507,0.46659 -0.52918,0.67431 0.16937,0.76659 0.03338,0.0043 0.17259,-0.21367 0.30937,-0.48462 z m -0.94795,-0.6744 c 0.53151,-0.42593 0.7863,-0.9286 0.39227,-0.7739 -0.07939,0.03119 -0.35784,0.09481 -0.61874,0.14138 -0.4514,0.08062 -1.1663,0.01608 -1.5675,-0.14138 -0.41952,-0.1647 -0.13316,0.35642 0.44895,0.817 0.67274,0.53229 0.62505,0.53382 1.345,-0.0431 z m -2.3697,-1.7797 c 0.16682,-0.17688 0.45042,-0.36028 0.66973,-0.43312 0.80982,-0.26894 0.58922,-0.49757 -0.48011,-0.49757 -1.0489,0 -1.2432,0.09575 -1.2432,0.61275 0,0.61352 0.60316,0.79554 1.0536,0.31793 z m 5.5042,-3.239 c 0.22536,-0.4358 0.11632,-0.74414 -0.26314,-0.74414 -0.18001,0 -0.18974,0.02975 -0.18974,0.58039 0,0.64334 0.17261,0.70574 0.45289,0.16376 z m -0.11999,12.214 c -0.27248,-0.50913 -0.07242,-3.8003 0.231,-3.8003 0.23537,0 0.34359,0.17412 0.34359,0.55274 0,0.35474 0,0.35474 0.91558,0.35474 0.91558,0 0.91558,0 0.88583,-1.0931 -0.05061,-1.8594 -0.72842,-2.8115 -2.2216,-3.1203 -0.67078,-0.13872 -0.86926,-0.65405 -0.2519,-0.65405 1.0308,0 2.2495,0.85872 2.7953,1.9697 0.32108,0.65355 0.4122,5.8111 0.10437,5.9088 -0.35701,0.11331 -0.41268,-0.06053 -0.41268,-1.2888 0,-1.1449 0,-1.1449 -0.90748,-1.1449 -0.90748,0 -0.90748,0 -0.90748,1.1385 0,1.173 -0.04203,1.3365 -0.34359,1.3365 -0.08008,0 -0.18402,-0.07181 -0.231,-0.15957 z m -3.3303,-2.3704 c -0.14232,-0.14232 -0.04841,-0.4385 0.15521,-0.48961 0.15613,-0.0392 0.28294,-0.19719 0.49294,-0.61417 0.37201,-0.73872 0.35949,-0.73539 1.205,-0.32094 0.74203,0.36371 0.88988,0.5243 0.7402,0.80398 -0.05663,0.10583 -0.05548,0.1832 0.0036,0.24231 0.04775,0.04775 0.06209,0.1648 0.03182,0.26013 -0.0553,0.1742 -2.4645,0.28262 -2.6288,0.11831 z m 1.925,-0.63096 c 0,-0.08771 -0.47887,-0.38652 -0.61942,-0.38652 -0.01991,0 -0.09394,0.11137 -0.16432,0.24749 -0.12798,0.24749 -0.12798,0.24749 0.32787,0.24749 0.32167,0 0.45586,-0.03192 0.45586,-0.10846 z m -7.9889,-6.0689 c -0.06068,-0.03846 -0.09782,-0.15855 -0.0825,-0.26686 0.03774,-0.26692 1.4058,-0.31255 1.4566,-0.04859 0.06528,0.33899 -0.96415,0.5753 -1.3741,0.31544 z m 1.1924,-1.2378 c -0.4093,-0.41555 -0.46005,-0.61744 -0.19688,-0.78317 0.11833,-0.07452 0.21347,-0.02016 0.55686,0.31805 0.4228,0.41644 0.52931,0.72352 0.28365,0.81779 -0.20888,0.08016 -0.22725,0.07008 -0.64364,-0.35267 z m 5.8267,0.29963 c -0.04537,-0.0567 -0.10808,-0.18657 -0.13934,-0.28855 -0.03126,-0.10198 -0.14817,-0.20834 -0.25977,-0.23636 -0.28257,-0.07092 -0.40056,-0.31317 -0.23376,-0.47996 0.33253,-0.33253 1.1077,0.15549 1.1077,0.69736 0,0.34705 -0.2919,0.53611 -0.47479,0.30751 z m -4.593,-0.934 c -0.0713,-0.0713 -0.12964,-0.16008 -0.12964,-0.19732 0,-0.03721 -0.08996,-0.09024 -0.19989,-0.11782 -0.75995,-0.19073 -1.2419,-1.3958 -0.78868,-1.972 0.13949,-0.17734 0.15784,-0.28438 0.11346,-0.66206 -0.28758,-2.4469 2.3831,-4.6886 5,-4.197 1.1451,0.21513 2.4268,0.97035 2.377,1.4007 -0.03613,0.31217 -0.27031,0.32761 -0.63166,0.04165 -2.4152,-1.9114 -5.9552,-0.57376 -6.1012,2.3054 -0.03532,0.69654 0.15832,1.1592 0.30026,0.71734 0.1107,-0.34455 0.71782,-0.79905 1.1456,-0.85762 0.52591,-0.07199 0.99684,-0.50771 0.84845,-0.78498 -0.29053,-0.54287 0.24767,-1.7095 0.75546,-1.6376 0.25966,0.03677 0.31639,0.43092 0.08023,0.55731 -0.51754,0.27698 -0.37181,0.96437 0.29782,1.4048 0.74902,0.4926 0.52401,0.97216 -0.25998,0.5541 -0.41542,-0.22151 -0.41542,-0.22151 -0.60215,0.0171 -0.20071,0.25648 -0.72327,0.5052 -1.0614,0.5052 -0.50529,0 -0.61332,0.28165 -0.61332,1.5991 0,1.1884 -0.06018,1.4534 -0.32999,1.4534 -0.03889,0 -0.12905,-0.05834 -0.20035,-0.12964 z m -0.12964,-1.4433 c 0,-0.58216 -3.06e-4,-0.58293 -0.21855,-0.55686 -0.42969,0.05132 -0.4667,0.54458 -0.07059,0.94069 0.27987,0.27987 0.28914,0.26757 0.28914,-0.38383 z m 1.3233,0.21569 c -0.13306,-0.16031 -0.02986,-0.4577 0.15881,-0.4577 0.11657,0 0.14822,-0.05852 0.1388,-0.25676 -0.0079,-0.16664 0.03968,-0.2897 0.13558,-0.35062 0.22758,-0.14457 1.0989,0.77152 0.96744,1.0172 -0.11448,0.2139 -1.2312,0.25211 -1.4006,0.04793 z m 2.7177,-0.04792 c -0.13145,-0.24562 0.73985,-1.1617 0.96743,-1.0172 0.0959,0.06091 0.14347,0.18397 0.13558,0.35062 -0.0094,0.19823 0.0222,0.25676 0.1388,0.25676 0.18866,0 0.29186,0.29738 0.15881,0.4577 -0.16945,0.20418 -1.2862,0.16595 -1.4006,-0.04793 z m 0.29973,-2.9237 c -0.40516,-0.14442 -0.97289,-0.68785 -0.94078,-0.90053 0.04923,-0.32603 0.28597,-0.35604 0.57812,-0.07329 0.39216,0.37956 0.81356,0.53353 1.288,0.4706 0.2995,-0.03973 0.4172,-0.02195 0.49756,0.0748 0.3488,0.42028 -0.62396,0.71316 -1.4229,0.42842 z"
               fill="#008080"
               stroke-width="2.5519"
               id="path49" />
            <text
               transform="translate(0,-1.8301)"
               x="26.765028"
               y="-4.941988"
               display="inline"
               fill="#000000"
               font-family="'Devanagari Sangam MN'"
               font-size="2.2255px"
               font-weight="bold"
               letter-spacing="0.14689px"
               stroke-linecap="round"
               stroke-miterlimit="4.1"
               stroke-width="0.6"
               text-align="center"
               text-anchor="middle"
               word-spacing="0.0083458px"
               style="line-height:1.2;white-space:pre;inline-size:23.3679;mix-blend-mode:darken"
               xml:space="preserve"
               id="text53"><tspan
                 x="26.765028"
                 y="-4.941988"
                 id="tspan7">
</tspan><tspan
                 x="26.765028"
                 y="-2.2713878"
                 id="tspan9">PITCH<tspan
   dx="-0.0083457557"
   id="tspan8">
</tspan></tspan><tspan
                 x="26.765028"
                 y="0.39921239"
                 id="tspan10">COORDINATOR</tspan></text>
          </g>
          <g
             transform="matrix(1.1531,0,0,1.1531,40.979,9.817)"
             id="hp-clickable-teammanager">
            <path
               d="m 20.231,-9.2137 c -0.25405,-0.16116 -0.09317,-5.3429 0.18338,-5.907 0.28234,-0.57589 0.74596,-1.1043 1.2469,-1.4213 0.3005,-0.19012 0.35074,-0.25923 0.31638,-0.43534 -0.05099,-0.26134 0.676,-1.0278 0.92908,-0.97954 0.2687,0.05124 0.23743,0.38825 -0.06576,0.70865 -0.26499,0.28002 -0.26752,0.28881 -0.06885,0.23912 0.11343,-0.02838 0.66102,-0.05208 1.2169,-0.0527 0.95523,-0.0011 1.0106,-0.01021 1.0106,-0.16613 0,-0.13393 -0.05499,-0.16498 -0.29203,-0.16498 -0.8922,0 -1.4779,-0.87977 -1.1217,-1.6849 0.28231,-0.63821 0.49445,-0.71303 1.95,-0.68775 1.2375,0.02144 1.2375,0.02144 1.2613,0.64806 0.02718,0.71386 0.01786,0.72788 -0.62198,0.93661 -0.7066,0.23052 -0.38444,0.45803 0.64858,0.45803 1.8129,0 2.6551,-1.0397 2.6982,-3.3313 0.03514,-1.868 -0.09082,-2.1136 -1.084,-2.1136 -0.57883,0 -0.71588,-0.05502 -0.71588,-0.28747 0,-0.65477 1.6384,-0.4236 2.1356,0.30132 0.51538,0.75146 0.81177,-0.23878 0.41927,-1.4008 -0.20012,-0.5925 -0.17358,-0.75801 0.1216,-0.75801 0.37987,0 0.76426,1.194 0.67323,2.0912 -0.04104,0.40437 -0.0222,0.51639 0.11563,0.69174 0.4477,0.56916 -0.03177,1.7792 -0.77933,1.9669 -0.15919,0.03996 -0.20247,0.13038 -0.27667,0.57819 -0.12979,0.78326 -0.43448,1.3727 -1.004,1.9422 -0.68229,0.68229 -0.7003,0.95935 -0.06472,0.99594 0.59558,0.0343 0.59407,0.1599 -0.01659,1.3781 -0.56721,1.1315 -0.5414,1.1163 -1.3399,0.7918 -0.27916,-0.11343 -0.51811,-0.20625 -0.53098,-0.20625 -0.01276,0 -0.03432,0.26526 -0.04764,0.58947 -0.04336,1.0544 -0.58261,1.0544 -0.62597,0 -0.01327,-0.32421 -0.03478,-0.58947 -0.04764,-0.58947 -0.01276,0 -0.25183,0.09281 -0.53098,0.20625 -0.74204,0.30152 -0.7979,0.28663 -1.0892,-0.29039 -0.20336,-0.40284 -0.23368,-0.52843 -0.16059,-0.66499 0.13579,-0.25372 0.42346,-0.17062 0.59426,0.17164 0.16317,0.327 0.15677,0.32505 0.58205,0.17647 0.38391,-0.13413 0.37956,-0.14684 -0.21605,-0.63011 -0.47989,-0.3894 -0.47989,-0.3894 -1.65,-0.35709 -2.3288,0.06431 -3.195,0.89903 -3.2598,3.1413 -0.03274,1.1344 -0.03274,1.1344 0.8841,1.1344 0.91684,0 0.91684,0 0.91684,-0.35474 0,-0.51709 0.37203,-0.77165 0.57459,-0.39317 0.27248,0.50914 0.07242,3.8003 -0.231,3.8003 -0.30156,0 -0.34359,-0.16348 -0.34359,-1.3365 0,-1.1385 0,-1.1385 -0.90748,-1.1385 -0.90748,0 -0.90748,0 -0.90748,1.1385 0,1.2748 -0.08985,1.5124 -0.47866,1.2658 z m 8.2323,-6.6094 c 0.40548,-0.80325 0.26541,-0.88575 -0.47874,-0.28197 -0.57507,0.46659 -0.52918,0.67431 0.16937,0.76659 0.03338,0.0043 0.17259,-0.21367 0.30937,-0.48462 z m -0.94795,-0.6744 c 0.53151,-0.42593 0.7863,-0.9286 0.39227,-0.7739 -0.07939,0.03119 -0.35784,0.09481 -0.61874,0.14138 -0.4514,0.08062 -1.1663,0.01608 -1.5675,-0.14138 -0.41952,-0.1647 -0.13316,0.35642 0.44895,0.817 0.67274,0.53229 0.62505,0.53382 1.345,-0.0431 z m -2.3697,-1.7797 c 0.16682,-0.17688 0.45042,-0.36028 0.66973,-0.43312 0.80982,-0.26894 0.58922,-0.49757 -0.48011,-0.49757 -1.0489,0 -1.2432,0.09575 -1.2432,0.61275 0,0.61352 0.60316,0.79554 1.0536,0.31793 z m 5.5042,-3.239 c 0.22536,-0.4358 0.11632,-0.74414 -0.26314,-0.74414 -0.18001,0 -0.18974,0.02975 -0.18974,0.58039 0,0.64334 0.17261,0.70574 0.45289,0.16376 z m -0.11999,12.214 c -0.27248,-0.50913 -0.07242,-3.8003 0.231,-3.8003 0.23537,0 0.34359,0.17412 0.34359,0.55274 0,0.35474 0,0.35474 0.91558,0.35474 0.91558,0 0.91558,0 0.88583,-1.0931 -0.05061,-1.8594 -0.72842,-2.8115 -2.2216,-3.1203 -0.67078,-0.13872 -0.86926,-0.65405 -0.2519,-0.65405 1.0308,0 2.2495,0.85872 2.7953,1.9697 0.32108,0.65355 0.4122,5.8111 0.10437,5.9088 -0.35701,0.11331 -0.41268,-0.06053 -0.41268,-1.2888 0,-1.1449 0,-1.1449 -0.90748,-1.1449 -0.90748,0 -0.90748,0 -0.90748,1.1385 0,1.173 -0.04203,1.3365 -0.34359,1.3365 -0.08008,0 -0.18402,-0.07181 -0.231,-0.15957 z m -3.3303,-2.3704 c -0.14232,-0.14232 -0.04841,-0.4385 0.15521,-0.48961 0.15613,-0.0392 0.28294,-0.19719 0.49294,-0.61417 0.37201,-0.73872 0.35949,-0.73539 1.205,-0.32094 0.74203,0.36371 0.88988,0.5243 0.7402,0.80398 -0.05663,0.10583 -0.05548,0.1832 0.0036,0.24231 0.04775,0.04775 0.06209,0.1648 0.03182,0.26013 -0.0553,0.1742 -2.4645,0.28262 -2.6288,0.11831 z m 1.925,-0.63096 c 0,-0.08771 -0.47887,-0.38652 -0.61942,-0.38652 -0.01991,0 -0.09394,0.11137 -0.16432,0.24749 -0.12798,0.24749 -0.12798,0.24749 0.32787,0.24749 0.32167,0 0.45586,-0.03192 0.45586,-0.10846 z m -7.9889,-6.0689 c -0.06068,-0.03846 -0.09782,-0.15855 -0.0825,-0.26686 0.03774,-0.26692 1.4058,-0.31255 1.4566,-0.04859 0.06528,0.33899 -0.96415,0.5753 -1.3741,0.31544 z m 1.1924,-1.2378 c -0.4093,-0.41555 -0.46005,-0.61744 -0.19688,-0.78317 0.11833,-0.07452 0.21347,-0.02016 0.55686,0.31805 0.4228,0.41644 0.52931,0.72352 0.28365,0.81779 -0.20888,0.08016 -0.22725,0.07008 -0.64364,-0.35267 z m 5.8267,0.29963 c -0.04537,-0.0567 -0.10808,-0.18657 -0.13934,-0.28855 -0.03126,-0.10198 -0.14817,-0.20834 -0.25977,-0.23636 -0.28257,-0.07092 -0.40056,-0.31317 -0.23376,-0.47996 0.33253,-0.33253 1.1077,0.15549 1.1077,0.69736 0,0.34705 -0.2919,0.53611 -0.47479,0.30751 z m -4.593,-0.934 c -0.0713,-0.0713 -0.12964,-0.16008 -0.12964,-0.19732 0,-0.03721 -0.08996,-0.09024 -0.19989,-0.11782 -0.75995,-0.19073 -1.2419,-1.3958 -0.78868,-1.972 0.13949,-0.17734 0.15784,-0.28438 0.11346,-0.66206 -0.28758,-2.4469 2.3831,-4.6886 5,-4.197 1.1451,0.21513 2.4268,0.97035 2.377,1.4007 -0.03613,0.31217 -0.27031,0.32761 -0.63166,0.04165 -2.4152,-1.9114 -5.9552,-0.57376 -6.1012,2.3054 -0.03532,0.69654 0.15832,1.1592 0.30026,0.71734 0.1107,-0.34455 0.71782,-0.79905 1.1456,-0.85762 0.52591,-0.07199 0.99684,-0.50771 0.84845,-0.78498 -0.29053,-0.54287 0.24767,-1.7095 0.75546,-1.6376 0.25966,0.03677 0.31639,0.43092 0.08023,0.55731 -0.51754,0.27698 -0.37181,0.96437 0.29782,1.4048 0.74902,0.4926 0.52401,0.97216 -0.25998,0.5541 -0.41542,-0.22151 -0.41542,-0.22151 -0.60215,0.0171 -0.20071,0.25648 -0.72327,0.5052 -1.0614,0.5052 -0.50529,0 -0.61332,0.28165 -0.61332,1.5991 0,1.1884 -0.06018,1.4534 -0.32999,1.4534 -0.03889,0 -0.12905,-0.05834 -0.20035,-0.12964 z m -0.12964,-1.4433 c 0,-0.58216 -3.06e-4,-0.58293 -0.21855,-0.55686 -0.42969,0.05132 -0.4667,0.54458 -0.07059,0.94069 0.27987,0.27987 0.28914,0.26757 0.28914,-0.38383 z m 1.3233,0.21569 c -0.13306,-0.16031 -0.02986,-0.4577 0.15881,-0.4577 0.11657,0 0.14822,-0.05852 0.1388,-0.25676 -0.0079,-0.16664 0.03968,-0.2897 0.13558,-0.35062 0.22758,-0.14457 1.0989,0.77152 0.96744,1.0172 -0.11448,0.2139 -1.2312,0.25211 -1.4006,0.04793 z m 2.7177,-0.04792 c -0.13145,-0.24562 0.73985,-1.1617 0.96743,-1.0172 0.0959,0.06091 0.14347,0.18397 0.13558,0.35062 -0.0094,0.19823 0.0222,0.25676 0.1388,0.25676 0.18866,0 0.29186,0.29738 0.15881,0.4577 -0.16945,0.20418 -1.2862,0.16595 -1.4006,-0.04793 z m 0.29973,-2.9237 c -0.40516,-0.14442 -0.97289,-0.68785 -0.94078,-0.90053 0.04923,-0.32603 0.28597,-0.35604 0.57812,-0.07329 0.39216,0.37956 0.81356,0.53353 1.288,0.4706 0.2995,-0.03973 0.4172,-0.02195 0.49756,0.0748 0.3488,0.42028 -0.62396,0.71316 -1.4229,0.42842 z"
               fill="#aa0000"
               stroke-width="2.5519"
               id="path53" />
            <text
               x="26.765028"
               y="-4.1161041"
               fill="#000000"
               font-family="'Devanagari Sangam MN'"
               font-size="2.2255px"
               font-weight="bold"
               letter-spacing="0.14689px"
               stroke-linecap="round"
               stroke-miterlimit="4.1"
               stroke-width="0.6"
               text-align="center"
               text-anchor="middle"
               word-spacing="0.0083458px"
               style="line-height:1.2;mix-blend-mode:darken"
               xml:space="preserve"
               id="text56"><tspan
                 x="26.838469"
                 y="-4.1161041"
                 id="tspan55"><tspan
                   x="26.838469"
                   y="-4.1161041"
                   fill="#000000"
                   font-size="2.2255px"
                   stroke-width="0.6"
                   id="tspan54">TEAM</tspan></tspan><tspan
                 x="26.911911"
                 y="-1.4454561"
                 id="tspan56">MANAGER</tspan></text>
          </g>
        </g>
        <g
           transform="matrix(1.5044,0,0,0.97247,-47.58,0.24195)"
           display="inline"
           id="g60"
           inkscape:label="separator"
           style="display:inline">
          <title
             id="title63">separator</title>
          <rect
             x="45.900002"
             y="8.7882004"
             width="3.1475999"
             height="11.877"
             rx="0.013747"
             ry="0.057897002"
             fill="url(#linearGradient42)"
             stroke-width="1.2635"
             id="rect59" />
          <path
             d="M 31.701,20.881 H 45.622 V 9.663"
             fill="none"
             stroke="#50614d"
             stroke-miterlimit="4.1"
             stroke-width="0.6519"
             id="path59" />
          <path
             d="M 63.163,20.881 H 49.424 V 9.663"
             fill="none"
             stroke="#50614d"
             stroke-miterlimit="4.1"
             stroke-width="0.6519"
             id="path60" />
        </g>
      </g>
    </g>
    <g
       display="inline"
       id="g58"
       style="display:inline"
       transform="translate(-0.1,39.5065)"
       inkscape:label="tabs-home">
      <g
         id="option-home-maintenance"
         display="inline">
        <rect
           x="47.646999"
           y="20.212"
           width="47.009998"
           height="8.3290997"
           fill="#484848"
           stroke-width="1.2224"
           id="rect57" />
        <text
           x="70.233887"
           y="25.404963"
           fill="#ffffff"
           font-family="'Devanagari Sangam MN'"
           font-size="2.666px"
           font-weight="bold"
           letter-spacing="0.17596px"
           stroke-linecap="round"
           stroke-miterlimit="4.1"
           stroke-width="0.6"
           text-align="center"
           text-anchor="middle"
           word-spacing="0.0099975px"
           style="line-height:1.2;mix-blend-mode:normal"
           xml:space="preserve"
           id="text57"><tspan
             x="70.321869"
             y="25.404963"
             fill="#ffffff"
             font-size="2.666px"
             stroke-width="0.6"
             id="tspan57">MAINTENANCE</tspan></text>
      </g>
      <g
         id="option-home-personalize"
         display="inline">
        <rect
           x="0.10393"
           y="20.440001"
           width="47.332001"
           height="8.1012001"
           fill="#ffffff"
           stroke-width="1.2265"
           id="rect58" />
        <text
           x="22.234476"
           y="25.427729"
           fill="#484848"
           font-family="'Devanagari Sangam MN'"
           font-size="2.666px"
           font-weight="bold"
           letter-spacing="0.17596px"
           stroke-linecap="round"
           stroke-miterlimit="4.1"
           stroke-width="0.6"
           text-align="center"
           text-anchor="middle"
           word-spacing="0.0099975px"
           style="line-height:1.2;mix-blend-mode:normal"
           xml:space="preserve"
           id="text58"><tspan
             x="22.322454"
             y="25.427729"
             fill="#484848"
             font-size="2.666px"
             stroke-width="0.6"
             id="tspan58">PERSONALIZE</tspan></text>
      </g>
    </g>
  </g>
</svg>
