<svg xmlns="http://www.w3.org/2000/svg" xmlns:xlink="http://www.w3.org/1999/xlink" version="1.1" viewBox="10.694709 1.8159605 9.8530178 9.8530188">
<rect id="icon-setlocation-clickable" x="9.70940722" y="0.8306586200000003" width="11.823621359999999" height="11.823622559999999" fill="transparent" fill-opacity="0" stroke-dasharray="0.0452804, 0.18112" stroke-width="0.0279995" style="display:inline;mix-blend-mode:normal;stroke-miterlimit:4.1" xmlns:inkscape="http://www.inkscape.org/namespaces/inkscape" inkscape:label="icon-setlocation-clickable" class="bg-item bg" xmlns="http://www.w3.org/2000/svg"/>
<text x="15.562188" y="10.442361" fill="white" stroke-width="0.105981" text-align="center" style="font-weight:bold;font-size:1.05771px;line-height:1.2;font-family:'Devanagari Sangam MN';letter-spacing:0.0698125px;word-spacing:0.00396651px;text-anchor:middle;fill:#ffffff;fill-opacity:1;stroke:none;stroke-linecap:round;stroke-miterlimit:4.1" xml:space="preserve" id="text50" fill-opacity="1" class="fg" xmlns="http://www.w3.org/2000/svg"><tspan x="15.597094" y="10.442361" fill="white" font-size="1.05771px" stroke-width="0.105981" id="tspan50" style="fill:#ffffff;fill-opacity:1;stroke:none" fill-opacity="1" class="fg">MOVE HERE</tspan></text>
<path id="path50" style="display:inline;fill:#ffffff;stroke-width:0.778446" d="m 15.631778,2.7125159 c -1.533423,7.86e-5 -2.776495,1.243151 -2.776574,2.7765748 -9.4e-5,0.6987419 0.258725,1.3365915 0.684712,1.8246948 h -0.001 l 0.0057,0.00517 c 0.115851,0.1320792 0.243691,0.2531056 0.382406,0.3612183 l 1.685168,1.5916341 1.676384,-1.5533936 c 0.158827,-0.1182146 0.303949,-0.2532376 0.434082,-0.4020426 7.25e-4,-8.295e-4 0.0013,-0.00175 0.0021,-0.00258 0.425792,-0.4880521 0.68429,-1.1261231 0.684196,-1.8246948 -8e-5,-1.5336254 -1.243465,-2.7767811 -2.777092,-2.7765748 z m 0,1.4345378 a 1.342139,1.342139 0 0 1 1.342037,1.342037 1.342139,1.342139 0 0 1 -1.342037,1.3420369 1.342139,1.342139 0 0 1 -1.342037,-1.3420369 1.342139,1.342139 0 0 1 1.342037,-1.342037 z" fill="white" fill-opacity="1" class="fg" xmlns="http://www.w3.org/2000/svg"/>
</svg>