<svg xmlns="http://www.w3.org/2000/svg" xmlns:xlink="http://www.w3.org/1999/xlink" version="1.1" viewBox="30.94 1.166 9.853 9.8535">
<rect id="icon-umpires-circle-clickable" x="29.954700000000003" y="0.18065000000000042" width="11.823599999999999" height="11.8242" fill="darkgreen" fill-opacity="1" stroke-dasharray="0.0452804, 0.18112" stroke-width=".028001" style="mix-blend-mode:normal" class="bg-item bg" xmlns="http://www.w3.org/2000/svg"/>
<path d="m35.867 1.3316a4.7614 4.7614 0 0 0-4.7615 4.7609 4.7614 4.7614 0 0 0 4.7615 4.7615 4.7614 4.7614 0 0 0 4.7615-4.7615 4.7614 4.7614 0 0 0-4.7615-4.7609zm-0.48111 0.93121h5.16e-4c0.11872 0.001084 0.20877 0.046509 0.20877 0.046509l0.27234 0.1509 0.27182-0.1509s0.090578-0.045669 0.20929-0.046509c0.11871-0.0010509 0.26565 0.042731 0.37879 0.22066 0.1179 0.18577 0.073171 0.34767 0.007751 0.45889l2.1342 1.1844s0.26688 0.15913 0.34727 0.44803c0.038863 0.13985-0.076481 0.42891-0.076481 0.42891l-1.5539 2.6913v2.2278h-0.54777v-3.7512l0.96222-1.3632-2.8732-1.7105s-0.33838-0.27164-0.12041-0.61443c0.11314-0.17795 0.26008-0.2215 0.37879-0.22066zm-0.66042 0.83147 0.003617 0.0036173 0.93844 0.55862-1.9337 1.1519 0.96222 1.3632v3.7512h-0.54777v-2.2278l-1.5539-2.6913s-0.11587-0.28907-0.076998-0.42891c0.080398-0.2889 0.34778-0.44803 0.34778-0.44803l1.8604-1.0325zm1.1322 0.90899a1.0153 1.0153 0 0 1 1.0154 1.0154 1.0153 1.0153 0 0 1-1.0154 1.0154 1.0153 1.0153 0 0 1-1.0154-1.0154 1.0153 1.0153 0 0 1 1.0154-1.0154zm-0.24443 2.312-0.007235 3.6075h-0.50436v-2.9456l0.5116-0.66198zm0.50746 0 0.5116 0.66198v2.9456h-0.50384l-0.007751-3.6075z" fill="white" stroke-miterlimit="4.1" stroke-width=".38922" fill-opacity="1" class="fg" xmlns="http://www.w3.org/2000/svg"/>
</svg>