<svg xmlns="http://www.w3.org/2000/svg" xmlns:xlink="http://www.w3.org/1999/xlink" version="1.1" viewBox="30.943344 2.137162 9.8529997 9.8534603">
<rect id="icon-umpire-only-clickable" x="29.95804403" y="1.1518159700000004" width="11.82359964" height="11.82415236" fill="transparent" fill-opacity="0" stroke-dasharray="0.0452804, 0.18112" stroke-width="0.0280007" style="mix-blend-mode:normal;stroke-miterlimit:4.1" class="bg-item bg" xmlns="http://www.w3.org/2000/svg"/>
<path id="path121" style="fill:#ffffff;fill-opacity:1;stroke-width:0.999999;stroke-miterlimit:4.1;stroke-opacity:0.998569" d="m 35.253448,2.1769443 c -0.152091,-0.00108 -0.340581,0.054307 -0.485536,0.2822995 -0.279273,0.4391935 0.154247,0.7873177 0.154247,0.7873177 l 3.681036,2.1915878 -1.232769,1.7466952 v 4.8057775 h 0.702131 V 9.1364458 l 1.990572,-3.4477393 c 0,0 0.14837,-0.3703835 0.09857,-0.5495593 C 40.058709,4.7690001 39.716271,4.5650764 39.716271,4.5650764 L 36.981803,3.0472267 c 0.08382,-0.1424914 0.141325,-0.3499657 -0.0097,-0.5879829 -0.144979,-0.2279623 -0.333465,-0.283646 -0.485562,-0.2822995 -0.15209,0.00108 -0.267818,0.059577 -0.267818,0.059577 L 35.870141,2.4297361 35.521586,2.2365222 c 0,0 -0.115714,-0.058188 -0.267831,-0.059577 z m -0.846341,1.0651674 -2.383681,1.3229647 c 0,0 -0.342435,0.2039237 -0.445443,0.5740708 -0.04978,0.1791758 0.09857,0.5495593 0.09857,0.5495593 l 1.991133,3.4477393 v 2.8541762 h 0.701571 V 7.1848445 L 33.136512,5.4381493 35.614289,3.9626128 34.411594,3.2465615 c 0,0 -0.0043,-0.00431 -0.0043,-0.00431 z m 1.451036,1.1648328 a 1.3008672,1.3008672 0 0 0 -1.301255,1.3006943 1.3008672,1.3008672 0 0 0 1.301255,1.3012533 1.3008672,1.3008672 0 0 0 1.300692,-1.3012533 1.3008672,1.3008672 0 0 0 -1.300692,-1.3006943 z m -0.313484,2.9622028 -0.655355,0.848012 v 3.7734627 h 0.645895 z m 0.650348,0 0.0097,4.6214747 h 0.645362 V 8.2171593 Z" fill="white" fill-opacity="1" class="fg" xmlns="http://www.w3.org/2000/svg"/>
</svg>