<svg xmlns="http://www.w3.org/2000/svg" xmlns:xlink="http://www.w3.org/1999/xlink" version="1.1" viewBox="30.9 2.14 9.85 9.85">
<rect id="icon-logout-clickable" x="29.915" y="1.1550000000000007" width="11.819999999999999" height="11.819999999999999" ry=".526" fill="#788356" fill-opacity="1" stroke-dasharray="0.0452804, 0.18112" stroke-miterlimit="4.1" stroke-width=".028" style="mix-blend-mode:normal" class="bg-item bg" xmlns="http://www.w3.org/2000/svg"/>
<text x="35.80447" y="10.763562" fill="white" font-family="'Devanagari Sangam MN'" font-size="1.06px" font-weight="bold" letter-spacing=".147px" stroke-linecap="round" stroke-miterlimit="4.1" stroke-width=".285" text-align="center" text-anchor="middle" word-spacing=".00835px" style="line-height:1.2;mix-blend-mode:normal" xml:space="preserve" fill-opacity="1" class="fg" xmlns="http://www.w3.org/2000/svg"><tspan x="35.839375" y="10.763562" fill="white" font-size="1.06px" stroke-width=".285" fill-opacity="1" class="fg">LOG OUT</tspan></text>
<g transform="matrix(.728 0 0 .728 9.4 1.31)" xmlns="http://www.w3.org/2000/svg">
    <path d="m34.2 3.18 1.62 0.681c0.234 0.0982 0.447 0.346 0.447 0.654v4.26c0 0.308-0.214 0.557-0.447 0.459l-1.62-0.681c-0.234-0.0982-0.447-0.346-0.447-0.654v-4.26c0-0.308 0.214-0.557 0.447-0.459z" fill="white" stroke-width=".639" fill-opacity="1" class="fg" xmlns="http://www.w3.org/2000/svg"/>
    <path d="m34.9 3.36h1.84c0.281 0 0.508 0.226 0.508 0.508v3.89c0 0.281-0.226 0.508-0.508 0.508h-1.84c-0.281 0-0.508-0.226-0.508-0.508v-3.89c0-0.281 0.226-0.508 0.508-0.508z" stroke="white" stroke-width=".65" stroke-opacity="1" fill-opacity="0" class="fg" xmlns="http://www.w3.org/2000/svg"/>
   </g>
<g id="icon-logout-invert" transform="matrix(.728 0 0 .728 9.38 1.31)" class="bg" xmlns="http://www.w3.org/2000/svg">
    <rect x="36.5" y="5.25" width="1.34" height="1.47" ry="0" fill="#788356" fill-opacity="1" class="fg" xmlns="http://www.w3.org/2000/svg"/>
    <path transform="translate(.0205)" d="m33.7 3.64c0-0.308 0.327-0.557 0.561-0.459l1.62 0.681c0.234 0.0982 0.447 0.346 0.447 0.654v4.26c0 0.308-0.349 0.693-0.583 0.595" stroke="#788356" stroke-width=".139" stroke-opacity="1" fill-opacity="0" class="fg" xmlns="http://www.w3.org/2000/svg"/>
   </g>
<g transform="matrix(.728 0 0 .728 17 -4.51)" stroke="white" stroke-linecap="round" stroke-linejoin="round" stroke-width=".736" stroke-opacity="1" fill-opacity="0" class="fg" xmlns="http://www.w3.org/2000/svg">
    <path d="m26.4 14h1.95" fill="none" fill-opacity="0" class="no-fill" xmlns="http://www.w3.org/2000/svg"/>
    <path d="m27.9 13 1 1-1 1" fill="none" fill-opacity="0" class="no-fill" xmlns="http://www.w3.org/2000/svg"/>
   </g>
</svg>