<svg xmlns="http://www.w3.org/2000/svg" xmlns:xlink="http://www.w3.org/1999/xlink" version="1.1" viewBox="0.0519 0.143 9.85 9.85">
<rect id="icon-schedule-clickable" x="-0.9330999999999994" y="-0.8419999999999994" width="11.819999999999999" height="11.819999999999999" ry=".587" fill="#788356" fill-opacity="1" stroke-dasharray="0.0452804, 0.181119" stroke-width=".028" style="mix-blend-mode:normal" class="bg-item bg" xmlns="http://www.w3.org/2000/svg"/>
<text id="txt-schedule" transform="scale(.976 1.02)" x="4.9840231" y="8.6497364" fill="white" font-family="'Devanagari Sangam MN'" font-size="1.03px" font-weight="bold" letter-spacing=".166px" stroke-linecap="round" stroke-miterlimit="4.1" stroke-width=".246" text-align="center" text-anchor="middle" word-spacing=".00945px" style="line-height:1.2;mix-blend-mode:normal" xml:space="preserve" fill-opacity="1" class="fg" xmlns="http://www.w3.org/2000/svg"><tspan x="5.0180807" y="8.6497364" fill="white" font-size="1.03px" stroke-width=".246" fill-opacity="1" class="fg">SCHEDULE</tspan></text>
<g id="view-schedule-icon" transform="matrix(.774 0 0 .813 -16.2 -24.9)" fill="white" stroke-width=".929" fill-opacity="1" class="fg" xmlns="http://www.w3.org/2000/svg">
    <path d="m25.593 32.3c-0.10692 0-0.19295 0.069309-0.19295 0.15573v0.64389c0 0.08642 0.08603 0.15636 0.19295 0.15636h0.22767c0.10692 0 0.19295-0.069944 0.19295-0.15636v-0.64389c0-0.08642-0.08603-0.15573-0.19295-0.15573h-0.22767zm2.4997 0c-0.10692 0-0.19295 0.069309-0.19295 0.15573v0.64389c0 0.08642 0.08603 0.15636 0.19295 0.15636h0.22834c0.10692 0 0.19295-0.069944 0.19295-0.15636v-0.64389c0-0.08642-0.08603-0.15573-0.19295-0.15573h-0.22834zm-3.4191 0.4996c-0.2626 0-0.47403 0.23178-0.47403 0.51931v0.64198h5.5001v-0.64198c0-0.28753-0.21144-0.51931-0.47403-0.51931h-0.46602v0.36104c0 0.18781-0.1828 0.33879-0.40994 0.33879h-0.33984c-0.22714 0-0.40994-0.15098-0.40994-0.33879v-0.36104h-1.34v0.36104c0 0.18781-0.1828 0.33879-0.40994 0.33879h-0.3405c-0.22714 0-0.40994-0.15098-0.40994-0.33879v-0.36104h-0.42596zm-0.47403 1.4403v2.8107c0 0.28753 0.21144 0.51931 0.47403 0.51931h3.1667a1.5 1.5 0 0 1 1.4595-1.1702 1.5 1.5 0 0 1 0.39992 0.054664v-2.2145h-5.5001zm0.89332 0.55999h0.57619c0.10692 0 0.19295 0.069305 0.19295 0.15573v0.49897c0 0.086424-0.08603 0.15636-0.19295 0.15636h-0.57619c-0.10692 0-0.19295-0.06994-0.19295-0.15636v-0.49897c0-0.086424 0.08603-0.15573 0.19295-0.15573zm1.5997 0h0.57618c0.10692 0 0.19295 0.069305 0.19295 0.15573v0.49897c0 0.086424-0.08603 0.15636-0.19295 0.15636h-0.57618c-0.10692 0-0.19295-0.06994-0.19295-0.15636v-0.49897c0-0.086424 0.08603-0.15573 0.19295-0.15573zm1.5002 0h0.57618c0.10692 0 0.19295 0.069305 0.19295 0.15573v0.49897c0 0.086424-0.08603 0.15636-0.19295 0.15636h-0.57618c-0.10692 0-0.19295-0.06994-0.19295-0.15636v-0.49897c0-0.086424 0.08603-0.15573 0.19295-0.15573zm-3.0999 1.3996h0.57619c0.10692 0 0.19295 0.06994 0.19295 0.15636v0.49897c0 0.086424-0.08603 0.15573-0.19295 0.15573h-0.57619c-0.10692 0-0.19295-0.069305-0.19295-0.15573v-0.49897c0-0.086424 0.08603-0.15636 0.19295-0.15636zm1.5997 0h0.57618c0.10692 0 0.19295 0.06994 0.19295 0.15636v0.49897c0 0.086424-0.08603 0.15573-0.19295 0.15573h-0.57618c-0.10692 0-0.19295-0.069305-0.19295-0.15573v-0.49897c0-0.086424 0.08603-0.15636 0.19295-0.15636zm2.6072 0.49642a1.2034 1.2034 0 0 0-1.2031 1.2039 1.2034 1.2034 0 0 0 1.2031 1.2032 1.2034 1.2034 0 0 0 1.2038-1.2032 1.2034 1.2034 0 0 0-1.2038-1.2039zm0.005341 0.22755a0.1395 0.1395 0 0 1 0.13887 0.1392v0.72652h0.51743a0.1395 0.1395 0 0 1 0.14088 0.13857 0.1395 0.1395 0 0 1-0.14088 0.14047h-0.6563a0.13951 0.13951 0 0 1-0.14021-0.14047v-0.86509a0.1395 0.1395 0 0 1 0.14021-0.1392z" fill="white" fill-opacity="1" class="fg" xmlns="http://www.w3.org/2000/svg"/>
   </g>
<g id="icon-schedule-invert" transform="matrix(.774 0 0 .813 -16.2 -24.9)" stroke-width=".929" class="bg" xmlns="http://www.w3.org/2000/svg">
    <path d="m23.9 34.1h5.98" fill="#788356" stroke-linecap="round" stroke-linejoin="round" stroke-miterlimit="4.1" fill-opacity="1" class="fg" xmlns="http://www.w3.org/2000/svg"/>
   </g>
</svg>