<svg xmlns="http://www.w3.org/2000/svg" xmlns:xlink="http://www.w3.org/1999/xlink" version="1.1" viewBox="25.134 49.264 9.8535 9.853">
<rect id="icon-teammanager-clickable" x="24.14865" y="48.2787" width="11.8242" height="11.823599999999999" fill="darkgreen" fill-opacity="1" stroke-dasharray="0.0452804, 0.18112" stroke-miterlimit="4.1" stroke-width=".028" style="mix-blend-mode:normal" class="bg-item bg" xmlns="http://www.w3.org/2000/svg"/>
<text id="txt-team-manager" transform="scale(1.0249 .97571)" x="29.269943" y="58.286358" fill="white" font-family="'Devanagari Sangam MN'" font-size=".94986px" font-weight="bold" letter-spacing=".14689px" stroke-linecap="round" stroke-miterlimit="4.1" stroke-width=".25608" text-align="center" text-anchor="middle" word-spacing=".0083458px" style="line-height:1.2;mix-blend-mode:normal" xml:space="preserve" fill-opacity="1" class="fg" xmlns="http://www.w3.org/2000/svg"><tspan x="29.301289" y="58.286358" fill="white" fill-opacity="1" class="fg"><tspan x="29.301289" y="58.286358" fill="white" font-size=".94986px" stroke-width=".25608" fill-opacity="1" class="fg">TEAM</tspan></tspan><tspan x="29.332636" y="59.426212" fill="white" fill-opacity="1" class="fg">MANAGER</tspan></text>
<path d="m28.023 55.635c-0.07898-0.04772-0.02896-1.5813 0.05701-1.7482 0.08777-0.17044 0.2319-0.32682 0.38763-0.42065 0.09342-0.05627 0.10904-0.07673 0.09835-0.12884-0.01585-0.07735 0.21015-0.30419 0.28883-0.2899 0.08353 0.01515 0.07381 0.1149-0.02045 0.20973-0.08238 0.08287-0.08317 0.08547-0.0214 0.07077 0.03526-0.0084 0.2055-0.01544 0.3783-0.01557 0.29696-2.65e-4 0.31417-0.0027 0.31417-0.04917 0-0.03963-0.01709-0.04882-0.09079-0.04882-0.27736 0-0.45944-0.26038-0.34871-0.49866 0.08776-0.18888 0.15371-0.21102 0.60621-0.20354 0.38471 0.0063 0.38471 0.0063 0.39211 0.1918 0.0084 0.21127 0.0056 0.21542-0.19336 0.2772-0.21966 0.06823-0.11951 0.13556 0.20163 0.13556 0.56358 0 0.8254-0.30771 0.8388-0.98593 0.01092-0.55285-0.02823-0.62553-0.33699-0.62553-0.17994 0-0.22255-0.01629-0.22255-0.08508 0-0.19379 0.50934-0.12537 0.6639 0.08918 0.16022 0.2224 0.25236-0.07067 0.13034-0.41458-0.06221-0.17535-0.05396-0.22434 0.0378-0.22434 0.11809 0 0.23759 0.35338 0.20929 0.61891-0.01276 0.11968-0.0069 0.15283 0.03595 0.20473 0.13918 0.16845-0.0099 0.52657-0.24227 0.58212-0.04949 0.01184-0.06294 0.03859-0.08601 0.17112-0.04035 0.23182-0.13507 0.40627-0.31212 0.57481-0.21211 0.20193-0.2177 0.28393-0.02012 0.29476 0.18515 0.01012 0.18468 0.0473-0.0052 0.40786-0.17633 0.33488-0.16831 0.33038-0.41654 0.23434-0.08678-0.03359-0.16107-0.06104-0.16507-0.06104-4e-3 0-0.01067 0.07851-0.01481 0.17446-0.01348 0.31206-0.18112 0.31206-0.1946 0-0.0041-0.09595-0.01081-0.17446-0.01481-0.17446s-0.07829 0.02745-0.16507 0.06104c-0.23068 0.08924-0.24805 0.08483-0.3386-0.08594-0.06322-0.11923-0.07264-0.1564-0.04992-0.19681 0.04221-0.07509 0.13164-0.0505 0.18474 0.0508 0.05073 0.09678 0.04874 0.0962 0.18094 0.05222 0.11935-0.03968 0.118-0.04347-0.06716-0.18649-0.14919-0.11524-0.14919-0.11524-0.51294-0.10568-0.72397 0.01903-0.99325 0.26608-1.0134 0.92969-0.01018 0.33574-0.01018 0.33574 0.27484 0.33574 0.28502 0 0.28502 0 0.28502-0.10499 0-0.15304 0.11566-0.22837 0.17863-0.11636 0.08471 0.15069 0.02251 1.1247-0.07181 1.1247-0.09375 0-0.10681-0.04841-0.10681-0.39554 0-0.33695 0-0.33695-0.28211-0.33695s-0.28211 0-0.28211 0.33695c0 0.37729-0.02793 0.4476-0.1488 0.37462zm2.5592-1.9561c0.12605-0.23773 0.08251-0.26214-0.14883-0.08345-0.17877 0.1381-0.16451 0.19957 0.05265 0.22688 0.01038 0.0013 0.05365-0.06323 0.09617-0.14343zm-0.29469-0.1996c0.16523-0.12606 0.24444-0.27483 0.12195-0.22904-0.02468 0.0092-0.11124 0.02807-0.19235 0.04186-0.14033 0.02387-0.36257 0.0047-0.4873-0.04186-0.13042-0.04874-0.0414 0.10548 0.13957 0.2418 0.20914 0.15754 0.19431 0.15799 0.41813-0.01274zm-0.73668-0.52672c0.05186-0.05235 0.14002-0.10663 0.2082-0.12819 0.25175-0.07959 0.18317-0.14726-0.14926-0.14726-0.32608 0-0.38648 0.02831-0.38648 0.18135 0 0.18158 0.18751 0.23545 0.32754 0.09409zm1.7111-0.95861c0.07006-0.12898 0.03616-0.22023-0.0818-0.22023-0.05596 0-0.05898 0.0088-0.05898 0.17177 0 0.1904 0.05366 0.20887 0.14079 0.04847zm-0.0373 3.6148c-0.08471-0.15068-0.02251-1.1247 0.07181-1.1247 0.07317 0 0.10681 0.05153 0.10681 0.16359 0 0.10498 0 0.10498 0.28463 0.10498s0.28463 0 0.27538-0.32351c-0.01573-0.55031-0.22645-0.83208-0.69064-0.92348-0.20853-0.04105-0.27023-0.19357-0.07831-0.19357 0.32045 0 0.69931 0.25415 0.86899 0.58295 0.09982 0.19342 0.12814 1.7198 0.03245 1.7488-0.11098 0.03353-0.12829-0.01787-0.12829-0.38144 0-0.33884 0-0.33884-0.28211-0.33884s-0.28211 0-0.28211 0.33695c0 0.34716-0.01307 0.39554-0.10681 0.39554-0.0249 0-0.05721-0.02126-0.07181-0.04723zm-1.0353-0.70154c-0.04424-0.04212-0.01505-0.12978 0.04825-0.1449 0.04853-0.01159 0.08796-0.05836 0.15324-0.18177 0.11565-0.21863 0.11176-0.21764 0.3746-0.09498 0.23068 0.10764 0.27664 0.15517 0.23011 0.23794-0.0176 0.03132-0.01725 0.05422 0.0011 0.07172 0.01485 0.01409 0.01931 0.04875 0.0099 0.07698-0.01719 0.05156-0.76615 0.08365-0.81723 0.035zm0.59844-0.18674c0-0.02597-0.14887-0.11439-0.19256-0.11439-0.0062 0-0.02921 0.03299-0.05108 0.07325-0.03979 0.07324-0.03979 0.07324 0.10193 0.07324 0.1 0 0.14172-0.0094 0.14172-0.03211zm-2.4836-1.7962c-0.01886-0.01137-0.0304-0.04692-0.02565-0.07898 0.01173-0.079 0.43703-0.0925 0.45282-0.01438 0.02029 0.10033-0.29973 0.17027-0.42717 0.09336zm0.37069-0.36633c-0.12724-0.12298-0.14302-0.18274-0.0612-0.23179 0.03679-0.02206 0.06636-6e-3 0.17311 0.09413 0.13144 0.12325 0.16455 0.21413 0.08818 0.24204-0.06494 0.02371-0.07065 0.02075-0.20009-0.10438zm1.8114 0.08868c-0.0141-0.01676-0.03359-0.05522-0.04331-0.0854-0.0097-0.03016-0.04606-0.06166-0.08076-0.06995-0.08785-0.02097-0.12452-0.09269-0.07267-0.14205 0.10338-0.09842 0.34436 0.04603 0.34436 0.20639 0 0.10271-0.09074 0.15867-0.1476 0.09101zm-1.4278-0.27643c-0.02217-0.02112-0.0403-0.04738-0.0403-0.0584 0-0.01103-0.02796-0.0267-0.06214-0.0349-0.23625-0.05645-0.38608-0.4131-0.24518-0.58363 0.04336-0.05249 0.04907-0.08416 0.03527-0.19594-0.0894-0.72418 0.74085-1.3876 1.5544-1.2421 0.35598 0.06367 0.75443 0.28719 0.73895 0.41455-0.01123 0.09239-0.08403 0.09696-0.19637 0.01231-0.75082-0.5657-1.8513-0.16981-1.8967 0.6823-0.01098 0.20615 0.04922 0.34308 0.09334 0.2123 0.03441-0.10198 0.22315-0.23649 0.35614-0.25382 0.16349-0.02131 0.30989-0.15026 0.26376-0.23232-0.09032-0.16067 0.077-0.50594 0.23485-0.48466 0.08072 0.01089 0.09836 0.12754 0.02495 0.16494-0.16089 0.08198-0.11559 0.28541 0.09258 0.41576 0.23285 0.14579 0.1629 0.28772-0.08082 0.16399-0.12914-0.06556-0.12914-0.06556-0.18719 0.0051-0.0624 0.07591-0.22485 0.14952-0.32996 0.14952-0.15708 0-0.19067 0.08335-0.19067 0.47327 0 0.35171-0.0187 0.43014-0.10259 0.43014-0.01209 0-0.04012-0.01728-0.06228-0.03835zm-0.0403-0.42716c0-0.17229-9.5e-5 -0.17253-0.06794-0.16481-0.13358 0.0152-0.14509 0.16117-0.02194 0.2784 0.087 0.08283 0.08989 0.07919 0.08989-0.1136zm0.41138 0.06384c-0.04137-0.04745-0.0093-0.13546 0.04937-0.13546 0.03624 0 0.04608-0.01733 0.04315-0.07599-0.0025-0.04932 0.01233-0.08574 0.04215-0.10377 0.07075-0.04281 0.34162 0.22834 0.30075 0.30105-0.03559 0.0633-0.38275 0.07461-0.43541 0.0142zm0.84487-0.01421c-0.04086-0.07269 0.23-0.34381 0.30075-0.30105 0.02981 0.01804 0.0446 0.05445 0.04215 0.10377-0.0029 0.05867 0.0069 0.07599 0.04315 0.07599 0.05865 0 0.09073 0.08801 0.04937 0.13546-0.05268 0.06043-0.39985 0.04912-0.43541-0.0142zm0.09318-0.86529c-0.12596-0.04276-0.30245-0.20358-0.29247-0.26652 0.0153-0.09649 0.0889-0.10537 0.17972-0.02168 0.12191 0.11234 0.25292 0.1579 0.40041 0.13928 0.09311-0.01174 0.1297-0.0065 0.15468 0.02216 0.10843 0.12439-0.19397 0.21107-0.44234 0.1268z" fill="white" stroke-width=".77405" fill-opacity="1" class="fg" xmlns="http://www.w3.org/2000/svg"/>
</svg>