<svg xmlns="http://www.w3.org/2000/svg" xmlns:xlink="http://www.w3.org/1999/xlink" version="1.1" viewBox="40.095 0.14332 9.853 9.853">
<rect id="icon-notplayed-clickable" x="39.1097" y="-0.8419799999999996" width="11.823599999999999" height="11.823599999999999" fill="darkgreen" fill-opacity="1" stroke-dasharray="0.0452804, 0.18112" stroke-miterlimit="4.1" stroke-width=".028" style="mix-blend-mode:normal" class="bg-item bg" xmlns="http://www.w3.org/2000/svg"/>
<g transform="matrix(1.5653 0 0 1.5653 -32.62 -1.4052)" stroke="white" stroke-opacity="1" fill-opacity="0" class="fg" xmlns="http://www.w3.org/2000/svg"><path d="m49.582 1.5917c-0.98631-1e-7 -1.791 0.80273-1.791 1.789 0 0.98631 0.80472 1.7894 1.791 1.7894 0.98631 1e-7 1.789-0.80306 1.789-1.7894 0-0.98631-0.80274-1.789-1.789-1.789zm0 0.37702c0.78231-1e-7 1.412 0.62971 1.412 1.412 0 0.78231-0.62971 1.4123-1.412 1.4123-0.78231 1e-7 -1.4123-0.63004-1.4123-1.4123 0-0.78231 0.63004-1.412 1.4123-1.412zm0.73127 0.40145-1.823 1.6788c0.086864 0.14241 0.20127 0.26597 0.33576 0.36382l1.8221-1.6804c-0.086847-0.14163-0.20085-0.26472-0.33476-0.36217z" color="#000000" fill="white" style="-inkscape-stroke:none" fill-opacity="1" class="fg" xmlns="http://www.w3.org/2000/svg"/></g>
<text transform="scale(.95019 1.0524)" x="47.282143" y="8.4709778" fill="white" font-family="'Devanagari Sangam MN'" font-size="1.005px" font-weight="bold" letter-spacing=".14689px" stroke-linecap="round" stroke-miterlimit="4.1" stroke-width=".27096" text-align="center" text-anchor="middle" word-spacing=".0083458px" style="line-height:1.2;mix-blend-mode:normal" xml:space="preserve" fill-opacity="1" class="fg" xmlns="http://www.w3.org/2000/svg"><tspan x="47.315311" y="8.4709778" fill="white" font-size="1.005px" stroke-width=".27096" fill-opacity="1" class="fg">NOT PLAYED</tspan></text>
</svg>