<svg xmlns="http://www.w3.org/2000/svg" xmlns:xlink="http://www.w3.org/1999/xlink" version="1.1" viewBox="40.095 0.14332 9.853 9.853">
<rect id="icon-notplayed-clickable" x="39.1097" y="-0.8419799999999996" width="11.823599999999999" height="11.823599999999999" fill="darkgreen" fill-opacity="1" stroke-dasharray="0.0452804, 0.18112" stroke-miterlimit="4.1" stroke-width=".028" style="mix-blend-mode:normal" class="bg-item bg" xmlns="http://www.w3.org/2000/svg"/>
<path d="m44.99 1.0862c-1.5438-2e-7 -2.8034 1.2565-2.8034 2.8003 0 1.5438 1.2596 2.8009 2.8034 2.8009 1.5438 2e-7 2.8003-1.257 2.8003-2.8009 0-1.5438-1.2565-2.8003-2.8003-2.8003zm0 0.59014c1.2245-2e-7 2.2102 0.98567 2.2102 2.2102 0 1.2245-0.98567 2.2107-2.2102 2.2107-1.2245 1e-7 -2.2107-0.98619-2.2107-2.2107 0-1.2245 0.98619-2.2102 2.2107-2.2102zm1.1446 0.62839-2.8536 2.6277c0.13596 0.22291 0.31504 0.41632 0.52555 0.56947l2.852-2.6303c-0.13594-0.22169-0.31439-0.41436-0.524-0.56689z" color="#000000" fill="white" fill-opacity="1" class="fg" xmlns="http://www.w3.org/2000/svg"/>
<text transform="scale(.95019 1.0524)" x="47.282143" y="8.4709778" fill="white" font-family="'Devanagari Sangam MN'" font-size="1.005px" font-weight="bold" letter-spacing=".14689px" stroke-linecap="round" stroke-miterlimit="4.1" stroke-width=".27096" text-align="center" text-anchor="middle" word-spacing=".0083458px" style="line-height:1.2;mix-blend-mode:normal" xml:space="preserve" fill-opacity="1" class="fg" xmlns="http://www.w3.org/2000/svg"><tspan x="47.315311" y="8.4709778" fill="white" font-size="1.005px" stroke-width=".27096" fill-opacity="1" class="fg">NOT PLAYED</tspan></text>
</svg>