<svg xmlns="http://www.w3.org/2000/svg" xmlns:xlink="http://www.w3.org/1999/xlink" version="1.1" viewBox="30.9 2.14 9.85 9.85">
<rect id="icon-reset-clickable" x="29.915" y="1.1550000000000007" width="11.819999999999999" height="11.819999999999999" fill="#788356" fill-opacity="1" stroke-dasharray="0.0452804, 0.18112" stroke-width=".028" style="mix-blend-mode:normal" class="bg-item bg" xmlns="http://www.w3.org/2000/svg"/>
<text id="txt-reset" x="35.80447" y="10.763562" fill="white" font-family="'Devanagari Sangam MN'" font-size="1.06px" font-weight="bold" letter-spacing=".147px" stroke-linecap="round" stroke-width=".285" text-align="center" text-anchor="middle" word-spacing=".00835px" style="line-height:1.2;mix-blend-mode:normal" xml:space="preserve" fill-opacity="1" class="fg" xmlns="http://www.w3.org/2000/svg"><tspan x="35.839375" y="10.763562" fill="white" font-size="1.06px" stroke-width=".285" fill-opacity="1" class="fg">RESET</tspan></text>
<path transform="matrix(.771 0 0 .771 1.17 .994)" d="m44.948 9.8499c1.9664 0 3.663-1.6041 3.663-3.5704 0-1.9664-1.602-3.5684-3.5684-3.5684-1.9664 0-3.5698 1.602-3.5698 3.5684 0 0.68123 0.34929 1.4218 0.34929 1.4218l-0.80103 0.46787 2.0138 0.55688 0.034385-1.9823-0.58468 0.50211s-0.21346-0.46936-0.21346-0.96634c0-1.5336 1.2379-2.7695 2.7715-2.7695 1.5336 1e-7 2.7695 1.2359 2.7695 2.7695 0 1.5336-1.3305 2.7715-2.8641 2.7715m-0.04747-5.0316-0.40081 0.40081-0.0131 1.9724s0.64687 0.56287 1.1773 1.031l0.55833-0.087803-0.085792-0.55832-0.8358-0.61127v-1.746z" fill="white" fill-opacity="1" class="fg" xmlns="http://www.w3.org/2000/svg"/>
</svg>