<svg xmlns="http://www.w3.org/2000/svg" xmlns:xlink="http://www.w3.org/1999/xlink" version="1.1" viewBox="0.051926807 0.14332105 9.8534603 9.8530188">
<rect id="icon-schedule-clickable" x="-0.9334192229999997" y="-0.8419808299999998" width="11.82415236" height="11.823622559999999" fill="transparent" fill-opacity="0" stroke-dasharray="0.0452804, 0.181119" stroke-width="0.0280001" style="mix-blend-mode:normal" class="bg-item bg" xmlns="http://www.w3.org/2000/svg"/>
<text x="4.9840231" y="8.6497364" fill="white" font-family="'Devanagari Sangam MN'" font-size="1.03203px" font-weight="bold" letter-spacing="0.16627px" stroke-linecap="round" stroke-miterlimit="4.1" stroke-width="0.2458" text-align="center" text-anchor="middle" word-spacing="0.0094471px" style="line-height:1.2;mix-blend-mode:normal" xml:space="preserve" id="txt-schedule" transform="scale(0.97571427,1.0248902)" fill-opacity="1" class="fg" xmlns="http://www.w3.org/2000/svg"><tspan x="5.0180807" y="8.6497364" fill="white" font-size="1.03203px" stroke-width="0.2458" id="tspan4" fill-opacity="1" class="fg">SCHEDULE</tspan></text>
<path id="rect4" style="fill:#ffffff;fill-opacity:1;stroke:none;stroke-width:0.736;stroke-dasharray:none" d="m 3.6023641,1.3570231 c -0.08257,0 -0.1488281,0.056296 -0.1488281,0.1266073 v 0.5229655 c 0,0.070312 0.066258,0.1266072 0.1488281,0.1266072 h 0.1772502 c 0.08257,0 0.1488281,-0.056295 0.1488281,-0.1266072 V 1.4836304 c 0,-0.070312 -0.066258,-0.1266073 -0.1488281,-0.1266073 z m 1.9202962,0 c -0.08257,0 -0.1493449,0.056296 -0.1493449,0.1266073 v 0.5229655 c 0,0.070312 0.066775,0.1266072 0.1493449,0.1266072 h 0.1772502 c 0.08257,0 0.1488281,-0.056295 0.1488281,-0.1266072 V 1.4836304 c 0,-0.070312 -0.066258,-0.1266073 -0.1488281,-0.1266073 z m -2.644283,0.4464844 c -0.2030745,0 -0.3663859,0.1880663 -0.3663859,0.4216797 V 2.7269653 H 6.7696126 V 2.2251872 c 0,-0.2336134 -0.1638243,-0.4216797 -0.3669026,-0.4216797 H 6.0616455 v 0.2764689 c 0,0.1523941 -0.1412341,0.2749186 -0.3167765,0.2749186 H 5.4782186 c -0.1755424,0 -0.3167765,-0.1225245 -0.3167765,-0.2749186 V 1.8035075 H 4.1408325 v 0.2764689 c 0,0.1523941 -0.141234,0.2749186 -0.3167765,0.2749186 H 3.5574056 c -0.1755424,0 -0.3167765,-0.1225245 -0.3167765,-0.2749186 V 1.8035075 Z M 2.5119914,2.9522746 v 2.3052856 c 0,0.2336085 0.1633114,0.4216797 0.3663859,0.4216797 h 2.3662638 c 0.09322,-0.6395513 0.6202814,-1.1322306 1.2547038,-1.1322306 0.092835,0 0.1830585,0.01101 0.2702677,0.031006 V 2.9522746 Z m 0.6790283,0.4718058 h 0.4464844 c 0.08257,0 0.1488281,0.056292 0.1488281,0.1266073 v 0.4051432 c 0,0.070316 -0.06626,0.127124 -0.1488281,0.127124 H 3.1910197 c -0.08257,0 -0.1493449,-0.056812 -0.1493449,-0.127124 V 3.5506877 c 0,-0.070308 0.066778,-0.1266073 0.1493449,-0.1266073 z m 1.2314494,0 h 0.4464844 c 0.082571,0 0.1488281,0.056292 0.1488281,0.1266073 v 0.4051432 c 0,0.070316 -0.06626,0.127124 -0.1488281,0.127124 H 4.4224691 c -0.082571,0 -0.1488281,-0.056812 -0.1488281,-0.127124 V 3.5506877 c 0,-0.070308 0.06626,-0.1266073 0.1488281,-0.1266073 z m 1.2030273,0 h 0.4464844 c 0.08257,0 0.1488281,0.056292 0.1488281,0.1266073 v 0.4051432 c 0,0.070316 -0.06626,0.127124 -0.1488281,0.127124 H 5.6254964 c -0.08257,0 -0.1488281,-0.056812 -0.1488281,-0.127124 V 3.5506877 c 0,-0.070308 0.06626,-0.1266073 0.1488281,-0.1266073 z M 3.1910197,4.5067017 h 0.4464844 c 0.08257,0 0.1488281,0.056811 0.1488281,0.127124 v 0.4051432 c 0,0.070308 -0.06626,0.127124 -0.1488281,0.127124 H 3.1910197 c -0.08257,0 -0.1493449,-0.056812 -0.1493449,-0.127124 V 4.6338257 c 0,-0.070308 0.066778,-0.127124 0.1493449,-0.127124 z m 1.2314494,0 h 0.4464844 c 0.082571,0 0.1488281,0.056811 0.1488281,0.127124 v 0.4051432 c 0,0.070308 -0.06626,0.127124 -0.1488281,0.127124 H 4.4224691 c -0.082571,0 -0.1488281,-0.056812 -0.1488281,-0.127124 V 4.6338257 c 0,-0.070308 0.06626,-0.127124 0.1488281,-0.127124 z m 2.0768758,0.2676839 c -0.046997,0 -0.093142,0.00414 -0.1384928,0.010335 a 1.0543285,1.1073639 0 0 0 -0.01912,0.00258 c -0.047531,0.00748 -0.09379,0.018185 -0.1390096,0.032039 -3.117e-4,9.59e-5 -7.446e-4,-9.58e-5 -0.00103,0 -0.046958,0.01443 -0.092453,0.032393 -0.1364257,0.053227 a 1.0543285,1.1073639 0 0 0 -0.00568,0.00258 c -0.043647,0.021004 -0.085394,0.045526 -0.1255738,0.072347 a 1.0543285,1.1073639 0 0 0 -0.00878,0.00568 c -0.04005,0.027309 -0.078176,0.056786 -0.1142049,0.0894 a 1.0543285,1.1073639 0 0 0 -0.00723,0.00672 c -0.036035,0.033216 -0.069873,0.068927 -0.1012858,0.1069702 -0.031231,0.037823 -0.059615,0.078336 -0.085783,0.1204061 a 1.0543285,1.1073639 0 0 0 -0.00827,0.012919 c -0.025297,0.041943 -0.04837,0.085725 -0.068213,0.1312581 a 1.0543285,1.1073639 0 0 0 -0.00103,0.0031 c -0.020292,0.046948 -0.037698,0.095526 -0.051677,0.1457276 -0.01,0.035889 -0.018777,0.072242 -0.025321,0.109554 l 0.0031,-0.00207 A 1.0543285,1.1073639 0 0 0 5.4446473,5.8817972 1.0543285,1.1073639 0 0 0 6.4993633,6.9892232 1.0543285,1.1073639 0 0 0 7.5535625,5.8817972 1.0543285,1.1073639 0 0 0 6.769631,4.8115783 v -5.168e-4 c -0.00302,-8.126e-4 -0.00627,-0.00126 -0.0093,-0.00207 -0.00155,-4.177e-4 -0.0031,-0.00115 -0.00465,-0.00155 A 1.0543285,1.1073639 0 0 0 6.705038,4.7955555 c -0.00996,-0.00203 -0.019923,-0.00389 -0.029972,-0.00568 -0.00712,-0.00122 -0.014062,-0.00248 -0.021187,-0.00362 a 1.0543285,1.1073639 0 0 0 -0.0062,-0.00103 c -0.00758,-0.00114 -0.015142,-0.00161 -0.022738,-0.00258 a 1.0543285,1.1073639 0 0 0 -0.047542,-0.00465 1.0543285,1.1073639 0 0 0 -0.00827,-0.00103 c -0.0024,-1.633e-4 -0.00483,-3.705e-4 -0.00723,-5.168e-4 a 1.0543285,1.1073639 0 0 0 -0.062528,-0.00207 z m -0.054777,0.3379638 a 0.10775256,0.11317278 0 0 1 0.107487,0.114205 V 5.8151489 H 6.9525472 A 0.10775256,0.11317278 0 0 1 7.0595174,5.9293538 0.10775256,0.11317278 0 0 1 6.9525472,6.0420085 H 6.4445679 A 0.10776334,0.1131841 0 0 1 6.3360474,5.9293538 V 5.2265544 a 0.10775256,0.11317278 0 0 1 0.1085205,-0.114205 z" fill="white" fill-opacity="1" class="fg" xmlns="http://www.w3.org/2000/svg"/>
</svg>