<svg xmlns="http://www.w3.org/2000/svg" xmlns:xlink="http://www.w3.org/1999/xlink" version="1.1" viewBox="87.7 498 17 17">
<rect id="icon-score-clickable" x="86" y="496.3" width="20.4" height="20.4" fill="#788356" fill-opacity="1" stroke-dasharray="0.0452804, 0.18112" stroke-miterlimit="4.1" stroke-width=".0483" style="mix-blend-mode:normal" class="bg-item bg" xmlns="http://www.w3.org/2000/svg"/>
<text x="96.120003" y="512.82971" fill="white" font-family="'Devanagari Sangam MN'" font-size="1.81px" font-weight="bold" letter-spacing=".12px" stroke-linecap="round" stroke-miterlimit="4.1" stroke-width=".432" text-align="center" text-anchor="middle" word-spacing=".0068px" style="line-height:1.2" xml:space="preserve" fill-opacity="1" class="fg" xmlns="http://www.w3.org/2000/svg"><tspan x="96.179878" y="512.82971" fill="white" font-size="1.81px" stroke-width=".432" fill-opacity="1" class="fg">SCORE</tspan></text>
<path d="m101.09 499.5c-0.0363 0-0.0744 3e-3 -0.0872 8e-3 -0.1923 0.0951-0.15899 0.15147-0.18317 0.16597-7e-3 4e-3 -0.0105 1.1119-0.0105 3.3034 0 2.7394-2e-3 3.2765-0.0144 3.3033-0.0105 9e-3 -0.86746 0.0113-3.2496 8e-3l-3.2228-3e-3 -3e-3 -0.56936c-1e-3 -0.24896 8.11e-4 -0.4485-2e-3 -0.5613-0.04804 0.0102-0.21942 0.05-0.30616 0.0757-0.11441 0.0341-0.09455 0.0282-0.141 0.0433-0.03517 0.0112-0.06446 0.0204-0.11978 0.0433l0.01439 1.9417c0.0091 1.2891 0.0041 1.9552 0.01054 1.9578 0.0061 3e-3 0.01054 0.015 0.01054 0.025 0 0.0277 0.08331 0.11011 0.14288 0.14099 3e-5 9e-3 0.14932 0.055 0.20142 0.0153 0.01135-8e-3 0.02878-0.0153 0.03922-0.0153 0.02736 0 0.01287-0.022 0.03253-0.022 0.0071 0 0.02767-0.0164 0.0451-0.0373 0.01743-0.021 0.04054-0.0475 0.05077-0.0586 0.01024-0.011 0.01824-0.0335 0.01824-0.05 0-0.0164 0.0051-0.0344 0.01054-0.0403 0.0071-7e-3 0.01155-0.41359 0.01338-1.1575l3e-3 -1.1468h6.4724l3e-3 1.1575c2e-3 0.74931 6e-3 1.1602 0.0125 1.1683 6e-3 6e-3 0.0105 0.0212 0.0105 0.0347s5e-3 0.025 0.0105 0.025c5e-3 0 0.0128 9e-3 0.0163 0.0202 8e-3 0.026 0.069 0.0854 0.0873 0.0854 8e-3 0 0.0134 6e-3 0.0134 0.0116 0 6e-3 9e-3 0.0104 0.0192 0.0104 0.0105 0 0.029 7e-3 0.0402 0.0153 0.0352 0.0265 0.12864 0.0199 0.19552-0.0134 0.084-0.0419 0.10742-0.0674 0.16006-0.17457 0.0132-0.0269 0.0124-9.4535-1e-3 -9.4803-6e-3 -3e-3 -0.0105-0.0185-0.0105-0.0325 0-0.0358-0.12837-0.1641-0.1641-0.1641-0.0143 0-0.029-5e-3 -0.0325-0.0104-4e-3 -7e-3 -0.0384-0.011-0.0749-0.0115zm-7.0632 3e-3c-0.03567 0-0.07733 6e-3 -0.10554 0.0134-0.04591 0.0121-0.14395 0.10023-0.14395 0.12945 0 7e-3 -0.0041 0.0134-0.0091 0.0134-0.0051 0-0.01368 0.0172-0.01824 0.0392-0.0041 0.022-0.0091 0.85672-0.01155 1.8531 0 1.563-0.0071 1.6463-0.01247 1.8128 0.12972-0.0332 0.23795-0.0655 0.46462-0.1093 0.03709-0.0104 0.06364-0.0153 0.13133-0.0269l-0.01338-1.7591c-0.01287-1.6624-8.11e-4 -1.7698-0.01824-1.8021-0.01024-0.0196-0.0225-0.0365-0.02686-0.0392-0.0041-3e-3 -0.0081-7e-3 -0.0081-0.0135 0-0.0215-0.09638-0.0939-0.12461-0.0939-0.01095 0-0.02523-5e-3 -0.03172-0.0115-0.0061-6e-3 -0.03598-8e-3 -0.07196-7e-3zm0.9346 4.0822c-0.0071 7e-5 -0.01459 3e-3 -0.02108 4e-3 -0.02321 7e-3 -0.16033 0.0127-0.32496 0.0327-0.11226 0.0169-0.19552 0.0368-0.31959 0.0526-0.0827 8e-3 -0.13428 0.0298-0.26749 0.0537-0.05746 0.0104-0.11172 0.0272-0.16866 0.0413-0.11978 0.0298-0.2409 0.058-0.36256 0.0863-0.15254 0.043-0.16732 0.0497-0.24923 0.0776-0.01211 4e-3 -0.03706 8e-3 -0.05371 0.0164-0.01673 9e-3 -0.04404 0.0153-0.06042 0.0153-0.01649 0-0.03277 5e-3 -0.03653 0.0104-0.0036 6e-3 -0.01756 0.0104-0.03062 0.0104-0.01313 0-0.03384 8e-3 -0.04512 0.0164-0.01133 9e-3 -0.03034 0.015-0.04323 0.0153-0.01281 0-0.02619 5e-3 -0.02982 0.0115-0.0036 6e-3 -0.01976 0.0104-0.03545 0.0104-0.01571 0-0.0376 8e-3 -0.04888 0.0164-0.01133 8e-3 -0.03196 0.0153-0.04512 0.0153-0.0131 0-0.02619 5e-3 -0.02982 0.0104-0.0036 5e-3 -0.01789 0.0104-0.03169 0.0104-0.01377 0-0.04109 8e-3 -0.06043 0.0182-0.06445 0.0322-0.07279 0.0344-0.08916 0.0344-0.01633 0-0.02374 3e-3 -0.08836 0.0355-0.01945 0.0101-0.04377 0.0182-0.05479 0.0182-0.01085 0-0.02331 5e-3 -0.02686 0.0104-0.0036 6e-3 -0.01504 0.0104-0.02589 0.0104s-0.03626 8e-3 -0.0556 0.0182c-0.06527 0.0322-0.07198 0.0347-0.09212 0.0347-0.01107 0-0.02627 7e-3 -0.03356 0.0164-0.0073 9e-3 -0.02103 0.0153-0.03169 0.0153-0.01061 0-0.02235 5e-3 -0.02589 0.0115-0.0036 6e-3 -0.0152 0.0104-0.02492 0.0104-0.0097 0-0.04163 0.011-0.0709 0.0249-0.02927 0.014-0.07251 0.033-0.09587 0.0433-0.02337 0.0101-0.05023 0.0218-0.06043 0.028-0.01015 5e-3 -0.0257 0.0104-0.03464 0.0104-0.0088 0-0.01631 5e-3 -0.01631 0.0104 0 6e-3 -0.0071 0.0104-0.01533 0.0104-0.0083 0-0.03034 8e-3 -0.04995 0.0182-0.06446 0.0322-0.07197 0.0344-0.08836 0.0344-0.0088 0-0.01631 5e-3 -0.01631 8e-3 0 5e-3 -0.02025 0.0166-0.04512 0.0268-0.02482 0.0104-0.05264 0.0236-0.06151 0.0288-0.0087 5e-3 -0.03088 0.0166-0.04995 0.0257l-0.06903 0.0325c-0.01896 9e-3 -0.04217 0.0199-0.05075 0.025-0.0478 0.026-0.06499 0.0335-0.07949 0.0335-0.0088 0-0.01533 3e-3 -0.01533 0.0101 0 6e-3 -0.01227 0.0132-0.02686 0.0172-0.01458 4e-3 -0.02686 0.0113-0.02686 0.0164 0 5e-3 -0.0088 0.0101-0.02014 0.0101-0.01133 0-0.0235 5e-3 -0.02686 0.0101-0.0079 0.0129-0.06875 0.0433-0.08621 0.0433-0.0074 0-0.01533 3e-3 -0.01727 8e-3 -0.0019 5e-3 -0.02739 0.0207-0.05666 0.0355-0.08863 0.0449-0.12676 0.0666-0.13052 0.0747-0.0019 5e-3 -0.01278 8e-3 -0.02398 8e-3 -0.01123 0-0.02014 5e-3 -0.02014 0.0104 0 6e-3 -0.01227 0.0132-0.02686 0.0172-0.01458 3e-3 -0.02686 9e-3 -0.02686 0.0145 0 4e-3 -8e-3 0.0112-0.01823 0.0145-0.0221 7e-3 -0.11011 0.0564-0.23123 0.13052-0.01165 7e-3 -0.02766 0.0169-0.03652 0.0212-0.0087 5e-3 -0.01815 0.0104-0.02111 0.0134-0.0091 0.0104-0.0478 0.0342-0.06714 0.0403-0.01026 3e-3 -0.01823 0.0102-0.01823 0.0153 0 5e-3 -0.0089 8e-3 -0.01918 8e-3 -0.01029 0-0.03115 0.0124-0.04699 0.0269-0.01577 0.0145-0.0341 0.0269-0.04028 0.0269-0.0064 0-0.02455 0.0112-0.04028 0.0257-0.01574 0.0148-0.03304 0.0269-0.03841 0.0269-0.0054 0-0.02497 0.0124-0.04404 0.0269-0.01912 0.0148-0.03975 0.0268-0.04593 0.0268-0.0063 0-0.01149 5e-3 -0.01149 0.0104 0 5e-3 -0.0047 0.0104-0.01055 0.0104-6e-3 0-0.04323 0.0234-0.08353 0.0526-0.04001 0.029-0.07735 0.0526-0.08245 0.0526s-0.02264 0.0124-0.03841 0.0269c-0.01574 0.0148-0.03088 0.0269-0.03464 0.0269-0.0088 0-0.08379 0.0561-0.08836 0.0661-0.0019 5e-3 -0.0088 8e-3 -0.01439 8e-3 -0.01307 0-0.12515 0.083-0.14959 0.11039-0.01026 0.0112-0.01821 0.0274-0.01821 0.0355 0 8e-3 -0.0062 0.0239-0.01343 0.0355-0.01047 0.0166-0.01047 0.0255 0 0.0422 0.0073 0.0115 0.01343 0.0274 0.01343 0.0355 0 0.0174 0.02686 0.0483 0.06338 0.0728 0.03626 0.0236 0.14046 0.0241 0.18128 0 0.01694-0.0101 0.03169-0.021 0.03169-0.0258 0-4e-3 0.0044-8e-3 0.01055-8e-3 0.01003 0 0.08083-0.0478 0.09507-0.0641 0.0029-3e-3 0.02129-0.0148 0.04028-0.0258 0.01898-0.011 0.03464-0.0236 0.03464-0.0288 0-4e-3 0.0049-8e-3 0.01055-8e-3 0.01217 0 0.10984-0.0653 0.11521-0.0768 0.0019-5e-3 0.0099-7e-3 0.01823-7e-3 0.0082 0 0.01533-5e-3 0.01533-0.0104 0-6e-3 0.0053-0.0115 0.01149-0.0115 0.0062 0 0.02686-0.0112 0.04593-0.0257 0.01912-0.0148 0.04029-0.0269 0.04699-0.0269 0.0068 0 0.01246-3e-3 0.01246-8e-3s0.01743-0.0172 0.03921-0.0288c0.02189-0.0115 0.04216-0.0239 0.04512-0.0269 0.0087-0.0104 0.13079-0.0876 0.1649-0.10446 0.01751-8e-3 0.03357-0.0199 0.03652-0.0231 0.0029-4e-3 0.02272-0.0156 0.04323-0.0269 0.02044-0.0112 0.03921-0.0228 0.04217-0.0268 0.0069-9e-3 0.13804-0.0822 0.16221-0.0902 0.01026-3e-3 0.01821-0.0112 0.01821-0.0164 0-5e-3 0.0072-8e-3 0.01631-8e-3 0.0091 0 0.03277-0.0124 0.05183-0.0269 0.01914-0.0148 0.03814-0.0269 0.04217-0.0269 4e-3 0 0.02578-0.0112 0.04888-0.0257 0.02313-0.0148 0.04969-0.0269 0.05855-0.0269 0.0089 0 0.01631-5e-3 0.01631-0.0104 0-6e-3 0.01085-0.0132 0.02398-0.0172s0.02583-0.0104 0.02874-0.0145c0.0029-4e-3 0.04619-0.0277 0.09588-0.0526s0.1042-0.0534 0.12193-0.0642c0.01751-0.0102 0.04001-0.0212 0.04995-0.0212 0.0097 0 0.01917-5e-3 0.02111-8e-3 5e-3 -0.0112 0.07117-0.0451 0.08836-0.0451 0.0078 0 0.01533-5e-3 0.01727-8e-3 0.0019-4e-3 0.02082-0.0158 0.04136-0.0249 0.02044-9e-3 0.06364-0.0298 0.09588-0.0451 0.03223-0.0153 0.06364-0.028 0.0709-0.028 0.0072 0 0.01343-5e-3 0.01343-0.0104 0-6e-3 0.0092-0.0104 0.02014-0.0104 0.01095 0 0.0253-7e-3 0.0325-0.0164 0.0073-9e-3 0.02199-0.0153 0.0325-0.0153 0.01061 0 0.02235-5e-3 0.02589-0.0104 0.0036-6e-3 0.01834-0.0115 0.0325-0.0115 0.01426 0 0.02589-3e-3 0.02589-8e-3 0-0.0107 0.07492-0.0441 0.09883-0.0441 0.0097 0 0.01823-5e-3 0.01823-0.0116 0-6e-3 0.0051-0.0104 0.01149-0.0104 0.01193 0 0.0325-8e-3 0.13992-0.0566 0.03384-0.0153 0.06768-0.028 0.07573-0.028 0.0082 0 0.01851-5e-3 0.02205-0.0104 0.0036-6e-3 0.01761-0.0104 0.03062-0.0104 0.01308 0 0.02874-5e-3 0.03545-0.0124 0.01471-0.0148 0.08487-0.041 0.11119-0.0414 0.01026 0 0.01917-3e-3 0.01917-0.0101 0-6e-3 0.01691-0.0132 0.03732-0.0172 0.02049-4e-3 0.03895-0.0112 0.04217-0.0164 0.0032-5e-3 0.01743-0.0101 0.03062-0.0101 0.0133 0 0.02739-3e-3 0.03169-7e-3 0.01174-0.0115 0.10474-0.0459 0.12569-0.0459 0.01026 0 0.01918-5e-3 0.01918-0.0104 0-6e-3 8e-3 -0.0104 0.01823-0.0104 0.01024 0 0.03223-7e-3 0.04888-0.0153 0.01673-9e-3 0.04109-0.0164 0.05479-0.0164 0.01359 0 0.0282-4e-3 0.03169-0.0104 0.0036-6e-3 0.01976-0.0104 0.03545-0.0104 0.01571 0 0.0376-8e-3 0.04888-0.0164 0.01133-8e-3 0.03088-0.0153 0.04404-0.0153 0.01313 0 0.02713-5e-3 0.03062-0.0104 0.0036-6e-3 0.01976-0.0113 0.03545-0.0116 0.01571 0 0.0376-7e-3 0.04888-0.0153 0.01133-8e-3 0.03384-0.0153 0.04995-0.0153 0.01606 0 0.03196-4e-3 0.03545-0.0104 0.0036-6e-3 0.01995-0.0115 0.03652-0.0115 0.01652 0 0.04377-7e-3 0.06042-0.0153 0.01672-9e-3 0.04084-0.0164 0.05371-0.0164 0.01277 0 0.02564-4e-3 0.0298-0.0104 3e-3 -5e-3 0.01824-0.0104 0.03253-0.0104s0.03486-3e-3 0.0451-8e-3c0.02625-0.0134 0.10635-0.0352 0.1563-0.0414 0.02331-3e-3 0.04783-9e-3 0.0526-0.0145 0.0051-5e-3 0.0226-0.0101 0.03841-0.0101 0.01561 0 0.04165-6e-3 0.05858-0.0153 0.01672-9e-3 0.04865-0.0164 0.07013-0.0164 0.02159 0 0.04186-5e-3 0.04591-0.0104 0.0041-6e-3 0.02929-0.0104 0.05746-0.0104 0.02959 0 0.05371-5e-3 0.05554-0.0124 2e-3 -7e-3 0.03172-0.0142 0.06527-0.0172 0.03334-3e-3 0.06314-9e-3 0.06608-0.0145 3e-3 -5e-3 0.03091-8e-3 0.06152-8e-3s0.06121-5e-3 0.06608-0.0104c0.01145-0.0116 0.13456-0.0311 0.23795-0.0384 0.0379-3e-3 0.07844-9e-3 0.0902-0.0145 0.01165-5e-3 0.06527-0.0124 0.11898-0.0153 0.09587-6e-3 0.17913-0.021 0.22156-0.0403 0.03192-0.0145 0.07874-0.0991 0.07874-0.1418 0-0.0202-0.0041-0.0365-0.0091-0.0365-0.0051 0-0.01318-0.0104-0.01723-0.0231-0.0149-0.047-0.08969-0.0924-0.14288-0.0921zm-0.05371 0.66068c-0.05716 0-0.10715 3e-3 -0.11119 7e-3 -0.0081 8e-3 -0.13965 0.0282-0.23123 0.0373-0.03172 3e-3 -0.06202 0.0102-0.06719 0.0145-0.0051 6e-3 -0.03091 9e-3 -0.05746 0.0101-0.02665 1.8e-4 -0.05878 7e-3 -0.07196 0.0142-0.01317 8e-3 -0.04216 0.0142-0.06415 0.0145-0.02209 0-0.04297 5e-3 -0.04591 0.0101-3e-3 6e-3 -0.02513 0.0104-0.04804 0.0104-0.0228 0-0.05402 7e-3 -0.06902 0.0142-0.0151 8e-3 -0.04084 0.0145-0.05746 0.0145-0.01682 0-0.03436 5e-3 -0.0373 0.0101-3e-3 6e-3 -0.02452 0.0104-0.04804 0.0104-0.02341 0-0.04328 5e-3 -0.04328 0.0101 0 5e-3 -0.02148 0.0132-0.04804 0.0164-0.02645 4e-3 -0.04966 0.0102-0.0526 0.0145-3e-3 6e-3 -0.02047 0.0101-0.03841 0.0101-0.01784 0-0.03547 5e-3 -0.03841 0.0101-3e-3 6e-3 -0.0153 0.0104-0.02686 0.0104-0.01155 0-0.03273 7e-3 -0.04804 0.0145-0.0151 8e-3 -0.04186 0.0142-0.05939 0.0142s-0.03547 5e-3 -0.03841 0.0101c-3e-3 6e-3 -0.01743 0.0104-0.03172 0.0104-0.01419 0-0.03385 7e-3 -0.04408 0.0145-0.01024 8e-3 -0.02848 0.0145-0.04034 0.0145s-0.02473 5e-3 -0.02797 0.0101c-3e-3 6e-3 -0.01865 0.0104-0.03466 0.0104-0.01591 0-0.03519 7e-3 -0.04324 0.0145-0.0079 8e-3 -0.02713 0.0145-0.04217 0.0145-0.01515 0-0.03034 5e-3 -0.03356 0.0101-0.0032 6e-3 -0.01633 0.0104-0.02874 0.0104-0.01247 0-0.03706 6e-3 -0.05479 0.0153-0.05989 0.0301-0.06499 0.0325-0.08916 0.0325-0.01327 0-0.02398 5e-3 -0.02398 0.0101 0 6e-3 -8e-3 0.0104-0.01727 0.0104-0.0092 0-0.02901 7e-3 -0.04405 0.0145-0.01512 8e-3 -0.03491 0.0142-0.04512 0.0142-0.01829 0-0.02433 3e-3 -0.08352 0.0317-0.01759 9e-3 -0.04055 0.0164-0.05075 0.0164-0.01013 0-0.01823 5e-3 -0.01823 0.0101 0 6e-3 -0.01265 0.0104-0.02793 0.0104-0.01517 0-0.03276 7e-3 -0.03921 0.0142-0.0066 8e-3 -0.02009 0.0145-0.02982 0.0145-0.0096 0-0.01976 5e-3 -0.02302 0.0101-0.0032 6e-3 -0.01348 0.0104-0.02302 0.0104-0.0094 0-0.0376 0.0107-0.06231 0.0239-0.02482 0.0134-0.05398 0.0239-0.06418 0.0239-0.01029 0-0.01823 5e-3 -0.01823 0.0104 0 6e-3 -0.0069 0.0101-0.01533 0.0101-0.0084 0-0.02712 6e-3 -0.04136 0.0134-0.01402 7e-3 -0.03571 0.018-0.04888 0.0231-0.01318 5e-3 -0.0478 0.0204-0.07681 0.0335-0.029 0.0132-0.05908 0.0265-0.06714 0.0298-0.0079 3e-3 -0.02087 0.0104-0.02873 0.0145-0.03814 0.0212-0.05936 0.0298-0.07198 0.0298-0.0075 0-0.01458 3e-3 -0.01631 8e-3 -0.0019 4e-3 -0.01891 0.014-0.03733 0.0231-0.11065 0.0516-0.24466 0.11951-0.24735 0.12569-0.0019 4e-3 -0.0096 7e-3 -0.01727 7e-3 -0.0076 0-0.03088 0.0111-0.05184 0.0239-0.0209 0.0132-0.04484 0.0249-0.05264 0.0249-8e-3 0-0.01439 3e-3 -0.01439 7e-3 0 8e-3 -0.0666 0.0403-0.08433 0.0403-0.0062 0-0.01149 3e-3 -0.01149 7e-3s-0.0243 0.021-0.05479 0.0365c-0.03034 0.0156-0.06123 0.0341-0.06822 0.0403-7e-3 7e-3 -0.01922 0.0116-0.02686 0.0116-0.0075 0-0.01343 5e-3 -0.01343 0.0104 0 6e-3 -0.0079 0.0104-0.01821 0.0104-0.01024 0-0.02103 5e-3 -0.02398 8e-3 -0.0048 8e-3 -0.04001 0.0293-0.14959 0.0902-0.01848 0.0104-0.04056 0.0244-0.04888 0.0317-0.0083 7e-3 -0.01867 0.0134-0.02302 0.0134-0.0044 0-0.02202 0.0107-0.03921 0.0239-0.0173 0.0132-0.03572 0.0239-0.04136 0.0239-0.0056 0-0.01056 5e-3 -0.01056 0.0104 0 6e-3 -0.0086 0.0101-0.01917 0.0101-0.01055 0-0.01917 5e-3 -0.01917 0.0104 0 5e-3 -0.01665 0.0158-0.03652 0.0257-0.01976 9e-3 -0.0376 0.0191-0.04028 0.022-9e-3 0.0107-0.12757 0.0862-0.13536 0.0862-0.0042 0-0.0088 3e-3 -0.01055 7e-3 -0.0019 4e-3 -0.04834 0.0368-0.10367 0.0739-0.05533 0.0368-0.10958 0.0741-0.11978 0.0843-0.01037 0.0101-0.02148 0.0164-0.02492 0.0164-0.0034 0-0.01823 0.0111-0.03358 0.0239-0.01533 0.0132-0.03142 0.0239-0.03545 0.0239-0.0039 0-0.0067 7e-3 -0.0067 0.0145 0 8e-3 -0.0044 0.0145-0.0096 0.0145-0.01385 0-0.01255 0.1093 0.0019 0.13723 0.01348 0.026 0.03169 0.0438 0.06043 0.0615v-3e-3c0.03706 0.0226 0.13912 0.0127 0.16785-0.0164 0.0073-7e-3 0.11897-0.0814 0.12945-0.0854 0.0051-3e-3 0.01926-0.0137 0.0325-0.0257 0.01338-0.0124 0.02982-0.0231 0.03652-0.0231s0.01247-5e-3 0.01247-0.0101c0-6e-3 0.0065-0.0104 0.01439-0.0104 0.0079 0 0.01432-3e-3 0.01439-7e-3 8.1e-5 -4e-3 0.02603-0.0228 0.05747-0.0413 0.03143-0.0185 0.05747-0.0371 0.05747-0.0414 7e-5 -4e-3 0.0055-7e-3 0.01149-7e-3 0.0061 0 0.0249-0.011 0.04217-0.0239 0.0173-0.0132 0.03465-0.0239 0.03841-0.0239 0.0039 0 0.02106-0.0108 0.0384-0.0239 0.0173-0.0132 0.03438-0.0239 0.03734-0.0239 0.0086 0 0.08648-0.0513 0.09024-0.0604 0.0019-4e-3 0.01094-7e-3 0.02111-7e-3 0.01003 0 0.01821-6e-3 0.01821-0.0101 0-4e-3 8e-3 -0.0113 0.01727-0.0145 0.01917-6e-3 0.10017-0.0532 0.10742-0.0623 0.0027-3e-3 0.01776-0.0132 0.03357-0.0202 0.01585-8e-3 0.04566-0.0236 0.06527-0.0355 0.01968-0.0115 0.04136-0.022 0.04888-0.022 0.0076 0 0.01555-6e-3 0.01727-0.0101 4e-3 -0.0104 0.09588-0.0607 0.23875-0.13241 0.0607-0.0303 0.11146-0.0594 0.11307-0.0633 0.0019-4e-3 0.0096-7e-3 0.01727-7e-3 0.0076 0 0.03089-0.011 0.05184-0.0239 0.0209-0.0132 0.04108-0.0239 0.04593-0.0239 0.0078 0 0.1042-0.0451 0.17537-0.0825 0.01402-7e-3 0.03276-0.0134 0.04136-0.0134 0.0084 0 0.01533-5e-3 0.01533-0.0104 0-6e-3 0.01079-0.0101 0.02399-0.0101 0.01317 0 0.02398-3e-3 0.02398-8e-3 0-4e-3 0.01786-0.0148 0.04028-0.0249 0.02243-9e-3 0.05425-0.0218 0.07009-0.0288 0.01582-7e-3 0.04163-0.0188 0.05747-0.0249 0.01584-6e-3 0.04162-0.018 0.05747-0.0239 0.01585-6e-3 0.03948-0.0161 0.05264-0.0212 0.04512-0.0174 0.08192-0.0338 0.10743-0.047 0.01402-7e-3 0.03411-0.0134 0.04512-0.0134 0.01096 0 0.02014-5e-3 0.02014-0.0101 0-6e-3 8e-3 -0.0104 0.01821-0.0104 0.01013 0 0.0333-7e-3 0.05075-0.0164 0.05908-0.0298 0.06473-0.0317 0.08353-0.0317 0.01018 0 0.0333-7e-3 0.05075-0.0164 0.05908-0.0301 0.06472-0.0317 0.08352-0.0317 0.01021 0 0.0333-7e-3 0.05075-0.0164 0.05989-0.0301 0.06553-0.0317 0.08916-0.0317 0.01294 0 0.02552-5e-3 0.02874-0.0104 0.0032-6e-3 0.01595-0.0101 0.02793-0.0101 0.01186 0 0.0301-7e-3 0.04023-0.0145 0.01024-8e-3 0.0298-0.0142 0.04409-0.0142 0.01419 0 0.02848-5e-3 0.03172-0.0101 3e-3 -6e-3 0.02088-0.0104 0.03841-0.0104 0.01743 0 0.03598-7e-3 0.04327-0.0145 0.0071-8e-3 0.02442-0.0145 0.03922-0.0145 0.0149 0 0.02959-5e-3 0.03253-0.0101 3e-3 -6e-3 0.02027-0.0104 0.0373-0.0104s0.03598-5e-3 0.04216-0.0104c0.01013-0.0101 0.05209-0.022 0.12273-0.0347 0.01581-3e-3 0.04185-0.0111 0.05858-0.0182 0.01662-7e-3 0.04135-0.0135 0.05483-0.0135s0.02767-5e-3 0.03061-0.0104c3e-3 -6e-3 0.0227-0.0101 0.04327-0.0101 0.02037 0 0.04003-5e-3 0.04327-0.0104 3e-3 -6e-3 0.01895-0.0104 0.03466-0.0104 0.01561 0 0.04327-7e-3 0.06233-0.0142 0.01895-8e-3 0.04865-0.0134 0.06608-0.0134s0.03547-5e-3 0.03841-0.0104c3e-3 -6e-3 0.02412-0.0104 0.04702-0.0104 0.0228 0 0.05402-7e-3 0.06902-0.0145 0.0151-8e-3 0.04804-0.0134 0.07277-0.0134s0.04784-5e-3 0.05077-0.0104c3e-3 -6e-3 0.03223-0.0104 0.06527-0.0104s0.06496-5e-3 0.07013-0.0101c0.01115-0.0113 0.11522-0.0274 0.22237-0.0347 0.09395-6e-3 0.1418-0.0322 0.17269-0.0921l0.023-0.0451-0.01723-0.0441c-0.01794-0.0441-0.03172-0.0615-0.07013-0.0929-0.01672-0.0137-0.03892-0.0172-0.1238-0.0172z" fill="white" stroke-width=".31691" fill-opacity="1" class="fg" xmlns="http://www.w3.org/2000/svg"/>
<path d="m97.846 499.76c-0.19197 5e-5 -0.40762 0.015-0.541 0.044-0.28297 0.0618-0.64696 0.19945-0.69931 0.26302-0.01945 0.0237-0.02019 0.0526-5e-3 0.18947 0.01 0.0886 0.03391 0.2169 0.05273 0.28546 0.0187 0.0674 0.04026 0.12254 0.04887 0.12254 0.0087 0 0.04288-0.0216 0.07567-0.0479 0.08402-0.0666 0.35153-0.22313 0.55596-0.3241 0.20443-0.10234 0.51233-0.19072 0.76663-0.21815 0.20568-0.0224 0.66192-9e-3 0.82646 0.0249 0.06495 0.0132 0.12092 0.0213 0.12453 0.0172 0.0087-0.01-0.11593-0.0797-0.25804-0.1446-0.15208-0.0691-0.4525-0.15707-0.65194-0.19197-0.07342-0.0128-0.17826-0.0187-0.29294-0.0192zm-1.4959 0.46497c-0.0025-2e-3 -0.08364 0.0729-0.182 0.16703l-0.1795 0.17078 9.47e-4 0.14335c0.0012 0.42881 0.14959 0.89253 0.41011 1.2839 0.14709 0.22438 0.40388 0.48117 0.632 0.63325 0.10496 0.0698 0.22687 0.14335 0.2705 0.1633 0.04375 0.0207 0.08576 0.0383 0.092 0.0383 0.01945 2.8e-4 0.06819-0.11145 0.11967-0.2705 0.04837-0.14959 0.0986-0.32286 0.0986-0.33906 0-5e-3 -0.06233-0.0535-0.13837-0.10821-0.21565-0.15332-0.49737-0.43753-0.62452-0.6295-0.1077-0.16205-0.27798-0.48117-0.35776-0.67189-0.02319-0.0555-0.06395-0.20817-0.09-0.34155-0.02605-0.13214-0.04924-0.24059-0.05173-0.24557zm2.1067 0.0718c-0.13463 0-0.26925 5e-3 -0.36274 0.0192-0.31164 0.046-0.54349 0.12715-0.82895 0.28796-0.17327 0.0977-0.44377 0.28296-0.46745 0.32036-0.0087 0.0141 0.02132 0.08 0.09386 0.20318 0.05909 0.10023 0.11792 0.19571 0.13089 0.21067 0.01321 0.0153 0.03154 0.0278 0.04114 0.0278 0.01-3e-5 0.11456-0.0583 0.2331-0.12964 0.40139-0.24183 0.61829-0.33532 0.91247-0.39516 0.56468-0.11642 1.0708-0.0668 1.6205 0.15956 0.06357 0.0262 0.11842 0.0453 0.12166 0.0411 0.01807-0.0181-0.14959-0.2543-0.26676-0.37397-0.12715-0.13088-0.50734-0.28172-0.86635-0.34404-0.0915-0.0157-0.22562-0.0246-0.359-0.0258zm-2.7175 0.62078c-0.04064-4e-3 -0.24931 0.46496-0.2705 0.60706-0.02032 0.13962 0.08751 0.52729 0.22064 0.79156 0.24806 0.49363 0.68934 0.92369 1.163 1.1306 0.04438 0.0193 0.08414 0.035 0.089 0.0354 0.02431 1e-3 0.26427-0.29419 0.31039-0.38269 0.02169-0.0419 0.02169-0.0424-0.07467-0.0929-0.32784-0.17202-0.68809-0.48241-0.89128-0.76662-0.27424-0.38394-0.44003-0.77286-0.50984-1.1967-0.01122-0.0682-0.02792-0.1259-0.0354-0.1259zm2.9917 0.10246c-0.23934 5e-3 -0.48864 0.0441-0.74793 0.12354-0.1633 0.05-0.39142 0.16703-0.64446 0.32908l-0.13213 0.0861 0.08526 0.0871c0.10533 0.1077 0.28297 0.2543 0.38892 0.32286 0.05248 0.0334 0.09237 0.0487 0.1188 0.044 0.02182-5e-3 0.13961-0.0442 0.26302-0.09 0.12254-0.0457 0.26551-0.097 0.31787-0.11294 0.26801-0.0839 0.74543-0.10845 1.0508-0.0546 0.19446 0.0342 0.51358 0.12091 0.65444 0.177 0.0571 0.0229 0.1087 0.0369 0.11393 0.0317 0.014-0.0141-0.0263-0.27175-0.0613-0.39516-0.0167-0.0585-0.0499-0.12839-0.0728-0.15582-0.07654-0.091-0.44626-0.24681-0.7928-0.33282-0.17327-0.0434-0.35402-0.0631-0.53975-0.0603zm0.40887 0.94364c-0.03902-7.9e-4 -0.09262 7.1e-4 -0.15582 4e-3l-0.20568 0.0112-0.0192 0.24058c-0.02181 0.28297-0.05098 0.44377-0.12715 0.68311-0.13961 0.43379-0.39017 0.83144-0.70928 1.1281-0.13089 0.12166-0.27299 0.22313-0.56468 0.39889-0.182 0.10958-0.18698 0.10197 0.10733 0.14211 0.09125 0.013 0.22812 0.0239 0.30416 0.0239 0.15956 3e-3 0.20443-0.0166 0.48241-0.20069 0.27424-0.182 0.58962-0.54599 0.74045-0.85513 0.10047-0.20568 0.19695-0.48865 0.23934-0.7043 0.0536-0.2705 0.03989-0.81025-0.02206-0.86136-0.0062-5e-3 -0.03091-7e-3 -0.06993-9e-3zm0.33407 0.0546 0.01434 0.0757c0.0268 0.13837 0.02156 0.55471-0.01 0.72798-0.0723 0.40264-0.19945 0.74045-0.38892 1.0346-0.11007 0.17077-0.3054 0.40512-0.41759 0.50111-0.05572 0.0474-0.11219 0.0967-0.1259 0.1092-0.09848 0.0945 0.48241-0.19696 0.67438-0.33782 0.20194-0.14834 0.25056-0.19321 0.38269-0.34778 0.1982-0.23186 0.34903-0.48242 0.44751-0.73921 0.0962-0.25304 0.18822-0.75416 0.14709-0.7928-0.058-0.0539-0.56593-0.22936-0.66316-0.22936zm-0.9748 0.0192c-0.08589-9e-3 -0.53851 0.15831-0.61829 0.23311-0.03303 0.0308-0.05759 0.0831-0.08813 0.18573-0.2169 0.73172-0.54474 1.173-1.1867 1.5956l-0.17452 0.1168 0.08327 0.0526c0.04575 0.0294 0.13213 0.0784 0.19322 0.1082 0.06096 0.0299 0.11904 0.0536 0.12964 0.0536 0.04999 0 0.30166-0.0971 0.40637-0.15707 0.16579-0.0952 0.38269-0.25305 0.52355-0.38269 0.35277-0.32285 0.64571-0.87756 0.72175-1.3712 0.0273-0.1795 0.03952-0.41759 0.02107-0.43629-0.0025-2e-3 -0.0062-4e-3 -0.01247-5e-3zm-3.1164 0.1982v0.0861c3.74e-4 0.12341 0.05472 0.45 0.09486 0.57216 0.10994 0.33408 0.4687 0.90624 0.66067 1.0521l0.07953 0.0603 0.0996-0.0546c0.15956-0.0879 0.42009-0.26177 0.41261-0.27424-0.0037-6e-3 -0.09112-0.0613-0.19197-0.12166-0.46746-0.27798-0.82895-0.66067-1.0521-1.1119z" fill="white" stroke-width="1.4709" fill-opacity="1" class="fg" xmlns="http://www.w3.org/2000/svg"/>
</svg>