<svg xmlns="http://www.w3.org/2000/svg" xmlns:xlink="http://www.w3.org/1999/xlink" version="1.1" viewBox="30.943 2.1372 9.8535 9.8535">
<rect id="icon-move-clickable" x="29.95765" y="1.1518500000000005" width="11.8242" height="11.8242" fill="darkgreen" fill-opacity="1" stroke-dasharray="0.0452804, 0.18112" stroke-miterlimit="4.1" stroke-width=".028001" style="mix-blend-mode:normal" class="bg-item bg" xmlns="http://www.w3.org/2000/svg"/>
<text x="35.80447" y="10.763562" fill="white" font-family="'Devanagari Sangam MN'" font-size="1.0577px" font-weight="bold" letter-spacing=".14689px" stroke-linecap="round" stroke-miterlimit="4.1" stroke-width=".28516" text-align="center" text-anchor="middle" word-spacing=".0083458px" style="line-height:1.2;mix-blend-mode:normal" xml:space="preserve" fill-opacity="1" class="fg" xmlns="http://www.w3.org/2000/svg"><tspan x="35.839375" y="10.763562" fill="white" font-size="1.0577px" stroke-width=".28516" fill-opacity="1" class="fg">MOVE</tspan></text>
<path d="m35.895 3.0857a2.7767 2.7767 0 0 0-2.7766 2.7771 2.7767 2.7767 0 0 0 2.7766 2.7766 2.7767 2.7767 0 0 0 2.7771-2.7766 2.7767 2.7767 0 0 0-2.7771-2.7771zm-0.52348 0.94671 0.78496 1.0459h-0.52297v1.0459h-0.52296v-1.0459h-0.52245l0.78342-1.0459zm0.78496 1.5689h0.52296v1.0454h0.52297l-0.78342 1.0459-0.78548-1.0459h0.52297v-1.0454z" fill="white" stroke-width=".77845" fill-opacity="1" class="fg" xmlns="http://www.w3.org/2000/svg"/>
</svg>