<svg xmlns="http://www.w3.org/2000/svg" xmlns:xlink="http://www.w3.org/1999/xlink" version="1.1" viewBox="10.063 0.14332 9.8535 9.853">
<rect id="icon-home-clickable" x="9.077650000000002" y="-0.8419799999999996" width="11.8242" height="11.823599999999999" fill="darkgreen" fill-opacity="1" stroke-dasharray="0.0452804, 0.18112" stroke-width=".028" style="mix-blend-mode:normal" class="bg-item bg" xmlns="http://www.w3.org/2000/svg"/>
<text id="txt-home" transform="scale(.97571 1.0249)" x="15.256162" y="8.6497364" fill="white" font-family="'Devanagari Sangam MN'" font-size="1.032px" font-weight="bold" letter-spacing=".16627px" stroke-linecap="round" stroke-width=".2458" text-align="center" text-anchor="middle" word-spacing=".0094471px" style="line-height:1.2;mix-blend-mode:normal" xml:space="preserve" fill-opacity="1" class="fg" xmlns="http://www.w3.org/2000/svg"><tspan x="15.290218" y="8.6497364" fill="white" font-size="1.032px" stroke-width=".2458" fill-opacity="1" class="fg">HOME</tspan></text>
<path id="view-home-icon" d="m14.89 1.1187c-0.04027 0.00204-0.07923 0.013167-0.11463 0.034403l-2.8753 1.7253c-0.14159 0.084969-0.1702 0.29788-0.06383 0.4772l0.02016 0.033958c0.10638 0.17932 0.306 0.25521 0.44758 0.17024l0.18181-0.10894h0.02098c-0.0059 0.030638-0.01056 0.062157-0.01056 0.095263v2.6898c0 0.21515 0.13309 0.38855 0.29853 0.38855h1.5297v-1.8791h1.3651v1.8791h1.555c0.16544 0 0.29853-0.1734 0.29853-0.38855v-2.6898c0-0.028044-0.0028-0.055262-0.0072-0.08159l0.15913 0.095263c0.14159 0.084969 0.3412 0.00908 0.44758-0.17024l0.02016-0.033957c0.10638-0.17932 0.07819-0.39223-0.0634-0.4772l-2.8752-1.7253c-0.06717-0.040309-0.14748-0.044064-0.22463-0.018091-0.0365-0.012282-0.07342-0.018128-0.1096-0.016321z" fill="white" stroke-linejoin="round" stroke-width="1.0825" fill-opacity="1" class="fg" xmlns="http://www.w3.org/2000/svg"/>
</svg>