<svg xmlns="http://www.w3.org/2000/svg" xmlns:xlink="http://www.w3.org/1999/xlink" version="1.1" viewBox="10.695 1.816 9.853 9.853">
<rect id="icon-close-clickable" x="9.709700000000002" y="0.8307000000000004" width="11.823599999999999" height="11.823599999999999" fill="darkgreen" fill-opacity="1" stroke-dasharray="0.0452804, 0.18112" stroke-width=".028" style="mix-blend-mode:normal" class="bg-item bg" xmlns="http://www.w3.org/2000/svg"/>
<text x="15.562188" y="10.442361" fill="white" font-family="'Devanagari Sangam MN'" font-size="1.0577px" font-weight="bold" letter-spacing=".069812px" stroke-linecap="round" stroke-width=".10598" text-align="center" text-anchor="middle" word-spacing=".0039665px" style="line-height:1.2" xml:space="preserve" fill-opacity="1" class="fg" xmlns="http://www.w3.org/2000/svg"><tspan x="15.597094" y="10.442361" fill="white" font-size="1.0577px" stroke-width=".10598" fill-opacity="1" class="fg">CLOSE</tspan></text>
<path d="m15.632 2.7122a2.7767 2.7767 0 0 0-2.7766 2.7766 2.7767 2.7767 0 0 0 2.7766 2.7771 2.7767 2.7767 0 0 0 2.7766-2.7771 2.7767 2.7767 0 0 0-2.7766-2.7766zm-1.1126 1.3581a0.309 0.309 0 0 1 0.21911 0.091984l0.89348 0.89038 0.89349-0.89038a0.309 0.309 0 0 1 0.21859-0.091984 0.309 0.309 0 0 1 0.21859 0.091984 0.309 0.309 0 0 1 0 0.43718l-0.89245 0.88987 0.89245 0.88935a0.309 0.309 0 0 1 0 0.4377 0.309 0.309 0 0 1-0.43718 0l-0.89297-0.8909-0.894 0.8909a0.309 0.309 0 0 1-0.4377 0 0.309 0.309 0 0 1 0-0.4377l0.89349-0.88987-0.89142-0.88935a0.309 0.309 0 0 1-0.002067-0.43718 0.309 0.309 0 0 1 0.21859-0.091984z" fill="white" stroke-width=".38922" fill-opacity="1" class="fg" xmlns="http://www.w3.org/2000/svg"/>
</svg>