<svg xmlns="http://www.w3.org/2000/svg" xmlns:xlink="http://www.w3.org/1999/xlink" version="1.1" viewBox="10.694709 1.8159605 9.8530178 9.8530188">
<rect id="icon-start-clickable" x="9.70940722" y="0.8306586200000003" width="11.823621359999999" height="11.823622559999999" fill="transparent" fill-opacity="0" stroke-dasharray="0.0452804, 0.18112" stroke-width="0.0279995" style="display:inline;mix-blend-mode:normal;stroke-miterlimit:4.1" xmlns:inkscape="http://www.inkscape.org/namespaces/inkscape" inkscape:label="icon-start-clickable" class="bg-item bg" xmlns="http://www.w3.org/2000/svg"/>
<text x="15.562188" y="10.442361" fill="#485042f5" stroke-width="0.105981" text-align="center" style="font-weight:bold;font-size:1.05771px;line-height:1.2;font-family:'Devanagari Sangam MN';letter-spacing:0.0698125px;word-spacing:0.00396651px;text-anchor:middle;fill:#485042f5;fill-opacity:1;stroke:none;stroke-linecap:round;stroke-miterlimit:4.1" xml:space="preserve" id="text33" fill-opacity="1" class="fg" xmlns="http://www.w3.org/2000/svg"><tspan x="15.597094" y="10.442361" fill="#485042f5" font-size="1.05771px" stroke-width="0.105981" id="tspan33" style="fill:#485042f5;fill-opacity:1;stroke:none" fill-opacity="1" class="fg">START</tspan></text>
<g fill="#485042f5" stroke-miterlimit="4.1" stroke-width="0.5" id="g35" transform="matrix(0.77844616,0,0,0.77844616,3.4633296,0.60092052)" style="fill:#485042f5" fill-opacity="1" class="fg" xmlns="http://www.w3.org/2000/svg"><path id="circle34" style="fill:#485042f5" d="m 15.632152,2.7122637 a 3.5669999,3.5669999 0 0 0 -3.567481,3.5668167 3.5669999,3.5669999 0 0 0 3.567481,3.5674804 3.5669999,3.5669999 0 0 0 3.566816,-3.5674804 3.5669999,3.5669999 0 0 0 -3.566816,-3.5668167 z m -1.182965,1.4438538 a 0.30705259,0.30705259 0 0 1 0.207119,0.041158 l 3.005871,1.8202515 a 0.30705259,0.30705259 0 0 1 0,0.5237704 L 14.656306,8.361549 A 0.30705259,0.30705259 0 0 1 14.191617,8.0993319 v -3.640503 a 0.30705259,0.30705259 0 0 1 0.156003,-0.2675278 0.30705259,0.30705259 0 0 1 0.101567,-0.035184 z m 0.355819,0.8477247 v 2.5511402 l 2.107031,-1.275902 z" fill="#485042f5" fill-opacity="1" class="fg" xmlns="http://www.w3.org/2000/svg"/></g>
<g id="icon-start-invert" style="display:inline;fill:none;stroke:#24221c;stroke-width:0.614044;stroke-dasharray:none" transform="matrix(0.77844616,0,0,0.77844616,3.4633295,0.6009204)" class="bg" xmlns="http://www.w3.org/2000/svg"/>
</svg>
