<svg xmlns="http://www.w3.org/2000/svg" xmlns:xlink="http://www.w3.org/1999/xlink" version="1.1" viewBox="10.695 1.816 9.853 9.853">
<rect id="icon-details-clickable" x="9.709700000000002" y="0.8307000000000004" width="11.823599999999999" height="11.823599999999999" fill="darkgreen" fill-opacity="1" stroke-dasharray="0.0452804, 0.18112" stroke-width=".028" style="mix-blend-mode:normal" class="bg-item bg" xmlns="http://www.w3.org/2000/svg"/>
<text x="15.562188" y="10.442361" fill="white" font-family="'Devanagari Sangam MN'" font-size="1.0577px" font-weight="bold" letter-spacing=".069812px" stroke-linecap="round" stroke-width=".10598" text-align="center" text-anchor="middle" word-spacing=".0039665px" style="line-height:1.2" xml:space="preserve" fill-opacity="1" class="fg" xmlns="http://www.w3.org/2000/svg"><tspan x="15.597094" y="10.442361" fill="white" font-size="1.0577px" stroke-width=".10598" fill-opacity="1" class="fg">VIEW</tspan></text>
<path d="m13.387 2.9122a0.35144 0.35144 0 0 0-0.3514 0.3514v4.4416a0.35144 0.35144 0 0 0 0.3514 0.3514h4.4416a0.35144 0.35144 0 0 0 0.3514-0.3514v-1.2795a0.3514 0.3514 0 0 0-0.3514-0.3514 0.3514 0.3514 0 0 0-0.35192 0.3514v0.92759h-3.7383v-3.7383h1.0878a0.3514 0.3514 0 0 0 0.35192-0.3514 0.3514 0.3514 0 0 0-0.35192-0.3514h-1.4392zm2.6639 0a0.3514 0.3514 0 0 0-0.3514 0.3514 0.3514 0.3514 0 0 0 0.3514 0.3514h0.98805l-1.2066 1.2051a0.31024 0.31024 0 0 0 0 0.43977 0.31024 0.31024 0 0 0 0.43925 0l1.2051-1.2066v0.98754a0.3514 0.3514 0 0 0 0.35192 0.35192 0.3514 0.3514 0 0 0 0.3514-0.35192v-1.7772a0.35144 0.35144 0 0 0-0.3514-0.3514h-1.7777z" color="#000000" fill="white" fill-opacity="1" stroke-linecap="round" stroke-linejoin="round" style="-inkscape-stroke:none" class="fg" xmlns="http://www.w3.org/2000/svg"/>
</svg>