<svg xmlns="http://www.w3.org/2000/svg" xmlns:xlink="http://www.w3.org/1999/xlink" version="1.1" viewBox="30.943 2.1372 9.853 9.8535">
<rect id="icon-umpire-only-clickable" x="29.957700000000003" y="1.1518500000000005" width="11.823599999999999" height="11.8242" fill="darkgreen" fill-opacity="1" stroke-dasharray="0.0452804, 0.18112" stroke-width=".028001" style="mix-blend-mode:normal" class="bg-item bg" xmlns="http://www.w3.org/2000/svg"/>
<path d="m35.253 2.1769c-0.15209-0.00108-0.34058 0.054307-0.48554 0.2823-0.27927 0.43919 0.15425 0.78732 0.15425 0.78732l3.681 2.1916-1.2328 1.7467v4.8058h0.70213v-2.8542l1.9906-3.4477s0.14837-0.37038 0.09857-0.54956c-0.10299-0.37015-0.44543-0.57407-0.44543-0.57407l-2.7345-1.5178c0.08382-0.14249 0.14132-0.34997-0.0097-0.58798-0.14498-0.22796-0.33346-0.28365-0.48556-0.2823-0.15209 0.00108-0.26782 0.059577-0.26782 0.059577l-0.34858 0.19321-0.34856-0.19321s-0.11571-0.058188-0.26783-0.059577zm-0.84634 1.0652-2.3837 1.323s-0.34244 0.20392-0.44544 0.57407c-0.04978 0.17918 0.09857 0.54956 0.09857 0.54956l1.9911 3.4477v2.8542h0.70157v-4.8058l-1.2327-1.7467 2.4778-1.4755-1.2027-0.71605s-0.0043-0.00431-0.0043-0.00431zm1.451 1.1648a1.3009 1.3009 0 0 0-1.3013 1.3007 1.3009 1.3009 0 0 0 1.3013 1.3013 1.3009 1.3009 0 0 0 1.3007-1.3013 1.3009 1.3009 0 0 0-1.3007-1.3007zm-0.31348 2.9622-0.65536 0.84801v3.7735h0.6459zm0.65035 0 0.0097 4.6215h0.64536v-3.7735z" fill="white" fill-opacity="1" class="fg" xmlns="http://www.w3.org/2000/svg"/>
</svg>