<svg xmlns="http://www.w3.org/2000/svg" xmlns:xlink="http://www.w3.org/1999/xlink" version="1.1" viewBox="10.1 0.143 9.85 9.85">
<rect id="icon-home-clickable" x="9.115" y="-0.8419999999999994" width="11.819999999999999" height="11.819999999999999" fill="#788356" fill-opacity="1" stroke-dasharray="0.0452804, 0.18112" stroke-width=".028" style="mix-blend-mode:normal" class="bg-item bg" xmlns="http://www.w3.org/2000/svg"/>
<text id="txt-home" transform="scale(.976 1.02)" x="15.256162" y="8.6497364" fill="white" font-family="'Devanagari Sangam MN'" font-size="1.03px" font-weight="bold" letter-spacing=".166px" stroke-linecap="round" stroke-width=".246" text-align="center" text-anchor="middle" word-spacing=".00945px" style="line-height:1.2;mix-blend-mode:normal" xml:space="preserve" fill-opacity="1" class="fg" xmlns="http://www.w3.org/2000/svg"><tspan x="15.290218" y="8.6497364" fill="white" font-size="1.03px" stroke-width=".246" fill-opacity="1" class="fg">HOME</tspan></text>
<path id="view-home-icon" d="m14.9 1.12c-0.0403 0.00204-0.0792 0.0132-0.115 0.0344l-2.88 1.73c-0.142 0.085-0.17 0.298-0.0638 0.477l0.0202 0.034c0.106 0.179 0.306 0.255 0.448 0.17l0.182-0.109h0.021c-0.0059 0.0306-0.0106 0.0622-0.0106 0.0953v2.69c0 0.215 0.133 0.389 0.299 0.389h1.53v-1.88h1.37v1.88h1.56c0.165 0 0.299-0.173 0.299-0.389v-2.69c0-0.028-0.0028-0.0553-0.0072-0.0816l0.159 0.0953c0.142 0.085 0.341 0.00908 0.448-0.17l0.0202-0.034c0.106-0.179 0.0782-0.392-0.0634-0.477l-2.88-1.73c-0.0672-0.0403-0.147-0.0441-0.225-0.0181-0.0365-0.0123-0.0734-0.0181-0.11-0.0163z" fill="white" stroke-linejoin="round" stroke-width="1.08" fill-opacity="1" class="fg" xmlns="http://www.w3.org/2000/svg"/>
</svg>