<svg xmlns="http://www.w3.org/2000/svg" xmlns:xlink="http://www.w3.org/1999/xlink" version="1.1" viewBox="87.7 498 17 17">
<rect id="icon-score-clickable" x="86" y="496.3" width="20.4" height="20.4" fill="transparent" rx="10" fill-opacity="0" stroke-dasharray="0.0452804, 0.18112" stroke-miterlimit="4.1" stroke-width=".0483" style="mix-blend-mode:normal" class="bg-item bg" xmlns="http://www.w3.org/2000/svg"/>
<path d="m101.09 499.5c-0.0363 0-0.0744 3e-3 -0.0872 8e-3 -0.1923 0.0951-0.15899 0.15147-0.18317 0.16597-7e-3 4e-3 -0.0105 1.1119-0.0105 3.3034 0 2.7394-2e-3 3.2765-0.0144 3.3033-0.0105 9e-3 -0.86746 0.0113-3.2496 8e-3l-3.2228-3e-3 -3e-3 -0.56936c-1e-3 -0.24896 8.11e-4 -0.4485-2e-3 -0.5613-0.04804 0.0102-0.21942 0.05-0.30616 0.0757-0.11441 0.0341-0.09455 0.0282-0.141 0.0433-0.03517 0.0112-0.06446 0.0204-0.11978 0.0433l0.01439 1.9417c0.0091 1.2891 0.0041 1.9552 0.01054 1.9578 0.0061 3e-3 0.01054 0.015 0.01054 0.025 0 0.0277 0.08331 0.11011 0.14288 0.14099 3e-5 9e-3 0.14932 0.055 0.20142 0.0153 0.01135-8e-3 0.02878-0.0153 0.03922-0.0153 0.02736 0 0.01287-0.022 0.03253-0.022 0.0071 0 0.02767-0.0164 0.0451-0.0373 0.01743-0.021 0.04054-0.0475 0.05077-0.0586 0.01024-0.011 0.01824-0.0335 0.01824-0.05 0-0.0164 0.0051-0.0344 0.01054-0.0403 0.0071-7e-3 0.01155-0.41359 0.01338-1.1575l3e-3 -1.1468h6.4724l3e-3 1.1575c2e-3 0.74931 6e-3 1.1602 0.0125 1.1683 6e-3 6e-3 0.0105 0.0212 0.0105 0.0347s5e-3 0.025 0.0105 0.025c5e-3 0 0.0128 9e-3 0.0163 0.0202 8e-3 0.026 0.069 0.0854 0.0873 0.0854 8e-3 0 0.0134 6e-3 0.0134 0.0116 0 6e-3 9e-3 0.0104 0.0192 0.0104 0.0105 0 0.029 7e-3 0.0402 0.0153 0.0352 0.0265 0.12864 0.0199 0.19552-0.0134 0.084-0.0419 0.10742-0.0674 0.16006-0.17457 0.0132-0.0269 0.0124-9.4535-1e-3 -9.4803-6e-3 -3e-3 -0.0105-0.0185-0.0105-0.0325 0-0.0358-0.12837-0.1641-0.1641-0.1641-0.0143 0-0.029-5e-3 -0.0325-0.0104-4e-3 -7e-3 -0.0384-0.011-0.0749-0.0115zm-7.0632 3e-3c-0.03567 0-0.07733 6e-3 -0.10554 0.0134-0.04591 0.0121-0.14395 0.10023-0.14395 0.12945 0 7e-3 -0.0041 0.0134-0.0091 0.0134-0.0051 0-0.01368 0.0172-0.01824 0.0392-0.0041 0.022-0.0091 0.85672-0.01155 1.8531 0 1.563-0.0071 1.6463-0.01247 1.8128 0.12972-0.0332 0.23795-0.0655 0.46462-0.1093 0.03709-0.0104 0.06364-0.0153 0.13133-0.0269l-0.01338-1.7591c-0.01287-1.6624-8.11e-4 -1.7698-0.01824-1.8021-0.01024-0.0196-0.0225-0.0365-0.02686-0.0392-0.0041-3e-3 -0.0081-7e-3 -0.0081-0.0135 0-0.0215-0.09638-0.0939-0.12461-0.09 0.01-0.01-0.0728-0.0816-0.11437-0.0939-0.04593-0.0137-0.14347-0.0328-0.21168-0.0328z" fill="#485042f5" fill-opacity="1" class="fg" xmlns="http://www.w3.org/2000/svg"/>
<path d="m97.846 499.76c-0.19197 5e-5 -0.40762 0.015-0.541 0.044-0.28297 0.0618-0.64696 0.19945-0.69931 0.26302-0.01945 0.0237-0.02019 0.0526-5e-3 0.18947 0.01 0.0886 0.03391 0.2169 0.05273 0.28546 0.0187 0.0674 0.04026 0.12254 0.04887 0.12254 0.0087 0 0.04288-0.0216 0.07567-0.0479 0.08402-0.0666 0.35153-0.22313 0.55596-0.3241 0.20443-0.10234 0.51233-0.19072 0.76663-0.21815 0.20568-0.0224 0.66192-9e-3 0.82646 0.0249 0.06495 0.0132 0.12092 0.0213 0.12453 0.0172 0.0087-0.01-0.11593-0.0797-0.25804-0.1446-0.15208-0.0691-0.4525-0.15707-0.65194-0.19197-0.07342-0.0128-0.17826-0.0187-0.29294-0.0192zm-1.4959 0.46497c-0.0025-2e-3 -0.08364 0.0729-0.182 0.16703l-0.1795 0.17078 9.47e-4 0.14335c0.0012 0.42881 0.14959 0.89253 0.41011 1.2839 0.14709 0.22438 0.40388 0.48117 0.632 0.63325 0.10496 0.0698 0.22687 0.14335 0.2705 0.1633 0.04375 0.0207 0.08576 0.0383 0.092 0.0383 0.01945 2.8e-4 0.06819-0.11145 0.11967-0.2705 0.04837-0.14959 0.0986-0.32286 0.0986-0.33906 0-5e-3 -0.06233-0.0535-0.13837-0.10821-0.21565-0.15332-0.49737-0.43753-0.62452-0.6295-0.1077-0.16205-0.27798-0.48117-0.35776-0.67189-0.02319-0.0555-0.06395-0.20817-0.09-0.34155-0.02605-0.13214-0.04924-0.24059-0.05173-0.24557zm2.1067 0.0718c-0.13463 0-0.26925 5e-3 -0.36274 0.0192-0.31164 0.046-0.54349 0.12715-0.82895 0.28796-0.17327 0.0977-0.44377 0.28296-0.46745 0.32036-0.0087 0.0141 0.02132 0.08 0.09386 0.20318 0.05909 0.10023 0.11792 0.19571 0.13089 0.21067 0.01321 0.0153 0.03154 0.0278 0.04114 0.0278 0.01-3e-5 0.11456-0.0583 0.2331-0.12964 0.40139-0.24183 0.61829-0.33532 0.91247-0.39516 0.56468-0.11642 1.0708-0.0668 1.6205 0.15956 0.06357 0.0262 0.11842 0.0453 0.12166 0.0411 0.01807-0.0181-0.14959-0.2543-0.26676-0.37397-0.12715-0.13088-0.50734-0.28172-0.86635-0.34404-0.0915-0.0157-0.22562-0.0246-0.359-0.0258zm-2.7175 0.62078c-0.04064-4e-3 -0.24931 0.46496-0.2705 0.60706-0.02032 0.13962 0.08751 0.52729 0.22064 0.79156 0.24806 0.49363 0.68934 0.92369 1.163 1.1306 0.04438 0.0193 0.08414 0.035 0.089 0.0354 0.02431 1e-3 0.2601-0.11144 0.31155-0.27049 0.04838-0.14959 0.09861-0.32286 0.09861-0.33907 0-5e-3 -0.06234-0.0535-0.13837-0.1082-0.21565-0.15333-0.49738-0.43754-0.62453-0.6295-0.10769-0.16206-0.27798-0.48118-0.35775-0.6719-0.0232-0.0555-0.06395-0.20817-0.09-0.34155-0.02605-0.13214-0.04924-0.24059-0.05173-0.24557zm2.1067 0.0718c-0.13464 0-0.26926 5e-3 -0.36275 0.0192-0.31164 0.046-0.54349 0.12715-0.82895 0.28796-0.17327 0.0977-0.44377 0.28296-0.46745 0.32036-0.0087 0.0141 0.02132 0.08 0.09386 0.20318 0.05909 0.10023 0.11792 0.19571 0.13089 0.21067 0.01321 0.0153 0.03154 0.0278 0.04114 0.0278 0.01-3e-5 0.11456-0.0583 0.2331-0.12964 0.40139-0.24183 0.61829-0.33532 0.91247-0.39516 0.56468-0.11642 1.0708-0.0668 1.6205 0.15956 0.06357 0.0262 0.11842 0.0453 0.12166 0.0411 0.01807-0.0181-0.14959-0.2543-0.26676-0.37397-0.12715-0.13088-0.50734-0.28172-0.86635-0.34404-0.0915-0.0157-0.22562-0.0246-0.359-0.0258zm-2.69 0.62079c-0.04064-4e-3 -0.24931 0.46496-0.2705 0.60705-0.02032 0.13963 0.08751 0.5273 0.22064 0.79156 0.24806 0.49363 0.68934 0.9237 1.163 1.1306 0.04438 0.0193 0.08414 0.035 0.089 0.0354 0.02431 1e-3 0.2601-0.11144 0.31155-0.27049 0.04838-0.14959 0.09861-0.32286 0.09861-0.33907 0-5e-3 -0.06234-0.0535-0.13837-0.1082-0.21565-0.15333-0.49738-0.43754-0.62453-0.6295-0.10769-0.16206-0.27798-0.48118-0.35775-0.6719-0.0232-0.0555-0.06395-0.20817-0.09-0.34155-0.02605-0.13214-0.04924-0.24059-0.05173-0.24557z" fill="#485042f5" fill-opacity="1" class="fg" xmlns="http://www.w3.org/2000/svg"/>
</svg>
