<svg xmlns="http://www.w3.org/2000/svg" xmlns:xlink="http://www.w3.org/1999/xlink" version="1.1" viewBox="30.9 2.14 9.85 9.85">
<rect id="icon-move-clickable" x="29.915" y="1.1550000000000007" width="11.819999999999999" height="11.819999999999999" fill="#788356" fill-opacity="1" stroke-dasharray="0.0452804, 0.18112" stroke-miterlimit="4.1" stroke-width=".028" style="mix-blend-mode:normal" class="bg-item bg" xmlns="http://www.w3.org/2000/svg"/>
<text x="35.80447" y="10.763562" fill="white" font-family="'Devanagari Sangam MN'" font-size="1.06px" font-weight="bold" letter-spacing=".147px" stroke-linecap="round" stroke-miterlimit="4.1" stroke-width=".285" text-align="center" text-anchor="middle" word-spacing=".00835px" style="line-height:1.2;mix-blend-mode:normal" xml:space="preserve" fill-opacity="1" class="fg" xmlns="http://www.w3.org/2000/svg"><tspan x="35.839375" y="10.763562" fill="white" font-size="1.06px" stroke-width=".285" fill-opacity="1" class="fg">MOVE</tspan></text>
<path d="m35.9 3.0801a2.78 2.78 0 0 0-2.7802 2.7797 2.78 2.78 0 0 0 2.7802 2.7802 2.78 2.78 0 0 0 2.7797-2.7802 2.78 2.78 0 0 0-2.7797-2.7797zm-0.53899 0.93999 0.78496 1.0501h-0.52296v1.0501h-0.52348v-1.0501h-0.52297l0.78445-1.0501zm0.81597 1.5797h0.52297v1.0501h0.52296l-0.78393 1.0501-0.78496-1.0501h0.52296v-1.0501z" fill="white" stroke-width=".778" fill-opacity="1" class="fg" xmlns="http://www.w3.org/2000/svg"/>
</svg>