<svg xmlns="http://www.w3.org/2000/svg" xmlns:xlink="http://www.w3.org/1999/xlink" version="1.1" viewBox="30.943344 2.137162 9.8529997 9.8534603">
<rect id="icon-umpires-clickable" x="29.95804403" y="1.1518159700000004" width="11.82359964" height="11.82415236" fill="transparent" fill-opacity="0" stroke-dasharray="0.0452804, 0.18112" stroke-width="0.0280007" style="mix-blend-mode:normal;stroke-miterlimit:4.1" class="bg-item bg" xmlns="http://www.w3.org/2000/svg"/>
<text x="35.80447" y="10.763562" fill="white" font-family="'Devanagari Sangam MN'" font-size="1.05771px" font-weight="bold" letter-spacing="0.14689px" stroke-linecap="round" stroke-miterlimit="4.1" stroke-width="0.285162" text-align="center" text-anchor="middle" word-spacing="0.0083458px" style="line-height:1.2;mix-blend-mode:normal;fill:#ffffff;stroke:none" xml:space="preserve" id="text47" fill-opacity="1" class="fg" xmlns="http://www.w3.org/2000/svg"><tspan x="35.839375" y="10.763562" fill="white" font-size="1.05771px" stroke-width="0.285162" id="tspan47" style="fill:#ffffff;stroke:none" fill-opacity="1" class="fg">UMPIRES</tspan></text>
<path id="path1-5" style="fill:#ffffff;fill-opacity:1;stroke-width:1;stroke-miterlimit:4.1;stroke-opacity:0.998569" d="m 35.480847,3.0206576 c -0.09522,-6.75e-4 -0.213228,0.034 -0.30398,0.17674 -0.174845,0.274967 0.09657,0.492918 0.09657,0.492918 l 2.304595,1.372093 -0.771803,1.093558 v 3.008765 h 0.439585 v -1.786921 l 1.246243,-2.158535 c 0,0 0.09289,-0.231887 0.06172,-0.344064 -0.06449,-0.231739 -0.278879,-0.35941 -0.278879,-0.35941 l -1.711975,-0.950284 c 0.05248,-0.08921 0.08848,-0.219104 -0.0061,-0.36812 -0.09075,-0.142721 -0.208756,-0.177583 -0.30398,-0.17674 -0.09522,6.74e-4 -0.167674,0.0373 -0.167674,0.0373 l -0.218227,0.120966 -0.218221,-0.120966 c 0,0 -0.07245,-0.03643 -0.167681,-0.0373 z m -0.52987,0.666872 -1.492358,0.828272 c 0,0 -0.214389,0.127671 -0.278879,0.35941 -0.03117,0.112177 0.06172,0.344064 0.06172,0.344064 l 1.246594,2.158535 v 1.786921 h 0.439234 v -3.008765 l -0.771796,-1.093558 1.551269,-0.923793 -0.752975,-0.4483 c 0,0 -0.0027,-0.0027 -0.0027,-0.0027 z m 0.908453,0.72927 a 0.81443729,0.81443729 0 0 0 -0.81468,0.814329 0.81443729,0.81443729 0 0 0 0.81468,0.814679 0.81443729,0.81443729 0 0 0 0.814328,-0.814679 0.81443729,0.81443729 0 0 0 -0.814328,-0.814329 z m -0.196263,1.854554 -0.410301,0.530917 v 2.362461 h 0.404378 z m 0.407164,0 0.0061,2.893378 h 0.404028 v -2.362461 z" fill="white" fill-opacity="1" class="fg" xmlns="http://www.w3.org/2000/svg"/>
</svg>