<svg xmlns="http://www.w3.org/2000/svg" xmlns:xlink="http://www.w3.org/1999/xlink" version="1.1" viewBox="8.8624 30.175 10.053 9.853">
<rect id="icon-team-clickable" x="7.857099999999999" y="29.189700000000002" width="12.063600000000001" height="11.823599999999999" fill="darkgreen" fill-opacity="1" stroke-dasharray="0.0452804, 0.18112" stroke-width=".028" style="mix-blend-mode:normal" class="bg-item bg" xmlns="http://www.w3.org/2000/svg"/>
<g fill="white" fill-opacity="1" class="fg" xmlns="http://www.w3.org/2000/svg"><path d="m16.571 34.379c-0.65888 0.0027-1.1996 0.5221-1.2289 1.1803h2.462c-0.02932-0.65986-0.57258-1.1799-1.2331-1.1803z" stroke-width=".2539" fill="none" fill-opacity="0" class="no-fill" xmlns="http://www.w3.org/2000/svg"/><path d="m13.939 35.216c-1.0596 0.0043-1.9292 0.83964-1.9763 1.8982h3.9593c-0.04715-1.0612-0.92081-1.8975-1.983-1.8982z" stroke-width=".40832" fill="none" fill-opacity="0" class="no-fill" xmlns="http://www.w3.org/2000/svg"/><path d="m11.31 34.379c-0.65888 0.0027-1.1996 0.5221-1.2289 1.1803h2.462c-0.02932-0.65986-0.57258-1.1799-1.2331-1.1803z" stroke-width=".2539" fill="none" fill-opacity="0" class="no-fill" xmlns="http://www.w3.org/2000/svg"/><path d="m16.571 32.924c-0.35833 8.7e-5 -0.64875 0.29062-0.64869 0.64895 8.6e-5 0.35822 0.29046 0.6486 0.64869 0.64869 0.35833 5.8e-5 0.64886-0.29036 0.64895-0.64869 5.7e-5 -0.35843-0.29052-0.64901-0.64895-0.64895z" stroke-width=".2539" fill="none" fill-opacity="0" class="no-fill" xmlns="http://www.w3.org/2000/svg"/><path d="m13.939 32.877c-0.57642-9.3e-5 -1.0437 0.46721-1.0436 1.0436 1.38e-4 0.57626 0.46738 1.0433 1.0436 1.0432 0.57609-1.41e-4 1.0431-0.46712 1.0432-1.0432 9.4e-5 -0.57626-0.46695-1.0435-1.0432-1.0436z" stroke-width=".40832" fill="none" fill-opacity="0" class="no-fill" xmlns="http://www.w3.org/2000/svg"/><path d="m11.287 32.924c-0.35843-5.8e-5 -0.64901 0.29052-0.64895 0.64895 8.6e-5 0.35833 0.29062 0.64875 0.64895 0.64869 0.35822-8.7e-5 0.6486-0.29046 0.64869-0.64869 5.8e-5 -0.35833-0.29036-0.64886-0.64869-0.64895z" stroke-width=".2539" fill="none" fill-opacity="0" class="no-fill" xmlns="http://www.w3.org/2000/svg"/></g>
<text x="13.811308" y="38.78006" fill="white" font-family="'Devanagari Sangam MN'" font-size="1.0577px" font-weight="bold" letter-spacing=".069812px" stroke-linecap="round" stroke-width=".10598" text-align="center" text-anchor="middle" word-spacing=".0039665px" style="line-height:1.2" xml:space="preserve" fill-opacity="1" class="fg" xmlns="http://www.w3.org/2000/svg"><tspan x="13.846212" y="38.78006" fill="white" font-size="1.0577px" stroke-width=".10598" fill-opacity="1" class="fg">TEAM</tspan></text>
</svg>