<svg xmlns="http://www.w3.org/2000/svg" xmlns:xlink="http://www.w3.org/1999/xlink" version="1.1" viewBox="20.05905 30.161224 9.8819017 9.8819017">
<rect id="icon-pitch-clickable" x="19.07085983" y="29.17303383" width="11.85828204" height="11.85828204" fill="transparent" fill-opacity="0" stroke-dasharray="0.0452804, 0.18112" stroke-miterlimit="4.1" stroke-width="0.0234089" style="mix-blend-mode:normal" class="bg-item bg" xmlns="http://www.w3.org/2000/svg"/>
<g id="txt-pitch" transform="matrix(0.83603235,0,0,0.83603235,-4.9926697,29.162162)" stroke-linecap="round" stroke-miterlimit="4.1" xmlns="http://www.w3.org/2000/svg"/>
<path d="m 27.559896,31.338757 a 0.05204558,0.05204558 0 0 0 -0.05227,0.05227 v 2.211591 a 0.05204558,0.05204558 0 0 0 0.05227,0.05021 0.05204558,0.05204558 0 0 0 0.05227,-0.05021 v -0.294053 l 0.390875,0.337101 v 0.351939 a 0.05204558,0.05204558 0 0 0 0.05227,0.05227 0.05204558,0.05204558 0 0 0 0.05227,-0.05227 v -2.209508 a 0.05204558,0.05204558 0 0 0 -0.05227,-0.05227 0.05204558,0.05204558 0 0 0 -0.05227,0.05227 v 1.742287 L 27.612166,33.192798 V 31.39103 a 0.05204558,0.05204558 0 0 0 -0.05227,-0.05227 z m -1.0082,1.354476 -0.512287,0.150098 0.656252,0.585549 0.51178,-0.150623 -0.655735,-0.585031 z m -0.707474,0.207462 -0.20645,0.06048 2.56253,2.286336 0.206449,-0.06096 -2.562529,-2.285841 z m -0.309936,0.09066 -0.67469,0.197758 2.54964,2.290997 0.674173,-0.198244 -0.662902,-0.595796 c -0.0031,9.02e-4 -0.0064,0.0015 -0.0097,0.002 -0.345345,0.04207 -0.814715,-0.119894 -1.110107,-0.384213 -0.294349,-0.264561 -0.327547,-0.554449 -0.07839,-0.683395 0.0031,-9.04e-4 0.0064,-0.0015 0.0097,-0.002 l -0.69774,-0.627045 z m -3.694646,0.02698 a 0.05204558,0.05204558 0 0 0 -0.05227,0.05227 v 1.189512 l -0.142416,-0.128065 -0.20746,0.06044 0.349876,0.314545 v 0.137808 l -0.465673,-0.418546 -0.512803,0.150623 0.652149,0.586061 0.326348,-0.09375 v 0.174189 l -0.179811,0.05121 0.149086,0.133724 0.03073,-0.0087 v 0.06198 a 0.05204558,0.05204558 0 0 0 0.05227,0.05021 0.05204558,0.05204558 0 0 0 0.05227,-0.05021 v -0.09168 l 0.0053,-0.0014 v -0.196708 l 0.08813,0.07579 v 0.09528 l 0.02398,-0.0068 0.274081,0.245904 v 0.274566 a 0.05204558,0.05204558 0 0 0 0.05227,0.05227 0.05204558,0.05204558 0 0 0 0.05227,-0.05227 v -2.209309 a 0.05204558,0.05204558 0 0 0 -0.05227,-0.05227 0.05204558,0.05204558 0 0 0 -0.05227,0.05227 v 0.477968 l -0.299184,0.08761 v 0.173666 l 0.299184,0.268945 v 0.230017 l -0.299184,-0.268422 5.1e-4,0.246916 0.298658,0.268422 v 0.142416 c -0.004,-0.0045 -0.0078,-0.0094 -0.01237,-0.01386 l -0.149086,-0.133724 -0.01275,0.0036 -0.06249,-0.05583 -0.06197,0.01723 v 0.03945 l -0.09274,-0.07991 v -0.03222 l 0.0053,-0.0014 -5.14e-4,-0.09475 -0.0045,-0.0042 V 34.60087 l 0.0045,0.0041 v -0.246905 l -0.0045,-0.004 v -0.230076 l 0.0042,0.0036 v -0.06917 l -0.0042,9.89e-4 v -0.988679 a 0.05204558,0.05204558 0 0 0 -0.05227,-0.05227 z m 2.81453,0.231027 -1.958006,0.574279 2.550729,2.29199 1.956422,-0.575308 -2.549145,-2.290997 z m 2.622901,0.09066 -0.51075,0.150622 0.14961,0.133725 0.780736,0.696203 0.14961,0.133723 0.510751,-0.151146 -0.149611,-0.133199 -0.232077,0.06865 -0.780219,-0.696717 0.231554,-0.06816 z m -0.931349,0.380123 c -0.193523,0.106897 -0.164336,0.336463 0.07172,0.548668 0.237135,0.212182 0.608658,0.343096 0.888317,0.314058 L 26.34572,33.72017 Z m -3.832935,0.157292 -0.0094,0.0025 5.14e-4,0.749485 c 0.333504,-0.0064 0.74892,0.148075 1.017912,0.389858 0.280937,0.253096 0.322863,0.528978 0.106565,0.664953 l 0.760757,0.683394 0.674688,-0.198244 -2.551224,-2.29199 z m 5.92725,0.499993 -0.511784,0.151109 0.673154,0.600408 0.512286,-0.150622 z m -5.86678,0.358083 0.937497,0.842722 c 0.153245,-0.114392 0.112898,-0.327921 -0.106565,-0.525611 -0.22035,-0.198056 -0.559174,-0.324848 -0.830934,-0.317093 z m -0.06917,0.168532 v 0.246914 l 1.485132,1.334055 0.206973,-0.06096 -1.692124,-1.519932 z m 5.12e-4,0.401129 v 0.2951 l 0.204914,0.183931 -0.253061,0.07272 0.148562,0.133724 0.514857,-0.147549 -0.149086,-0.133725 z m 0.69877,0.612185 -0.515876,0.147549 0.673153,0.605017 0.5128,-0.150621 z" fill="white" fill-opacity="1" class="fg" id="path4-0" style="stroke-width:0.991343" xmlns="http://www.w3.org/2000/svg"/>
<text x="24.926033" y="38.811985" fill="white" stroke-width="0.105981" text-align="center" style="font-weight:bold;font-size:1.05771px;line-height:1.2;font-family:'Devanagari Sangam MN';letter-spacing:0.0698125px;word-spacing:0.00396651px;text-anchor:middle;display:inline;fill:#ffffff;fill-opacity:1;stroke:none;stroke-linecap:round;stroke-miterlimit:4.1" xml:space="preserve" id="text52-9" xmlns:inkscape="http://www.inkscape.org/namespaces/inkscape" inkscape:label="text52" fill-opacity="1" class="fg" xmlns="http://www.w3.org/2000/svg"><tspan x="24.960938" y="38.811985" fill="white" font-size="1.05771px" stroke-width="0.105981" id="tspan52-5" style="fill:#ffffff;fill-opacity:1;stroke:none" fill-opacity="1" class="fg">PITCH</tspan></text>
</svg>