<svg xmlns="http://www.w3.org/2000/svg" xmlns:xlink="http://www.w3.org/1999/xlink" version="1.1" viewBox="10.694709 1.8159605 9.8530178 9.8530188">
<rect id="icon-prevpitch-clickable" x="9.70940722" y="0.8306586200000003" width="11.823621359999999" height="11.823622559999999" fill="transparent" fill-opacity="0" stroke-dasharray="0.0452804, 0.18112" stroke-width="0.0279995" style="display:inline;mix-blend-mode:normal;stroke-miterlimit:4.1" xmlns:inkscape="http://www.inkscape.org/namespaces/inkscape" inkscape:label="icon-prevpitch-clickable" class="bg-item bg" xmlns="http://www.w3.org/2000/svg"/>
<text x="15.562188" y="10.442361" fill="white" stroke-width="0.105981" text-align="center" style="font-weight:bold;font-size:1.05771px;line-height:1.2;font-family:'Devanagari Sangam MN';letter-spacing:0.0698125px;word-spacing:0.00396651px;text-anchor:middle;fill:#ffffff;fill-opacity:1;stroke:none;stroke-linecap:round;stroke-miterlimit:4.1" xml:space="preserve" id="text38" fill-opacity="1" class="fg" xmlns="http://www.w3.org/2000/svg"><tspan x="15.597094" y="10.442361" fill="white" font-size="1.05771px" stroke-width="0.105981" id="tspan38" style="fill:#ffffff;fill-opacity:1;stroke:none" fill-opacity="1" class="fg">PREV PITCH</tspan></text>
<path id="path38" style="display:inline;fill:#ffffff" d="m 15.631487,9.8465608 c 1.970116,2.657e-4 3.56738,-1.5967007 3.567481,-3.5668167 2.65e-4,-1.9703752 -1.597106,-3.5677462 -3.567481,-3.5674804 -1.970115,1.016e-4 -3.567081,1.5973649 -3.566816,3.5674804 1.01e-4,1.9698563 1.59696,3.5667151 3.566816,3.5668167 z M 16.814452,8.402707 C 16.742722,8.413906 16.669335,8.399327 16.607333,8.361549 L 13.601462,6.5412975 c -0.195665,-0.1197694 -0.195665,-0.404001 0,-0.5237704 l 3.005871,-1.8202516 c 0.204174,-0.1221482 0.463696,0.024297 0.464689,0.2622171 v 3.640503 c 7.1e-5,0.1107897 -0.05955,0.2130266 -0.156003,0.2675278 -0.03152,0.017609 -0.06591,0.029519 -0.101567,0.035184 z" xmlns:sodipodi="http://sodipodi.sourceforge.net/DTD/sodipodi-0.dtd" sodipodi:nodetypes="cccccccccccccc" transform="matrix(0.77844616,0,0,0.77844616,3.4633297,0.60092058)" fill="white" fill-opacity="1" class="fg" xmlns="http://www.w3.org/2000/svg"/>
</svg>