<svg xmlns="http://www.w3.org/2000/svg" xmlns:xlink="http://www.w3.org/1999/xlink" version="1.1" viewBox="10.694709 1.8159605 9.8530178 9.8530188">
<rect id="icon-ok-clickable" x="9.70940722" y="0.8306586200000003" width="11.823621359999999" height="11.823622559999999" fill="transparent" fill-opacity="0" stroke-dasharray="0.0452804, 0.18112" stroke-width="0.0279995" style="display:inline;mix-blend-mode:normal;stroke-miterlimit:4.1" xmlns:inkscape="http://www.inkscape.org/namespaces/inkscape" inkscape:label="icon-start-clickable" class="bg-item bg" xmlns="http://www.w3.org/2000/svg"/>
<text x="15.562188" y="10.442361" fill="white" stroke-width="0.105981" text-align="center" style="font-weight:bold;font-size:1.05771px;line-height:1.2;font-family:'Devanagari Sangam MN';letter-spacing:0.0698125px;word-spacing:0.00396651px;text-anchor:middle;fill:#ffffff;fill-opacity:1;stroke:none;stroke-linecap:round;stroke-miterlimit:4.1" xml:space="preserve" id="text39" fill-opacity="1" class="fg" xmlns="http://www.w3.org/2000/svg"><tspan x="15.597094" y="10.442361" fill="white" font-size="1.05771px" stroke-width="0.105981" id="tspan39" style="fill:#ffffff;fill-opacity:1;stroke:none" fill-opacity="1" class="fg">OK</tspan></text>
<path id="circle39" style="fill:#ffffff;stroke-width:0.389223;stroke-miterlimit:4.1" d="m 8.9902426,12.836278 a 2.7767174,2.7767174 0 0 0 -1.818268,-0.678197 2.7767174,2.7767174 0 0 0 -2.776732,2.776732 2.7767174,2.7767174 0 0 0 2.776732,2.776732 2.7767174,2.7767174 0 0 0 2.776732,-2.776732 2.7767174,2.7767174 0 0 0 -0.958464,-2.098535 z m 0.3482334,2.271008 a 0.359,0.359 0 0 1 0.1479901,0.290499 0.359,0.359 0 0 1 -0.3602919,0.357368 l -3.1406779,-0.0026 A 0.3590359,0.3590359 0 0 1 5.626666,15.387919 L 5.64859,13.840783 a 0.359,0.359 0 0 1 0.3632151,-0.354445 0.359,0.359 0 0 1 0.3533491,0.364311 l -0.014982,1.183555 2.7770974,0.0044 a 0.359,0.359 0 0 1 0.2112056,0.0687 z" transform="rotate(-45)" fill="white" fill-opacity="1" class="fg" xmlns="http://www.w3.org/2000/svg"/>
</svg>