<svg xmlns="http://www.w3.org/2000/svg" xmlns:xlink="http://www.w3.org/1999/xlink" version="1.1" viewBox="10.694709 1.8159605 10.053469 9.8530188">
<rect id="icon-skip-clickable" x="9.6893621" y="0.8306586200000003" width="12.0641628" height="11.823622559999999" fill="transparent" fill-opacity="0" stroke-dasharray="0.0452804, 0.18112" stroke-width="0.0279995" style="display:inline;mix-blend-mode:normal;stroke-miterlimit:4.1" xmlns:inkscape="http://www.inkscape.org/namespaces/inkscape" inkscape:label="icon-start-clickable" class="bg-item bg" xmlns="http://www.w3.org/2000/svg"/>
<text x="15.562188" y="10.442361" fill="white" stroke-width="0.105981" text-align="center" style="font-weight:bold;font-size:1.05771px;line-height:1.2;font-family:'Devanagari Sangam MN';letter-spacing:0.0698125px;word-spacing:0.00396651px;text-anchor:middle;fill:#ffffff;fill-opacity:1;stroke:none;stroke-linecap:round;stroke-miterlimit:4.1" xml:space="preserve" id="text1" fill-opacity="1" class="fg" xmlns="http://www.w3.org/2000/svg"><tspan x="15.597094" y="10.442361" fill="white" font-size="1.05771px" stroke-width="0.105981" id="tspan1" style="fill:#ffffff;fill-opacity:1;stroke:none" fill-opacity="1" class="fg">NEXT</tspan></text>
<path id="circle1" style="fill:#ffffff;stroke-width:0.389223;stroke-miterlimit:4.1" d="M 15.632254,2.7123227 A 2.7767174,2.7767174 0 0 0 12.855163,5.4888975 2.7767174,2.7767174 0 0 0 15.632254,8.2659889 2.7767174,2.7767174 0 0 0 18.408829,5.4888975 2.7767174,2.7767174 0 0 0 15.632254,2.7123227 Z M 14.071626,3.913283 c 0.02786,5.256e-4 0.0555,0.00816 0.0801,0.023254 l 2.338358,1.4169678 c 0.100661,0.06213 0.100661,0.2086546 0,0.2707845 L 14.151726,7.0412571 C 14.045945,7.1056961 13.910259,7.0297271 13.90988,6.9058648 V 4.0719297 c -10e-6,-0.057264 0.0308,-0.1102469 0.08061,-0.1384929 0.02515,-0.014154 0.05328,-0.020679 0.08113,-0.020154 z m 1.300696,0.00155 c 0.03731,-0.00617 0.0756,0.00116 0.108004,0.020671 l 2.337841,1.4180013 c 0.101387,0.062017 0.101387,0.2092843 0,0.2713013 l -2.337841,1.416451 C 15.374587,7.1063351 15.23839,7.0305413 15.237963,6.906382 V 6.4800514 L 15.55629,6.2867816 V 6.6231951 L 17.429561,5.4883807 15.55629,4.3556333 v 0.33538 L 15.237963,4.4977435 V 4.0724464 c 7e-5,-0.057828 0.03154,-0.1110596 0.08217,-0.1390096 0.01617,-0.0092 0.03384,-0.015503 0.05219,-0.018603 z" fill="white" fill-opacity="1" class="fg" xmlns="http://www.w3.org/2000/svg"/>
<g id="icon-skip-invert" class="bg" xmlns="http://www.w3.org/2000/svg"/>
</svg>