<svg xmlns="http://www.w3.org/2000/svg" xmlns:xlink="http://www.w3.org/1999/xlink" version="1.1" viewBox="20.059 30.161 9.8819 9.8819">
<rect id="icon-pitches-clickable" class="bg-item bg" x="19.07081" y="29.172810000000002" width="11.858279999999999" height="11.858279999999999" fill="darkgreen" fill-opacity="1" stroke-dasharray="0.0452804, 0.18112" stroke-miterlimit="4.1" stroke-width=".023409" style="mix-blend-mode:normal" xmlns="http://www.w3.org/2000/svg"/>
<path class="fg" d="m27.56 31.339a0.052046 0.052046 0 0 0-0.05227 0.05227v2.2116a0.052046 0.052046 0 0 0 0.05227 0.05021 0.052046 0.052046 0 0 0 0.05227-0.05021v-0.29405l0.39088 0.3371v0.35194a0.052046 0.052046 0 0 0 0.05227 0.05227 0.052046 0.052046 0 0 0 0.05227-0.05227v-2.2095a0.052046 0.052046 0 0 0-0.05227-0.05227 0.052046 0.052046 0 0 0-0.05227 0.05227v1.7423l-0.39088-0.33759v-1.8018a0.052046 0.052046 0 0 0-0.05227-0.05227zm-1.0082 1.3545-0.51229 0.1501 0.65625 0.58555 0.51178-0.15062-0.65574-0.58503zm-0.70747 0.20746-0.20645 0.06048 2.5625 2.2863 0.20645-0.06096-2.5625-2.2858zm-0.30994 0.09066-0.67469 0.19776 2.5496 2.291 0.67417-0.19824-0.6629-0.5958c-0.0031 9.02e-4 -0.0064 0.0015-0.0097 2e-3 -0.34534 0.04207-0.81472-0.11989-1.1101-0.38421-0.29435-0.26456-0.32755-0.55445-0.07839-0.6834 0.0031-9.04e-4 0.0064-0.0015 0.0097-2e-3l-0.69774-0.62704zm-3.6946 0.02698a0.052046 0.052046 0 0 0-0.05227 0.05227v1.1895l-0.14242-0.12806-0.20746 0.06044 0.34988 0.31454v0.13781l-0.46567-0.41855-0.5128 0.15062 0.65215 0.58606 0.32635-0.09375v0.17419l-0.17981 0.05121 0.14909 0.13372 0.03073-0.0087v0.06198a0.052046 0.052046 0 0 0 0.05227 0.05021 0.052046 0.052046 0 0 0 0.05227-0.05021v-0.09168l0.0053-0.0014v-0.19671l0.08813 0.07579v0.09528l0.02398-0.0068 0.27408 0.2459v0.27457a0.052046 0.052046 0 0 0 0.05227 0.05227 0.052046 0.052046 0 0 0 0.05227-0.05227v-2.2093a0.052046 0.052046 0 0 0-0.05227-0.05227 0.052046 0.052046 0 0 0-0.05227 0.05227v0.47797l-0.29918 0.08761v0.17367l0.29918 0.26894v0.23002l-0.29918-0.26842 5.1e-4 0.24692 0.29866 0.26842v0.14242c-4e-3 -0.0045-0.0078-0.0094-0.01237-0.01386l-0.14909-0.13372-0.01275 0.0036-0.06249-0.05583-0.06197 0.01723v0.03945l-0.09274-0.07991v-0.03222l0.0053-0.0014-5.14e-4 -0.09475-0.0045-0.0042v-0.13833l0.0045 0.0041v-0.2469l-0.0045-4e-3v-0.23008l0.0042 0.0036v-0.06917l-0.0042 9.89e-4v-0.98868a0.052046 0.052046 0 0 0-0.05227-0.05227zm2.8145 0.23103-1.958 0.57428 2.5507 2.292 1.9564-0.57531-2.5491-2.291zm2.6229 0.09066-0.51075 0.15062 0.14961 0.13372 0.78074 0.6962 0.14961 0.13372 0.51075-0.15115-0.14961-0.1332-0.23208 0.06865-0.78022-0.69672 0.23155-0.06816zm-0.93135 0.38012c-0.19352 0.1069-0.16434 0.33646 0.07172 0.54867 0.23714 0.21218 0.60866 0.3431 0.88832 0.31406l-0.96004-0.8627zm-3.8329 0.15729-0.0094 0.0025 5.14e-4 0.74948c0.3335-0.0064 0.74892 0.14808 1.0179 0.38986 0.28094 0.2531 0.32286 0.52898 0.10656 0.66495l0.76076 0.68339 0.67469-0.19824-2.5512-2.292zm5.9272 0.49999-0.51178 0.15111 0.67315 0.60041 0.51229-0.15062zm-5.8668 0.35808 0.9375 0.84272c0.15324-0.11439 0.1129-0.32792-0.10656-0.52561-0.22035-0.19806-0.55917-0.32485-0.83093-0.31709zm-0.06917 0.16853v0.24691l1.4851 1.3341 0.20697-0.06096-1.6921-1.5199zm5.12e-4 0.40113v0.2951l0.20491 0.18393-0.25306 0.07272 0.14856 0.13372 0.51486-0.14755-0.14909-0.13372zm0.69877 0.61218-0.51588 0.14755 0.67315 0.60502 0.5128-0.15062z" fill="white" stroke-width=".99134" fill-opacity="1" xmlns="http://www.w3.org/2000/svg"/>
<text transform="translate(10.01)" x="14.993301" y="38.811985" fill="white" font-family="'Devanagari Sangam MN'" font-size="1.0577px" font-weight="bold" letter-spacing=".069812px" stroke-linecap="round" stroke-miterlimit="4.1" stroke-width=".10598" text-align="center" text-anchor="middle" word-spacing=".0039665px" style="line-height:1.2" xml:space="preserve" fill-opacity="1" class="fg" xmlns="http://www.w3.org/2000/svg"><tspan x="15.028206" y="38.811985" fill="white" font-size="1.0577px" stroke-width=".10598" fill-opacity="1" class="fg">PITCHES</tspan></text>
</svg>