<svg xmlns="http://www.w3.org/2000/svg" xmlns:xlink="http://www.w3.org/1999/xlink" version="1.1" viewBox="10.695 1.816 10.053 9.853">
<rect id="icon-skip-clickable" x="9.6897" y="0.8307000000000004" width="12.063600000000001" height="11.823599999999999" fill="darkgreen" fill-opacity="1" stroke-dasharray="0.0452804, 0.18112" stroke-width=".028" style="mix-blend-mode:normal" class="bg-item bg" xmlns="http://www.w3.org/2000/svg"/>
<text x="15.562188" y="10.442361" fill="white" font-family="'Devanagari Sangam MN'" font-size="1.0577px" font-weight="bold" letter-spacing=".069812px" stroke-linecap="round" stroke-width=".10598" text-align="center" text-anchor="middle" word-spacing=".0039665px" style="line-height:1.2" xml:space="preserve" fill-opacity="1" class="fg" xmlns="http://www.w3.org/2000/svg"><tspan x="15.597094" y="10.442361" fill="white" font-size="1.0577px" stroke-width=".10598" fill-opacity="1" class="fg">NEXT</tspan></text>
<path d="m15.632 2.7123a2.7767 2.7767 0 0 0-2.7771 2.7766 2.7767 2.7767 0 0 0 2.7771 2.7771 2.7767 2.7767 0 0 0 2.7766-2.7771 2.7767 2.7767 0 0 0-2.7766-2.7766zm-1.5606 1.201c0.027855 5.256e-4 0.055504 0.0081624 0.080099 0.023254l2.3384 1.417c0.10066 0.06213 0.10066 0.20865 0 0.27078l-2.3384 1.417c-0.10578 0.064439-0.24147-0.01153-0.24185-0.13539v-2.8339c-1e-5 -0.057264 0.030805-0.11025 0.080615-0.13849 0.025147-0.014154 0.053277-0.020679 0.081132-0.020154zm1.3007 0.0015503c0.037313-0.0061734 0.075604 0.0011556 0.108 0.020671l2.3378 1.418c0.10139 0.062017 0.10139 0.20928 0 0.2713l-2.3378 1.4165c-0.10574 0.065078-0.24194-0.010716-0.24236-0.13488v-0.42633l0.31833-0.19327v0.33641l1.8733-1.1348-1.8733-1.1327v0.33538l-0.31833-0.19327v-0.4253c7e-5 -0.057828 0.031536-0.11106 0.082166-0.13901 0.01617-0.009203 0.033843-0.015504 0.052193-0.018604z" fill="white" stroke-width=".38922" fill-opacity="1" class="fg" xmlns="http://www.w3.org/2000/svg"/>
</svg>