<?xml version="1.0" encoding="UTF-8"?>
<svg version="1.1" viewBox="10.695 1.816 9.853 9.853" xmlns="http://www.w3.org/2000/svg">
 <rect id="icon-start-clickable" class="bg-item bg" x="9.7097" y=".8307" width="11.824" height="11.824" rx="10" fill="transparent" fill-opacity="0" stroke-dasharray="0.0452804, 0.18112" stroke-width=".028" style="mix-blend-mode:normal"/>
 <text class="fg" x="15.562188" y="10.442361" fill="#ffffff" font-family="'Devanagari Sangam MN'" font-size="1.0577px" font-weight="bold" letter-spacing=".069812px" stroke-linecap="round" stroke-width=".10598" text-align="center" text-anchor="middle" word-spacing=".0039665px" style="line-height:1.2" xml:space="preserve"><tspan class="fg" x="15.597094" y="10.442361" fill="#ffffff" font-size="1.0577px" stroke-width=".10598">EDIT</tspan></text>
 <path d="m15.603 2.7848a2.7346 2.7346 0 0 0-2.7368 2.7337 2.7346 2.7346 0 0 0 2.7368 2.7368 2.7346 2.7346 0 0 0 2.7337-2.7368 2.7346 2.7346 0 0 0-2.7337-2.7337zm-1.0533 1.1416 0.54492 0.54492-0.54492 0.54492-0.58144-0.54492zm0.67582 0.69713 1.3669 1.3638-0.54796 0.54796-1.3638-1.3669zm1.4551 1.443 0.27094 0.27398v0.54492h-0.54492l-0.27398-0.27398z" fill="#fff" stroke-dashoffset=".19729" stroke-linecap="round" stroke-miterlimit="4.1" stroke-width="3.4847"/>
</svg>
