<svg xmlns="http://www.w3.org/2000/svg" xmlns:xlink="http://www.w3.org/1999/xlink" version="1.1" viewBox="10.062708 0.14332104 9.8534603 9.8530188">
<rect id="icon-home-clickable" x="9.077361970000002" y="-0.8419808399999997" width="11.82415236" height="11.823622559999999" fill="transparent" fill-opacity="0" stroke-dasharray="0.0452804, 0.18112" stroke-width="0.0280001" style="mix-blend-mode:normal;stroke-miterlimit:4.1" class="bg-item bg" xmlns="http://www.w3.org/2000/svg"/>
<text x="15.256162" y="8.6497364" fill="white" font-family="'Devanagari Sangam MN'" font-size="1.03203px" font-weight="bold" letter-spacing="0.16627px" stroke-linecap="round" stroke-width="0.245799" text-align="center" text-anchor="middle" word-spacing="0.0094471px" style="line-height:1.2;mix-blend-mode:normal;stroke-miterlimit:4.1" xml:space="preserve" id="txt-home" transform="scale(0.97571427,1.0248902)" fill-opacity="1" class="fg" xmlns="http://www.w3.org/2000/svg"><tspan x="15.290218" y="8.6497364" fill="white" font-size="1.03203px" stroke-width="0.245799" id="tspan3" fill-opacity="1" class="fg">HOME</tspan></text>
<path id="view-home-icon" d="m 14.890395,1.1186577 c -0.04027,0.00204 -0.07923,0.013167 -0.114633,0.034403 l -2.875283,1.7253386 c -0.141594,0.084969 -0.170197,0.2978804 -0.06383,0.4771993 l 0.02016,0.033958 c 0.106384,0.179319 0.305998,0.2552076 0.447584,0.1702384 l 0.181814,-0.1089354 h 0.02098 c -0.0059,0.030638 -0.01056,0.062157 -0.01056,0.095263 v 2.6898248 c 0,0.2151467 0.133092,0.3885513 0.29853,0.3885513 h 1.529698 V 4.7453681 h 1.365083 v 1.8791307 h 1.555047 c 0.165439,0 0.298531,-0.1734049 0.298531,-0.3885513 V 3.5461228 c 0,-0.028044 -0.0028,-0.055262 -0.0072,-0.08159 l 0.159132,0.095263 c 0.141593,0.084969 0.341203,0.00908 0.447582,-0.1702385 l 0.02016,-0.033957 C 18.269573,3.1762812 18.24138,2.9633707 18.09979,2.878401 L 15.224633,1.1530605 C 15.157463,1.1127515 15.077157,1.1089965 15,1.1349695 14.9635,1.1226875 14.92658,1.1168415 14.890403,1.1186485 Z" fill="white" stroke-linejoin="round" stroke-width="1.08254" style="stroke-miterlimit:4.1" fill-opacity="1" class="fg" xmlns="http://www.w3.org/2000/svg"/>
</svg>