<svg xmlns="http://www.w3.org/2000/svg" xmlns:xlink="http://www.w3.org/1999/xlink" version="1.1" viewBox="10.694709 1.8159605 9.8530178 9.8530188">
<rect id="icon-earlier-clickable" x="9.70940722" y="0.8306586200000003" width="11.823621359999999" height="11.823622559999999" fill="transparent" fill-opacity="0" stroke-dasharray="0.0452804, 0.18112" stroke-width="0.0279995" style="display:inline;mix-blend-mode:normal;stroke-miterlimit:4.1" xmlns:inkscape="http://www.inkscape.org/namespaces/inkscape" inkscape:label="icon-earlier-clickable" class="bg-item bg" xmlns="http://www.w3.org/2000/svg"/>
<text x="15.562188" y="10.442361" fill="white" stroke-width="0.105981" text-align="center" style="font-weight:bold;font-size:1.05771px;line-height:1.2;font-family:'Devanagari Sangam MN';letter-spacing:0.0698125px;word-spacing:0.00396651px;text-anchor:middle;fill:#ffffff;fill-opacity:1;stroke:none;stroke-linecap:round;stroke-miterlimit:4.1" xml:space="preserve" id="text40" fill-opacity="1" class="fg" xmlns="http://www.w3.org/2000/svg"><tspan x="15.597094" y="10.442361" fill="white" font-size="1.05771px" stroke-width="0.105981" id="tspan40" style="fill:#ffffff;fill-opacity:1;stroke:none" fill-opacity="1" class="fg">EARLIER</tspan></text>
<path id="path40" style="display:inline;fill:#ffffff;stroke-width:0.778446" d="m 12.855026,5.4888459 c -2.06e-4,1.5336292 1.242946,2.7770133 2.776575,2.7770919 1.533831,2.063e-4 2.777298,-1.243261 2.777092,-2.7770919 -8e-5,-1.5336284 -1.243463,-2.7767805 -2.777092,-2.7765742 -1.533427,7.86e-5 -2.776496,1.2431474 -2.776575,2.7765742 z m 1.123963,0.9208746 c -0.0087,-0.055838 0.0026,-0.1129658 0.03204,-0.161231 l 1.416968,-2.3399088 c 0.09323,-0.1523146 0.314493,-0.1523146 0.407727,0 l 1.416967,2.3399088 c 0.09509,0.1589385 -0.01891,0.3609624 -0.204122,0.3617354 h -2.833936 c -0.08624,5.52e-5 -0.165829,-0.046356 -0.208256,-0.12144 -0.01371,-0.024537 -0.02298,-0.051307 -0.02739,-0.079064 z" xmlns:sodipodi="http://sodipodi.sourceforge.net/DTD/sodipodi-0.dtd" sodipodi:nodetypes="cccccccccccccc" fill="white" fill-opacity="1" class="fg" xmlns="http://www.w3.org/2000/svg"/>
</svg>