<svg xmlns="http://www.w3.org/2000/svg" xmlns:xlink="http://www.w3.org/1999/xlink" version="1.1" viewBox="8.862359 30.175224 10.053469 9.8530188">
<rect id="icon-team-clickable" x="7.8570120999999995" y="29.18992212" width="12.0641628" height="11.823622559999999" fill="transparent" fill-opacity="0" stroke-dasharray="0.0452804, 0.18112" stroke-width="0.0279995" style="display:inline;mix-blend-mode:normal;stroke-miterlimit:4.1" xmlns:inkscape="http://www.inkscape.org/namespaces/inkscape" inkscape:label="icon-team-clickable" class="bg-item bg" xmlns="http://www.w3.org/2000/svg"/>
<path id="path69" style="fill:#ffffff;fill-opacity:1;stroke-width:0.253901;stroke-miterlimit:4.1" d="m 13.939551,32.877063 c -0.576421,-9.3e-5 -1.043958,0.466927 -1.043864,1.043347 1.38e-4,0.576256 0.467608,1.04344 1.043864,1.043347 0.576092,-1.41e-4 1.042692,-0.467255 1.04283,-1.043347 9.4e-5,-0.576256 -0.466574,-1.043208 -1.04283,-1.043347 z m -2.652035,0.04703 c -0.358428,-5.8e-5 -0.649114,0.290627 -0.649056,0.649056 8.6e-5,0.358326 0.29073,0.648597 0.649056,0.648539 0.358225,-8.7e-5 0.648453,-0.290315 0.648539,-0.648539 5.8e-5,-0.358327 -0.290212,-0.648969 -0.648539,-0.649056 z m 5.283399,0 c -0.358327,8.7e-5 -0.648598,0.290729 -0.64854,0.649056 8.6e-5,0.358224 0.290315,0.648452 0.64854,0.648539 0.358326,5.8e-5 0.648969,-0.290213 0.649056,-0.648539 5.7e-5,-0.358429 -0.290628,-0.649114 -0.649056,-0.649056 z m -5.261178,1.454691 c -0.65888,0.0027 -1.199621,0.522053 -1.228866,1.18029 h 2.461866 c -0.02932,-0.659856 -0.572494,-1.179824 -1.233,-1.18029 z m 5.261178,0 c -0.658881,0.0027 -1.199622,0.522053 -1.228866,1.18029 h 2.461865 c -0.02932,-0.659856 -0.572493,-1.179825 -1.232999,-1.18029 z m -2.631364,0.837675 c -1.059602,0.0043 -1.929594,0.839509 -1.976624,1.898075 h 3.959448 c -0.04715,-1.061169 -0.920607,-1.897327 -1.982824,-1.898075 z" fill="white" fill-opacity="1" class="fg" xmlns="http://www.w3.org/2000/svg"/>
<text x="13.811308" y="38.78006" fill="white" stroke-width="0.105981" text-align="center" style="font-weight:bold;font-size:1.05771px;line-height:1.2;font-family:'Devanagari Sangam MN';letter-spacing:0.0698125px;word-spacing:0.00396651px;text-anchor:middle;display:inline;fill:#ffffff;fill-opacity:1;stroke:none;stroke-linecap:round;stroke-miterlimit:4.1" xml:space="preserve" id="text64" xmlns:inkscape="http://www.inkscape.org/namespaces/inkscape" inkscape:label="text52" fill-opacity="1" class="fg" xmlns="http://www.w3.org/2000/svg"><tspan x="13.846212" y="38.78006" fill="white" font-size="1.05771px" stroke-width="0.105981" id="tspan64" style="fill:#ffffff;fill-opacity:1;stroke:none" fill-opacity="1" class="fg">TEAM</tspan></text>
</svg>