<svg xmlns="http://www.w3.org/2000/svg" xmlns:xlink="http://www.w3.org/1999/xlink" version="1.1" viewBox="30.940256 1.1659571 9.8529997 9.8534603">
<rect id="icon-umpires-circle-clickable" x="29.95495603" y="0.18061107000000032" width="11.82359964" height="11.82415236" fill="transparent" fill-opacity="0" stroke-dasharray="0.0452804, 0.18112" stroke-width="0.0280007" style="mix-blend-mode:normal;stroke-miterlimit:4.1" class="bg-item bg" xmlns="http://www.w3.org/2000/svg"/>
<path id="circle42-1" style="display:inline;fill:#ffffff;stroke-width:0.389224;stroke-miterlimit:4.1" d="M 35.866705,1.3315627 A 4.7613688,4.7613688 0 0 0 31.105239,6.0925124 4.7613688,4.7613688 0 0 0 35.866705,10.853979 4.7613688,4.7613688 0 0 0 40.628172,6.0925124 4.7613688,4.7613688 0 0 0 35.866705,1.3315627 Z M 35.385598,2.262772 h 5.16e-4 c 0.118715,0.00108 0.208773,0.046509 0.208773,0.046509 L 35.867222,2.4601761 36.13904,2.309281 c 0,0 0.09058,-0.045669 0.20929,-0.046509 0.118714,-0.00105 0.265654,0.042731 0.378788,0.2206583 0.1179,0.1857749 0.07317,0.3476707 0.0078,0.4588868 l 2.134237,1.1844238 c 0,0 0.266877,0.1591308 0.347266,0.4480347 0.03886,0.1398485 -0.07648,0.4289143 -0.07648,0.4289143 L 37.58598,7.6949985 v 2.227771 H 37.03821 V 6.1715773 L 38.000425,4.808353 35.127216,3.0978631 c 0,0 -0.338381,-0.2716376 -0.120407,-0.6144328 0.113139,-0.1779508 0.260077,-0.2214998 0.378789,-0.2206583 z m -0.660425,0.8314738 0.0036,0.00362 0.938444,0.5586223 L 33.733485,4.8083557 34.6957,6.17158 V 9.9227722 H 34.14793 V 7.6950012 L 32.59402,5.0036926 c 0,0 -0.115868,-0.2890663 -0.077,-0.4289143 0.0804,-0.2889039 0.347782,-0.4480347 0.347782,-0.4480347 z m 1.132231,0.9089884 A 1.0153416,1.0153416 0 0 1 36.872845,5.0186761 1.0153416,1.0153416 0 0 1 35.857404,6.034118 1.0153416,1.0153416 0 0 1 34.841962,5.0186761 1.0153416,1.0153416 0 0 1 35.857404,4.0032342 Z m -0.24443,2.3120036 -0.0072,3.6075317 H 35.101377 V 6.9772129 Z m 0.507463,0 0.511596,0.6619751 v 2.9455566 h -0.503845 z" fill="white" fill-opacity="1" class="fg" xmlns="http://www.w3.org/2000/svg"/>
</svg>