<svg xmlns="http://www.w3.org/2000/svg" xmlns:xlink="http://www.w3.org/1999/xlink" version="1.1" viewBox="40.095055 0.14332069 9.8530178 9.8530188">
<rect id="icon-notplayed-clickable" x="39.10975322" y="-0.8419811899999997" width="11.823621359999999" height="11.823622559999999" fill="transparent" fill-opacity="0" stroke-dasharray="0.0452804, 0.18112" stroke-width="0.0279995" style="display:inline;mix-blend-mode:normal;stroke-miterlimit:4.1" class="bg-item bg" xmlns="http://www.w3.org/2000/svg"/>
<path id="circle38" style="color:#000000;fill:#ffffff;stroke:none;stroke-width:1.00021e-05;stroke-miterlimit:4.1;stroke-dasharray:none" d="m 44.989501,1.0862386 c -1.543842,-2e-7 -2.803446,1.2565033 -2.803446,2.8003459 0,1.5438424 1.259604,2.8008628 2.803446,2.8008626 1.543843,2e-7 2.800348,-1.2570202 2.800348,-2.8008626 0,-1.5438426 -1.256505,-2.8003461 -2.800348,-2.8003459 z m 0,0.5901448 c 1.224529,-2e-7 2.210202,0.9856742 2.210202,2.2102011 0,1.2245268 -0.985673,2.2107179 -2.210202,2.2107178 -1.224526,1e-7 -2.210716,-0.986191 -2.210716,-2.2107178 0,-1.2245269 0.98619,-2.2102013 2.210716,-2.2102011 z m 1.144635,0.6283855 -2.853573,2.6277465 c 0.13596,0.2229093 0.315037,0.4163247 0.525549,0.5694743 L 46.658134,2.8716593 C 46.52219,2.6499718 46.343748,2.4573038 46.134136,2.3047689 Z" fill="white" fill-opacity="1" class="fg" xmlns="http://www.w3.org/2000/svg"/>
<text x="47.282143" y="8.4709778" fill="white" font-family="'Devanagari Sangam MN'" font-size="1.00502px" font-weight="bold" letter-spacing="0.14689px" stroke-linecap="round" stroke-miterlimit="4.1" stroke-width="0.270958" text-align="center" text-anchor="middle" word-spacing="0.0083458px" style="line-height:1.2;mix-blend-mode:normal;fill:#ffffff" xml:space="preserve" id="text41" transform="scale(0.95019061,1.0524204)" fill-opacity="1" class="fg" xmlns="http://www.w3.org/2000/svg"><tspan x="47.315311" y="8.4709778" fill="white" font-size="1.00502px" stroke-width="0.270958" id="tspan41" style="fill:#ffffff" fill-opacity="1" class="fg">NOT PLAYED</tspan></text>
</svg>