<svg xmlns="http://www.w3.org/2000/svg" xmlns:xlink="http://www.w3.org/1999/xlink" version="1.1" viewBox="25.134003 49.263592 9.8534603 9.8530178">
<rect id="icon-referee-clickable" x="24.14865697" y="48.27829022" width="11.82415236" height="11.823621359999999" fill="transparent" fill-opacity="0" stroke-dasharray="0.0452804, 0.18112" stroke-width="0.028" style="mix-blend-mode:normal;stroke-miterlimit:4.1" class="bg-item bg" xmlns="http://www.w3.org/2000/svg"/>
<text x="29.510983" y="59.319084" fill="white" font-family="'Devanagari Sangam MN'" font-size="1.13318px" font-weight="bold" letter-spacing="0.14689px" stroke-linecap="round" stroke-miterlimit="4.1" stroke-width="0.305509" text-align="center" text-anchor="middle" word-spacing="0.0083458px" style="line-height:1.2;display:inline;mix-blend-mode:normal;fill:#ffffff;fill-opacity:1" xml:space="preserve" id="text73" transform="scale(1.0248902,0.97571427)" fill-opacity="1" class="fg" xmlns="http://www.w3.org/2000/svg"><tspan xmlns:sodipodi="http://sodipodi.sourceforge.net/DTD/sodipodi-0.dtd" sodipodi:role="line" id="tspan73" x="29.510983" y="59.319084" style="stroke-width:0.305509" fill="white" fill-opacity="1" class="fg">REFEREE</tspan><tspan xmlns:sodipodi="http://sodipodi.sourceforge.net/DTD/sodipodi-0.dtd" sodipodi:role="line" id="tspan74" x="29.510983" y="60.678902" style="stroke-width:0.305509" fill="white" fill-opacity="1" class="fg"/></text>
<path d="m 28.023162,55.634958 c -0.07898,-0.04772 -0.02896,-1.581281 0.05701,-1.74823 0.08777,-0.170444 0.231901,-0.326825 0.387631,-0.420646 0.09342,-0.05627 0.109036,-0.07673 0.09835,-0.128845 -0.01585,-0.07735 0.210152,-0.304186 0.288828,-0.289899 0.08353,0.01515 0.07381,0.114901 -0.02045,0.209728 -0.08238,0.08287 -0.08317,0.08547 -0.0214,0.07077 0.03526,-0.0084 0.205495,-0.01544 0.378304,-0.01557 0.296957,-2.65e-4 0.314171,-0.0027 0.314171,-0.04917 0,-0.03963 -0.01709,-0.04882 -0.09079,-0.04882 -0.277363,0 -0.459442,-0.260375 -0.348709,-0.498665 0.08776,-0.18888 0.153712,-0.211024 0.606207,-0.203543 0.384707,0.0063 0.384707,0.0063 0.392106,0.1918 0.0084,0.211272 0.0056,0.21542 -0.193358,0.277197 -0.219664,0.06823 -0.119512,0.13556 0.201628,0.13556 0.563585,0 0.825404,-0.307712 0.838803,-0.985931 0.01092,-0.552848 -0.02823,-0.625534 -0.336989,-0.625534 -0.179944,0 -0.222549,-0.01629 -0.222549,-0.08508 0,-0.193786 0.509337,-0.125367 0.663905,0.08918 0.160218,0.222403 0.252359,-0.07067 0.13034,-0.414579 -0.06221,-0.175353 -0.05396,-0.224341 0.0378,-0.224341 0.118092,0 0.237589,0.353376 0.20929,0.61891 -0.01276,0.11968 -0.0069,0.152834 0.03595,0.204728 0.139179,0.16845 -0.0099,0.52657 -0.242274,0.58212 -0.04949,0.01184 -0.06294,0.03859 -0.08601,0.17112 -0.04035,0.231817 -0.135069,0.406266 -0.312119,0.574814 -0.212107,0.201929 -0.217705,0.283927 -0.02012,0.294755 0.18515,0.01012 0.184681,0.0473 -0.0052,0.407864 -0.176332,0.334875 -0.168308,0.330375 -0.416541,0.234339 -0.08678,-0.03359 -0.161068,-0.06104 -0.165069,-0.06104 -0.004,0 -0.01067,0.07851 -0.01481,0.17446 -0.01348,0.31206 -0.18112,0.31206 -0.194599,0 -0.0041,-0.09595 -0.01081,-0.17446 -0.01481,-0.17446 -0.004,0 -0.07829,0.02745 -0.165069,0.06104 -0.230681,0.08924 -0.248047,0.08483 -0.338605,-0.08594 -0.06322,-0.119226 -0.07264,-0.156396 -0.04992,-0.196814 0.04221,-0.07509 0.131643,-0.0505 0.18474,0.0508 0.05073,0.09678 0.04874,0.0962 0.180945,0.05222 0.119348,-0.03968 0.117996,-0.04347 -0.06716,-0.186491 -0.149186,-0.115241 -0.149186,-0.115241 -0.512944,-0.105682 -0.723966,0.01903 -0.993246,0.266077 -1.013391,0.929694 -0.01018,0.335739 -0.01018,0.335739 0.274845,0.335739 0.285022,0 0.285022,0 0.285022,-0.104993 0,-0.153035 0.115655,-0.228371 0.178626,-0.116362 0.08471,0.150689 0.02251,1.124736 -0.07181,1.124736 -0.09375,0 -0.106814,-0.04841 -0.106814,-0.395545 0,-0.336951 0,-0.336951 -0.282113,-0.336951 -0.282113,0 -0.282113,0 -0.282113,0.336951 0,0.377287 -0.02793,0.447604 -0.148803,0.374621 z m 2.559217,-1.956113 c 0.126053,-0.237729 0.08251,-0.262143 -0.148829,-0.08345 -0.178774,0.138095 -0.164508,0.199568 0.05265,0.226877 0.01038,0.0013 0.05365,-0.06323 0.09617,-0.143426 z M 30.287685,53.47925 c 0.165233,-0.126059 0.244441,-0.27483 0.121947,-0.229042 -0.02468,0.0092 -0.111243,0.02807 -0.192351,0.04186 -0.140329,0.02387 -0.362573,0.0047 -0.487297,-0.04186 -0.130418,-0.04874 -0.0414,0.105484 0.139568,0.241798 0.209138,0.157537 0.194312,0.157989 0.418127,-0.01274 z m -0.736681,-0.526716 c 0.05186,-0.05235 0.140025,-0.106631 0.208203,-0.128187 0.251753,-0.07959 0.183174,-0.147261 -0.149255,-0.147261 -0.326077,0 -0.386479,0.02831 -0.386479,0.18135 0,0.181577 0.187507,0.235446 0.327538,0.09409 z m 1.711119,-0.958612 c 0.07006,-0.128978 0.03616,-0.220234 -0.0818,-0.220234 -0.05596,0 -0.05898,0.0088 -0.05898,0.171773 0,0.190401 0.05366,0.208866 0.140792,0.04847 z m -0.0373,3.61484 c -0.08471,-0.150684 -0.02251,-1.124731 0.07181,-1.124731 0.07317,0 0.106814,0.05153 0.106814,0.163591 0,0.104982 0,0.104982 0.284631,0.104982 0.284631,0 0.284631,0 0.275383,-0.32351 -0.01573,-0.550307 -0.226448,-0.832085 -0.690641,-0.923478 -0.208529,-0.04105 -0.27023,-0.193573 -0.07831,-0.193573 0.32045,0 0.699313,0.254146 0.868989,0.582952 0.09982,0.193421 0.128142,1.719844 0.03245,1.748761 -0.110985,0.03353 -0.128291,-0.01787 -0.128291,-0.381435 0,-0.338841 0,-0.338841 -0.282113,-0.338841 -0.282113,0 -0.282113,0 -0.282113,0.336951 0,0.347157 -0.01307,0.395544 -0.106814,0.395544 -0.0249,0 -0.05721,-0.02126 -0.07181,-0.04723 z m -1.035307,-0.701537 c -0.04424,-0.04212 -0.01505,-0.12978 0.04825,-0.144905 0.04853,-0.01159 0.08796,-0.05836 0.153243,-0.181771 0.115648,-0.218629 0.111756,-0.217643 0.374604,-0.09498 0.230679,0.107638 0.276642,0.155166 0.23011,0.237943 -0.0176,0.03132 -0.01725,0.05422 0.0011,0.07172 0.01485,0.01409 0.01931,0.04875 0.0099,0.07698 -0.01719,0.05156 -0.766151,0.08365 -0.817227,0.035 z m 0.598435,-0.186738 c 0,-0.02597 -0.14887,-0.114394 -0.192563,-0.114394 -0.0062,0 -0.02921,0.03299 -0.05108,0.07325 -0.03979,0.07324 -0.03979,0.07324 0.101927,0.07324 0.1,0 0.141715,-0.0094 0.141715,-0.03211 z M 28.3044,52.924337 c -0.01886,-0.01137 -0.0304,-0.04692 -0.02565,-0.07898 0.01173,-0.079 0.437028,-0.0925 0.45282,-0.01438 0.02029,0.100326 -0.29973,0.170266 -0.427173,0.09336 z m 0.370687,-0.366334 c -0.12724,-0.122985 -0.143017,-0.182735 -0.0612,-0.231789 0.03679,-0.02206 0.06636,-0.006 0.173114,0.09413 0.131438,0.123251 0.164549,0.214131 0.08818,0.242035 -0.06494,0.02371 -0.07065,0.02075 -0.200092,-0.104376 z m 1.811376,0.08868 c -0.0141,-0.01676 -0.03359,-0.05522 -0.04331,-0.0854 -0.0097,-0.03016 -0.04606,-0.06166 -0.08076,-0.06995 -0.08785,-0.02097 -0.124524,-0.09269 -0.07267,-0.142047 0.103375,-0.09842 0.344356,0.04603 0.344356,0.206386 0,0.102713 -0.09074,0.158666 -0.1476,0.09101 z m -1.427849,-0.276431 c -0.02217,-0.02112 -0.0403,-0.04738 -0.0403,-0.0584 0,-0.01103 -0.02796,-0.0267 -0.06214,-0.0349 -0.23625,-0.05645 -0.386076,-0.413097 -0.245181,-0.58363 0.04336,-0.05249 0.04907,-0.08416 0.03527,-0.19594 -0.0894,-0.724181 0.740846,-1.387633 1.554375,-1.242143 0.355983,0.06367 0.754432,0.287187 0.73895,0.414551 -0.01123,0.09239 -0.08403,0.09696 -0.196368,0.01231 -0.750825,-0.565695 -1.851323,-0.169808 -1.896711,0.682305 -0.01098,0.206149 0.04922,0.343078 0.09334,0.212305 0.03441,-0.101976 0.223154,-0.236486 0.356139,-0.25382 0.163492,-0.02131 0.309893,-0.150262 0.263762,-0.232323 -0.09032,-0.160666 0.077,-0.50594 0.234854,-0.484661 0.08072,0.01089 0.09836,0.127535 0.02495,0.16494 -0.16089,0.08198 -0.115587,0.285411 0.09258,0.415764 0.232852,0.145787 0.162901,0.287717 -0.08082,0.163989 -0.129143,-0.06556 -0.129143,-0.06556 -0.187193,0.0051 -0.0624,0.07591 -0.224846,0.14952 -0.329963,0.14952 -0.157082,0 -0.190666,0.08335 -0.190666,0.473268 0,0.351714 -0.0187,0.430143 -0.102586,0.430143 -0.01209,0 -0.04012,-0.01728 -0.06228,-0.03835 z m -0.0403,-0.427155 c 0,-0.172294 -9.5e-5,-0.172526 -0.06794,-0.164808 -0.13358,0.0152 -0.145086,0.161172 -0.02194,0.278404 0.087,0.08283 0.08989,0.07919 0.08989,-0.113596 z m 0.411381,0.06384 c -0.04137,-0.04745 -0.0093,-0.135462 0.04937,-0.135462 0.03624,0 0.04608,-0.01733 0.04315,-0.07599 -0.0025,-0.04932 0.01233,-0.08574 0.04215,-0.103771 0.07075,-0.04281 0.341621,0.228341 0.300754,0.301051 -0.03559,0.0633 -0.38275,0.07461 -0.435412,0.0142 z m 0.844866,-0.01421 c -0.04086,-0.07269 0.230001,-0.343811 0.30075,-0.301046 0.02981,0.01804 0.0446,0.05445 0.04215,0.103766 -0.0029,0.05867 0.0069,0.07599 0.04315,0.07599 0.05865,0 0.09073,0.08801 0.04937,0.135461 -0.05268,0.06043 -0.399848,0.04912 -0.435412,-0.0142 z m 0.09318,-0.865291 c -0.125955,-0.04276 -0.302448,-0.203578 -0.292466,-0.266523 0.0153,-0.09649 0.0889,-0.105371 0.179724,-0.02168 0.121912,0.112336 0.252915,0.157905 0.400407,0.139283 0.09311,-0.01174 0.129697,-0.0065 0.154678,0.02216 0.108434,0.124386 -0.193973,0.211068 -0.442343,0.126796 z" fill="white" stroke-width="0.774053" id="path73" style="display:inline;fill:#ffffff" fill-opacity="1" class="fg" xmlns="http://www.w3.org/2000/svg"/>
</svg>