<svg xmlns="http://www.w3.org/2000/svg" xmlns:xlink="http://www.w3.org/1999/xlink" version="1.1" viewBox="10.695 1.816 9.853 9.853">
<rect id="icon-ok-clickable" x="9.709700000000002" y="0.8307000000000004" width="11.823599999999999" height="11.823599999999999" fill="darkgreen" fill-opacity="1" stroke-dasharray="0.0452804, 0.18112" stroke-width=".028" style="mix-blend-mode:normal" class="bg-item bg" xmlns="http://www.w3.org/2000/svg"/>
<text x="15.562188" y="10.442361" fill="white" font-family="'Devanagari Sangam MN'" font-size="1.0577px" font-weight="bold" letter-spacing=".069812px" stroke-linecap="round" stroke-width=".10598" text-align="center" text-anchor="middle" word-spacing=".0039665px" style="line-height:1.2" xml:space="preserve" fill-opacity="1" class="fg" xmlns="http://www.w3.org/2000/svg"><tspan x="15.597094" y="10.442361" fill="white" font-size="1.0577px" stroke-width=".10598" fill-opacity="1" class="fg">OK</tspan></text>
<path transform="rotate(-45)" d="m8.9902 12.836a2.7767 2.7767 0 0 0-1.8183-0.6782 2.7767 2.7767 0 0 0-2.7767 2.7767 2.7767 2.7767 0 0 0 2.7767 2.7767 2.7767 2.7767 0 0 0 2.7767-2.7767 2.7767 2.7767 0 0 0-0.95846-2.0985zm0.34823 2.271a0.359 0.359 0 0 1 0.14799 0.2905 0.359 0.359 0 0 1-0.36029 0.35737l-3.1407-0.002558a0.35904 0.35904 0 0 1-0.35883-0.36468l0.021924-1.5471a0.359 0.359 0 0 1 0.36322-0.35444 0.359 0.359 0 0 1 0.35335 0.36431l-0.014982 1.1836 2.7771 0.004385a0.359 0.359 0 0 1 0.21121 0.068697z" fill="white" stroke-width=".38922" fill-opacity="1" class="fg" xmlns="http://www.w3.org/2000/svg"/>
</svg>