<svg xmlns="http://www.w3.org/2000/svg" xmlns:xlink="http://www.w3.org/1999/xlink" version="1.1" viewBox="40.1 10.95 9.85 7.15">
<path d="m47.6 11.123a0.0525 0.0525 0 0 0-0.05271 0.05271v2.2309a0.0525 0.0525 0 0 0 0.05271 0.050642 0.0525 0.0525 0 0 0 0.05271-0.050642v-0.29662l0.39429 0.34003v0.35502a0.0525 0.0525 0 0 0 0.05271 0.05271 0.0525 0.0525 0 0 0 0.05271-0.05271v-2.2288a0.0525 0.0525 0 0 0-0.05271-0.05271 0.0525 0.0525 0 0 0-0.05271 0.05271v1.7575l-0.39429-0.34055v-1.8175a0.0525 0.0525 0 0 0-0.05271-0.05271zm-1.017 1.3663-0.51676 0.15141 0.66198 0.59066 0.51625-0.15193-0.66146-0.59014zm-0.71365 0.20929-0.20826 0.060979 2.5849 2.3063 0.20826-0.061495-2.5849-2.3058zm-0.31264 0.091468-0.68058 0.19947 2.5719 2.311 0.68006-0.19999-0.66869-0.601c-0.0031 9.13e-4 -0.006319 0.001567-0.009819 0.002067-0.34835 0.04245-0.82183-0.12094-1.1198-0.38757-0.29693-0.26689-0.3304-0.55929-0.079065-0.68936 0.0031-9.13e-4 0.006318-0.001567 0.009818-0.002067l-0.70383-0.63252zm-3.7269 0.027388a0.0525 0.0525 0 0 0-0.05271 0.05271v1.1999l-0.14366-0.12919-0.20929 0.060978 0.35295 0.31729v0.13901l-0.46974-0.4222-0.51728 0.15193 0.65784 0.59118 0.32918-0.094568v0.1757l-0.18138 0.051676 0.15038 0.13488 0.031006-0.008785v0.062528a0.0525 0.0525 0 0 0 0.05271 0.050643 0.0525 0.0525 0 0 0 0.05271-0.050643v-0.092501l0.005168-0.00155v-0.19844l0.088883 0.076482v0.096118l0.024288-0.006718 0.27647 0.24805v0.27698a0.0525 0.0525 0 0 0 0.05271 0.05271 0.0525 0.0525 0 0 0 0.05271-0.05271v-2.2288a0.0525 0.0525 0 0 0-0.05271-0.05271 0.0525 0.0525 0 0 0-0.05271 0.05271v0.48214l-0.30179 0.088367v0.17518l0.30179 0.2713v0.23203l-0.30179-0.27078 5.16e-4 0.24908 0.30127 0.27078v0.14366c-0.004154-0.004637-0.008092-0.009501-0.012402-0.013953l-0.15038-0.13488-0.012919 0.003617-0.063045-0.056327-0.062529 0.01757v0.039791l-0.093534-0.080615v-0.032557l0.005168-0.00155-5.17e-4 -0.095601-0.004651-0.004134v-0.13953l0.004651 0.004134v-0.24908l-0.004651-0.004134v-0.23203l0.004134 0.003617v-0.069763l-0.004134 0.001033v-0.99736a0.0525 0.0525 0 0 0-0.05271-0.05271zm2.8391 0.23306-1.9751 0.57929 2.573 2.312 1.9735-0.58033-2.5714-2.311zm2.6458 0.091467-0.51521 0.15193 0.1509 0.13488 0.78755 0.70228 0.1509 0.13488 0.51521-0.15245-0.1509-0.13436-0.2341 0.069247-0.78703-0.7028 0.23358-0.068729-0.1509-0.13488zm-0.93948 0.38344c-0.19522 0.10785-0.16578 0.33942 0.072347 0.55346 0.23921 0.21404 0.61397 0.34608 0.89607 0.31678l-0.96842-0.87023zm-3.8664 0.15865-0.009301 0.002584 5.16e-4 0.75603c0.33642-0.0066 0.75546 0.14936 1.0268 0.39326 0.28341 0.2553 0.32568 0.5336 0.10749 0.67076l0.7674 0.68936 0.68058-0.19999-2.5735-2.312zm5.979 0.50436-0.51625 0.15244 0.67903 0.60565 0.51676-0.15193-0.67954-0.60616zm-5.918 0.36122 0.94568 0.85008c0.15458-0.11539 0.11388-0.3308-0.10749-0.5302-0.22228-0.19979-0.56406-0.32768-0.83819-0.31988zm-0.069764 0.17002v0.24908l1.4981 1.3457 0.20877-0.061495-1.7069-1.5332zm5.17e-4 0.40463v0.29766l0.20671 0.18552-0.25528 0.07338 0.14986 0.13488 0.51935-0.14883-0.15038-0.13488-0.47026-0.40773zm0.70487 0.61753-0.52038 0.14883 0.67903 0.6103 0.51728-0.15193-0.67593-0.6072z" fill="#bdbdb2" fill-opacity="0.5" class="fg" xmlns="http://www.w3.org/2000/svg"/>
</svg>
