<svg xmlns="http://www.w3.org/2000/svg" xmlns:xlink="http://www.w3.org/1999/xlink" version="1.1" viewBox="8.8624 30.175 10.053 9.853">
<rect id="icon-competition-clickable" x="7.857099999999999" y="29.189700000000002" width="12.063600000000001" height="11.823599999999999" fill="darkgreen" fill-opacity="1" stroke-dasharray="0.0452804, 0.18112" stroke-width=".028" style="mix-blend-mode:normal" class="bg-item bg" xmlns="http://www.w3.org/2000/svg"/>
<path d="m13.865 31-0.22174 0.52772-0.59542 0.06062 0.43561 0.37237-0.12911 0.5844 0.49072-0.29679 0.51538 0.30125-0.13068-0.55684 0.44532-0.39808-0.57049-0.04645zm-1.2297 1.9915v2.5879h0.43272c-0.0034-0.02691-0.0054-0.05397-6e-3 -0.08109-8.9e-5 -0.44511 0.36077-0.80596 0.80587-0.80587 0.44501 5.6e-5 0.8057 0.36087 0.80561 0.80587-5.58e-4 0.02711-0.0025 0.05417-0.0058 0.08109h0.43246v-2.5879zm2.6433 0.70143v1.8864h0.41986c-0.0033-0.02691-0.0052-0.05398-0.0058-0.08109-8.8e-5 -0.445 0.36061-0.80582 0.80561-0.80587 0.44511-8.9e-5 0.80596 0.36077 0.80588 0.80587-6.6e-4 0.02711-0.0026 0.05418-6e-3 0.08109h0.44532v-1.8864zm-5.2866 0.40176v1.4847h0.42275c-0.0034-0.02691-0.0054-0.05397-6e-3 -0.08109-8.9e-5 -0.44511 0.36077-0.80596 0.80587-0.80587 0.44501 5.6e-5 0.8057 0.36087 0.80561 0.80587-5.58e-4 0.02711-0.0025 0.05417-0.0058 0.08109h0.44269v-1.4847zm1.2226 0.75464c-0.35843-5.8e-5 -0.64901 0.29052-0.64895 0.64895 8.6e-5 0.35833 0.29062 0.64875 0.64895 0.64869 0.35822-8.7e-5 0.6486-0.29046 0.64869-0.64869 5.8e-5 -0.35833-0.29036-0.64886-0.64869-0.64895zm2.6533 0c-0.35843-5.8e-5 -0.64901 0.29052-0.64895 0.64895 8.6e-5 0.35833 0.29062 0.64875 0.64895 0.64869 0.35822-8.7e-5 0.6486-0.29046 0.64869-0.64869 5.8e-5 -0.35833-0.29036-0.64886-0.64869-0.64895zm2.6304 0c-0.35833 8.7e-5 -0.64875 0.29062-0.64869 0.64895 8.6e-5 0.35822 0.29046 0.6486 0.64869 0.64869 0.35833 5.8e-5 0.64886-0.29036 0.64895-0.64869 5.7e-5 -0.35843-0.29052-0.64901-0.64895-0.64895zm-5.2611 1.4546c-0.65888 0.0027-1.1996 0.5221-1.2289 1.1803h2.462c-0.02932-0.65986-0.57258-1.1799-1.2331-1.1803zm2.6307 0c-0.65888 0.0027-1.1996 0.5221-1.2289 1.1803h2.462c-0.02932-0.65986-0.57258-1.1799-1.2331-1.1803zm2.6304 0c-0.65888 0.0027-1.1996 0.5221-1.2289 1.1803h2.462c-0.02932-0.65986-0.57258-1.1799-1.2331-1.1803z" fill="white" stroke-width=".2539" fill-opacity="1" class="fg" xmlns="http://www.w3.org/2000/svg"/>
<text x="13.811308" y="38.78006" fill="white" font-family="'Devanagari Sangam MN'" font-size="1.0577px" font-weight="bold" letter-spacing=".069812px" stroke-linecap="round" stroke-width=".10598" text-align="center" text-anchor="middle" word-spacing=".0039665px" style="line-height:1.2" xml:space="preserve" fill-opacity="1" class="fg" xmlns="http://www.w3.org/2000/svg"><tspan x="13.846212" y="38.78006" fill="white" font-size="1.0577px" stroke-width=".10598" fill-opacity="1" class="fg">COMPETITION</tspan></text>
</svg>