<svg xmlns="http://www.w3.org/2000/svg" xmlns:xlink="http://www.w3.org/1999/xlink" version="1.1" viewBox="66.907 26.712 21.64 21.811">
<rect id="icon-status-clickable" x="64.743" y="24.530900000000003" width="25.968" height="26.173199999999998" fill="darkgreen" fill-opacity="1" stroke-dasharray="0.0441597, 0.176638" stroke-width=".061739" class="bg-item bg" xmlns="http://www.w3.org/2000/svg"/>
<text id="txt-status" x="77.424767" y="45.964653" fill="white" font-family="'Devanagari Sangam MN'" font-size="2.167px" font-weight="bold" letter-spacing=".16627px" stroke-linecap="round" stroke-miterlimit="4.1" stroke-width=".51612" text-align="center" text-anchor="middle" word-spacing=".0094471px" style="line-height:1.2;mix-blend-mode:normal" xml:space="preserve" fill-opacity="1" class="fg" xmlns="http://www.w3.org/2000/svg"><tspan x="77.496277" y="45.964653" fill="white" font-size="2.167px" stroke-width=".51612" fill-opacity="1" class="fg">STATUS</tspan></text>
<g id="view-status-icon" transform="matrix(1.7696 0 0 1.7696 -59.316 -27.666)" xmlns="http://www.w3.org/2000/svg"><g stroke="white" stroke-linecap="round" stroke-linejoin="round" stroke-miterlimit="4.1" stroke-width=".23" stroke-opacity="1" fill-opacity="0" class="fg" xmlns="http://www.w3.org/2000/svg"><path d="m77.487 32.104-0.38112 0.77051-0.85068 0.12343 0.61526 0.60063-0.1457 0.8475 0.6528-0.34231v0.59554h-1.9692a0.11501 0.11501 0 0 0-0.11516 0.11516v0.34803a0.115 0.115 0 0 0 0.00509 0.019724h-0.77814a0.11501 0.11501 0 0 0-0.11516 0.11516v0.3493a0.115 0.115 0 0 0 0.006999 0.026723h-0.51282v3.2112h1.2388v-3.2112h-0.50582a0.115 0.115 0 0 0 0.003181-0.026723v-0.23414h1.5525v0.21251a0.115 0.115 0 0 0 0.012725 0.048356h-0.53127v3.2112h1.2388v-3.2112h-0.50201a0.115 0.115 0 0 0 0.01018-0.048356v-0.32767a0.11501 0.11501 0 0 0-0.11325-0.11516h-0.78069a0.115 0.115 0 0 0 0.001909-0.019724v-0.23414h3.9174v0.21442a0.115 0.115 0 0 0 0.010816 0.039448h-0.78387a0.11501 0.11501 0 0 0-0.11516 0.11516v0.3493a0.115 0.115 0 0 0 0.006998 0.026723h-0.49819v3.2112h1.2388v-3.2112h-0.52046a0.115 0.115 0 0 0 0.003182-0.026723v-0.23414h1.5525v0.21251a0.115 0.115 0 0 0 0.012725 0.048356h-0.51664v3.2112h1.2388v-3.2112h-0.51473a0.115 0.115 0 0 0 0.010816-0.048356v-0.32767a0.11501 0.11501 0 0 0-0.1158-0.11516h-0.78769a0.115 0.115 0 0 0 0.006998-0.039448v-0.32831a0.11501 0.11501 0 0 0-0.1158-0.11516h-1.9489v-0.58981l0.64135 0.33722-0.14507-0.84749 0.6159-0.59999-0.85068-0.12407-0.38048-0.77114z" color="#000000" fill="white" style="-inkscape-stroke:none" fill-opacity="1" class="fg" xmlns="http://www.w3.org/2000/svg"/></g></g>
</svg>