<svg xmlns="http://www.w3.org/2000/svg" xmlns:xlink="http://www.w3.org/1999/xlink" version="1.1" viewBox="66.907181 26.712143 21.639544 21.811136">
<rect id="icon-status-clickable" x="64.7432266" y="24.5310294" width="25.9674528" height="26.1733632" fill="transparent" fill-opacity="0" stroke-dasharray="0.0441597, 0.176638" stroke-width="0.0617387" xmlns:inkscape="http://www.inkscape.org/namespaces/inkscape" inkscape:label="icon-status-clickable" class="bg-item bg" xmlns="http://www.w3.org/2000/svg"/>
<text id="txt-status" x="77.424767" y="45.964653" fill="white" font-family="'Devanagari Sangam MN'" font-size="2.167px" font-weight="bold" letter-spacing="0.16627px" stroke-linecap="round" stroke-miterlimit="4.1" stroke-width="0.516116" text-align="center" text-anchor="middle" word-spacing="0.0094471px" style="line-height:1.2;mix-blend-mode:normal" xml:space="preserve" fill-opacity="1" class="fg" xmlns="http://www.w3.org/2000/svg"><tspan x="77.496277" y="45.964653" fill="white" font-size="2.167px" stroke-width="0.516116" id="tspan13" fill-opacity="1" class="fg">STATUS</tspan></text>
<g id="view-status-icon" transform="matrix(1.7696104,0,0,1.7696104,-59.31583,-27.665924)" xmlns="http://www.w3.org/2000/svg"><g stroke="white" stroke-linecap="round" stroke-linejoin="round" stroke-miterlimit="4.1" stroke-width="0.23" id="g15" stroke-opacity="1" fill-opacity="0" class="fg" xmlns="http://www.w3.org/2000/svg"><path id="path13" style="color:#000000;fill:#ffffff;stroke:none;stroke-miterlimit:4.1;-inkscape-stroke:none" d="m 77.486576,32.103706 -0.381118,0.770507 -0.850675,0.123434 0.61526,0.600626 -0.145702,0.847495 0.652799,-0.342307 v 0.595537 h -1.969215 a 0.1150115,0.1150115 0 0 0 -0.115162,0.115162 v 0.348033 a 0.115,0.115 0 0 0 0.0051,0.01972 h -0.778142 a 0.1150115,0.1150115 0 0 0 -0.115163,0.115162 v 0.349305 a 0.115,0.115 0 0 0 0.007,0.02672 h -0.512823 v 3.211188 h 1.238792 V 35.6731 h -0.505824 a 0.115,0.115 0 0 0 0.0032,-0.02672 v -0.234142 h 1.552467 v 0.212509 a 0.115,0.115 0 0 0 0.01272,0.04836 h -0.531274 v 3.211188 h 1.238792 v -3.211188 h -0.502007 a 0.115,0.115 0 0 0 0.01018,-0.04836 V 35.297075 A 0.1150115,0.1150115 0 0 0 76.302527,35.181913 H 75.52184 a 0.115,0.115 0 0 0 0.0019,-0.01972 V 34.92805 h 3.917433 v 0.214419 a 0.115,0.115 0 0 0 0.01082,0.03945 h -0.783868 a 0.1150115,0.1150115 0 0 0 -0.115162,0.115162 v 0.349305 a 0.115,0.115 0 0 0 0.007,0.02672 h -0.498189 v 3.211188 h 1.238792 v -3.211188 h -0.520458 a 0.115,0.115 0 0 0 0.0032,-0.02672 v -0.234142 h 1.552466 v 0.212509 a 0.115,0.115 0 0 0 0.01273,0.04836 h -0.51664 v 3.211188 h 1.238792 v -3.211188 h -0.514732 a 0.115,0.115 0 0 0 0.01082,-0.04836 V 35.297081 A 0.1150115,0.1150115 0 0 0 80.450946,35.181919 H 79.66326 a 0.115,0.115 0 0 0 0.007,-0.03945 V 34.81416 a 0.1150115,0.1150115 0 0 0 -0.115798,-0.115162 h -1.948855 v -0.58981 l 0.641347,0.337216 -0.145066,-0.847494 0.615896,-0.59999 -0.850675,-0.12407 z" fill="white" fill-opacity="1" class="fg" xmlns="http://www.w3.org/2000/svg"/></g><g fill="white" id="g18" fill-opacity="1" class="fg" xmlns="http://www.w3.org/2000/svg"/></g>
</svg>