<svg xmlns="http://www.w3.org/2000/svg" xmlns:xlink="http://www.w3.org/1999/xlink" version="1.1" viewBox="10.695 1.816 9.853 9.853">
<rect id="icon-start-clickable" x="9.709700000000002" y="0.8307000000000004" width="11.823599999999999" height="11.823599999999999" fill="darkgreen" fill-opacity="1" stroke-dasharray="0.0452804, 0.18112" stroke-width=".028" style="mix-blend-mode:normal" class="bg-item bg" xmlns="http://www.w3.org/2000/svg"/>
<text x="15.562188" y="10.442361" fill="white" font-family="'Devanagari Sangam MN'" font-size="1.0577px" font-weight="bold" letter-spacing=".069812px" stroke-linecap="round" stroke-width=".10598" text-align="center" text-anchor="middle" word-spacing=".0039665px" style="line-height:1.2" xml:space="preserve" fill-opacity="1" class="fg" xmlns="http://www.w3.org/2000/svg"><tspan x="15.597094" y="10.442361" fill="white" font-size="1.0577px" stroke-width=".10598" fill-opacity="1" class="fg">START</tspan></text>
<g transform="matrix(.77845 0 0 .77845 3.4633 .60092)" fill="white" stroke-width=".5" fill-opacity="1" class="fg" xmlns="http://www.w3.org/2000/svg"><path d="m15.632 2.7123a3.567 3.567 0 0 0-3.5675 3.5668 3.567 3.567 0 0 0 3.5675 3.5675 3.567 3.567 0 0 0 3.5668-3.5675 3.567 3.567 0 0 0-3.5668-3.5668zm-1.183 1.4439a0.30705 0.30705 0 0 1 0.20712 0.041158l3.0059 1.8203a0.30705 0.30705 0 0 1 0 0.52377l-3.0059 1.8203a0.30705 0.30705 0 0 1-0.46469-0.26222v-3.6405a0.30705 0.30705 0 0 1 0.156-0.26753 0.30705 0.30705 0 0 1 0.10157-0.035184zm0.35582 0.84772v2.5511l2.107-1.2759-2.107-1.2752z" fill="white" fill-opacity="1" class="fg" xmlns="http://www.w3.org/2000/svg"/></g>
</svg>