<svg xmlns="http://www.w3.org/2000/svg" xmlns:xlink="http://www.w3.org/1999/xlink" version="1.1" viewBox="10.694709 1.8159605 9.8530178 9.8530188">
<rect id="icon-details-clickable" x="9.70940722" y="0.8306586200000003" width="11.823621359999999" height="11.823622559999999" fill="transparent" fill-opacity="0" stroke-dasharray="0.0452804, 0.18112" stroke-width="0.0279995" style="display:inline;mix-blend-mode:normal;stroke-miterlimit:4.1" xmlns:inkscape="http://www.inkscape.org/namespaces/inkscape" inkscape:label="icon-details-clickable" class="bg-item bg" xmlns="http://www.w3.org/2000/svg"/>
<path id="path16" style="color:#000000;fill:#485042f5;fill-opacity:0.998569;stroke-linecap:round;stroke-linejoin:round;stroke-miterlimit:4.1;-inkscape-stroke:none" d="m 13.386731,2.9122358 a 0.35143724,0.35143724 0 0 0 -0.3514,0.3513997 v 4.4415894 a 0.35143724,0.35143724 0 0 0 0.3514,0.3513997 h 4.441589 a 0.35143724,0.35143724 0 0 0 0.3514,-0.3513997 V 6.4257164 a 0.3514021,0.3514021 0 0 0 -0.3514,-0.3513997 0.3514021,0.3514021 0 0 0 -0.351916,0.3513997 v 0.927592 H 13.738131 V 3.6150353 H 14.82592 A 0.3514021,0.3514021 0 0 0 15.177836,3.2636355 0.3514021,0.3514021 0 0 0 14.82592,2.9122358 Z m 2.66392,0 a 0.3514021,0.3514021 0 0 0 -0.3514,0.3513997 0.3514021,0.3514021 0 0 0 0.3514,0.3513998 h 0.988053 L 15.83206,4.8201297 a 0.31023785,0.31023785 0 0 0 0,0.4397664 0.31023785,0.31023785 0 0 0 0.439249,0 L 17.476404,4.0532514 V 5.040788 A 0.3514021,0.3514021 0 0 0 17.82832,5.3927045 0.3514021,0.3514021 0 0 0 18.17972,5.040788 V 3.2636355 a 0.35143724,0.35143724 0 0 0 -0.3514,-0.3513997 z" fill="#485042f5" fill-opacity="1" class="fg" xmlns="http://www.w3.org/2000/svg"/>
</svg>
