<svg xmlns="http://www.w3.org/2000/svg" xmlns:xlink="http://www.w3.org/1999/xlink" version="1.1" viewBox="8.8624 30.175 10.053 9.853">
<rect id="icon-team-clickable" x="7.857099999999999" y="29.189700000000002" width="12.063600000000001" height="11.823599999999999" fill="darkgreen" fill-opacity="1" stroke-dasharray="0.0452804, 0.18112" stroke-width=".028" style="mix-blend-mode:normal" class="bg-item bg" xmlns="http://www.w3.org/2000/svg"/>
<path d="m13.94 32.877c-0.57642-9.3e-5 -1.044 0.46693-1.0439 1.0433 1.38e-4 0.57626 0.46761 1.0434 1.0439 1.0433 0.57609-1.41e-4 1.0427-0.46726 1.0428-1.0433 9.4e-5 -0.57626-0.46657-1.0432-1.0428-1.0433zm-2.652 0.04703c-0.35843-5.8e-5 -0.64911 0.29063-0.64906 0.64906 8.6e-5 0.35833 0.29073 0.6486 0.64906 0.64854 0.35822-8.7e-5 0.64845-0.29032 0.64854-0.64854 5.8e-5 -0.35833-0.29021-0.64897-0.64854-0.64906zm5.2834 0c-0.35833 8.7e-5 -0.6486 0.29073-0.64854 0.64906 8.6e-5 0.35822 0.29032 0.64845 0.64854 0.64854 0.35833 5.8e-5 0.64897-0.29021 0.64906-0.64854 5.7e-5 -0.35843-0.29063-0.64911-0.64906-0.64906zm-5.2612 1.4547c-0.65888 0.0027-1.1996 0.52205-1.2289 1.1803h2.4619c-0.02932-0.65986-0.57249-1.1798-1.233-1.1803zm5.2612 0c-0.65888 0.0027-1.1996 0.52205-1.2289 1.1803h2.4619c-0.02932-0.65986-0.57249-1.1798-1.233-1.1803zm-2.6314 0.83768c-1.0596 0.0043-1.9296 0.83951-1.9766 1.8981h3.9594c-0.04715-1.0612-0.92061-1.8973-1.9828-1.8981z" fill="white" stroke-width=".2539" fill-opacity="1" class="fg" xmlns="http://www.w3.org/2000/svg"/>
<text x="13.811308" y="38.78006" fill="white" font-family="'Devanagari Sangam MN'" font-size="1.0577px" font-weight="bold" letter-spacing=".069812px" stroke-linecap="round" stroke-width=".10598" text-align="center" text-anchor="middle" word-spacing=".0039665px" style="line-height:1.2" xml:space="preserve" fill-opacity="1" class="fg" xmlns="http://www.w3.org/2000/svg"><tspan x="13.846212" y="38.78006" fill="white" font-size="1.0577px" stroke-width=".10598" fill-opacity="1" class="fg">TEAM</tspan></text>
</svg>