<svg xmlns="http://www.w3.org/2000/svg" xmlns:xlink="http://www.w3.org/1999/xlink" version="1.1" viewBox="30.943 2.1372 9.853 9.8535">
<rect id="icon-umpires-clickable" x="29.957700000000003" y="1.1518500000000005" width="11.823599999999999" height="11.8242" fill="darkgreen" fill-opacity="1" stroke-dasharray="0.0452804, 0.18112" stroke-width=".028001" style="mix-blend-mode:normal" class="bg-item bg" xmlns="http://www.w3.org/2000/svg"/>
<text x="35.80447" y="10.763562" fill="white" font-family="'Devanagari Sangam MN'" font-size="1.0577px" font-weight="bold" letter-spacing=".14689px" stroke-linecap="round" stroke-width=".28516" text-align="center" text-anchor="middle" word-spacing=".0083458px" style="line-height:1.2;mix-blend-mode:normal" xml:space="preserve" fill-opacity="1" class="fg" xmlns="http://www.w3.org/2000/svg"><tspan x="35.839375" y="10.763562" fill="white" font-size="1.0577px" stroke-width=".28516" fill-opacity="1" class="fg">UMPIRES</tspan></text>
<path d="m35.481 3.0207c-0.09522-6.75e-4 -0.21323 0.034-0.30398 0.17674-0.17484 0.27497 0.09657 0.49292 0.09657 0.49292l2.3046 1.3721-0.7718 1.0936v3.0088h0.43958v-1.7869l1.2462-2.1585s0.09289-0.23189 0.06172-0.34406c-0.06449-0.23174-0.27888-0.35941-0.27888-0.35941l-1.712-0.95028c0.05248-0.08921 0.08848-0.2191-0.0061-0.36812-0.09075-0.14272-0.20876-0.17758-0.30398-0.17674-0.09522 6.74e-4 -0.16767 0.0373-0.16767 0.0373l-0.21823 0.12097-0.21822-0.12097s-0.07245-0.03643-0.16768-0.0373zm-0.52987 0.66687-1.4924 0.82827s-0.21439 0.12767-0.27888 0.35941c-0.03117 0.11218 0.06172 0.34406 0.06172 0.34406l1.2466 2.1585v1.7869h0.43923v-3.0088l-0.7718-1.0936 1.5513-0.92379-0.75298-0.4483-0.0027-0.0027zm0.90845 0.72927a0.81444 0.81444 0 0 0-0.81468 0.81433 0.81444 0.81444 0 0 0 0.81468 0.81468 0.81444 0.81444 0 0 0 0.81433-0.81468 0.81444 0.81444 0 0 0-0.81433-0.81433zm-0.19626 1.8546-0.4103 0.53092v2.3625h0.40438zm0.40716 0 0.0061 2.8934h0.40403v-2.3625z" fill="white" fill-opacity="1" class="fg" xmlns="http://www.w3.org/2000/svg"/>
</svg>